<svg width="45" height="45" viewBox="0 0 45 45" fill="none" xmlns="http://www.w3.org/2000/svg">
<path d="M22.5 45C34.9264 45 45 34.9264 45 22.5C45 10.0736 34.9264 0 22.5 0C10.0736 0 0 10.0736 0 22.5C0 34.9264 10.0736 45 22.5 45ZM24.2221 34.4092L23.2553 29.9569C26.0881 29.3298 28.693 28.5143 28.4821 25.3509H25.1532V13.5021H35.181V24.5764C35.1774 33.3773 28.7159 34.0934 24.2221 34.4092ZM10.7886 34.4092L9.81904 29.9569C12.6518 29.3298 15.2567 28.5143 15.0458 25.3509H11.7169V13.5021H21.7447V24.5764C21.7411 33.3773 15.2824 34.0934 10.7886 34.4092Z" fill="#FFDD00"/>
</svg>
