<svg width="24" height="25" viewBox="0 0 24 25" fill="none" xmlns="http://www.w3.org/2000/svg">
<path d="M12 0.541992C5.3725 0.541992 0 5.91449 0 12.542C0 19.1695 5.3725 24.542 12 24.542C18.6275 24.542 24 19.1695 24 12.542C24 5.91449 18.6275 0.541992 12 0.541992ZM9.0625 17.5157H6.6325V9.69574H9.0625V17.5157ZM7.8325 8.73574C7.065 8.73574 6.56875 8.19199 6.56875 7.51949C6.56875 6.83324 7.08 6.30574 7.86375 6.30574C8.6475 6.30574 9.1275 6.83324 9.1425 7.51949C9.1425 8.19199 8.6475 8.73574 7.8325 8.73574ZM17.9375 17.5157H15.5075V13.182C15.5075 12.1732 15.155 11.4882 14.2763 11.4882C13.605 11.4882 13.2063 11.952 13.03 12.3982C12.965 12.557 12.9488 12.782 12.9488 13.0057V17.5145H10.5175V12.1895C10.5175 11.2132 10.4862 10.397 10.4537 9.69449H12.565L12.6763 10.7807H12.725C13.045 10.2707 13.8288 9.51824 15.14 9.51824C16.7388 9.51824 17.9375 10.5895 17.9375 12.892V17.5157Z" fill="#363636"/>
</svg>
