<svg width="24" height="24" viewBox="0 0 24 24" fill="none" xmlns="http://www.w3.org/2000/svg">
<path d="M21.9697 23.0303C22.2626 23.3232 22.7374 23.3232 23.0303 23.0303C23.3232 22.7374 23.3232 22.2626 23.0303 21.9697L21.9697 23.0303ZM19.2794 10.7647C19.2794 15.4672 15.4672 19.2794 10.7647 19.2794V20.7794C16.2957 20.7794 20.7794 16.2957 20.7794 10.7647H19.2794ZM10.7647 19.2794C6.06216 19.2794 2.25 15.4672 2.25 10.7647H0.75C0.75 16.2957 5.23374 20.7794 10.7647 20.7794V19.2794ZM2.25 10.7647C2.25 6.06216 6.06216 2.25 10.7647 2.25V0.75C5.23374 0.75 0.75 5.23374 0.75 10.7647H2.25ZM10.7647 2.25C15.4672 2.25 19.2794 6.06216 19.2794 10.7647H20.7794C20.7794 5.23374 16.2957 0.75 10.7647 0.75V2.25ZM23.0303 21.9697L17.8574 16.7968L16.7968 17.8574L21.9697 23.0303L23.0303 21.9697Z" fill="#363636"/>
</svg>
