<svg width="14" height="14" viewBox="0 0 14 14" fill="none" xmlns="http://www.w3.org/2000/svg">
<path d="M12.3024 13.3635C12.5952 13.6564 13.0701 13.6564 13.363 13.3635C13.6559 13.0706 13.6559 12.5957 13.363 12.3028L12.3024 13.3635ZM10.7101 6.31356C10.7101 8.74199 8.7415 10.7106 6.31308 10.7106V12.2106C9.56993 12.2106 12.2101 9.57042 12.2101 6.31356H10.7101ZM6.31308 10.7106C3.88465 10.7106 1.91602 8.74199 1.91602 6.31356H0.416016C0.416016 9.57042 3.05622 12.2106 6.31308 12.2106V10.7106ZM1.91602 6.31356C1.91602 3.88513 3.88465 1.9165 6.31308 1.9165V0.416504C3.05622 0.416504 0.416016 3.05671 0.416016 6.31356H1.91602ZM6.31308 1.9165C8.7415 1.9165 10.7101 3.88513 10.7101 6.31356H12.2101C12.2101 3.05671 9.56993 0.416504 6.31308 0.416504V1.9165ZM13.363 12.3028L10.4892 9.42901L9.42853 10.4897L12.3024 13.3635L13.363 12.3028Z" fill="#FEFFFF"/>
</svg>
