<svg width="17" height="18" viewBox="0 0 17 18" fill="none" xmlns="http://www.w3.org/2000/svg">
<path d="M4.93268 12.7133L6.40018 12.29L15.236 3.34829C15.3057 3.27687 15.3445 3.1809 15.344 3.08111C15.3436 2.98132 15.3039 2.88572 15.2335 2.81495L14.7043 2.27995C14.6702 2.24482 14.6293 2.21684 14.5842 2.19767C14.5391 2.17849 14.4906 2.16849 14.4415 2.16826C14.3925 2.16803 14.3439 2.17756 14.2986 2.19631C14.2533 2.21506 14.2122 2.24264 14.1777 2.27745L5.36518 11.1958L4.93185 12.7125L4.93268 12.7133ZM15.7518 1.21995L16.281 1.75579C17.011 2.49495 17.0177 3.68745 16.2943 4.41912L7.18935 13.6341L4.05268 14.5375C3.86118 14.5911 3.65623 14.5665 3.48282 14.4692C3.3094 14.3718 3.18168 14.2097 3.12768 14.0183C3.0875 13.8807 3.08692 13.7345 3.12602 13.5966L4.03852 10.3966L13.1194 1.20579C13.292 1.03192 13.4976 0.894172 13.7241 0.80058C13.9505 0.706989 14.1934 0.659427 14.4384 0.660668C14.6834 0.661909 14.9258 0.711929 15.1513 0.807809C15.3768 0.903689 15.5809 1.04351 15.7518 1.21912V1.21995ZM6.15268 2.18079C6.56602 2.18079 6.90102 2.51995 6.90102 2.93829C6.90167 3.03718 6.88283 3.13523 6.84557 3.22683C6.80831 3.31843 6.75336 3.4018 6.68386 3.47215C6.61436 3.5425 6.53167 3.59846 6.44053 3.63683C6.34939 3.67521 6.25157 3.69524 6.15268 3.69579H3.15935C2.33268 3.69579 1.66268 4.37412 1.66268 5.20995V14.2983C1.66268 15.135 2.33268 15.8133 3.15935 15.8133H12.1393C12.966 15.8133 13.6369 15.135 13.6369 14.2983V11.2691C13.6369 10.8508 13.9718 10.5116 14.3852 10.5116C14.7985 10.5116 15.1335 10.8508 15.1335 11.27V14.2983C15.1335 15.9716 13.7927 17.3283 12.1393 17.3283H3.15935C1.50602 17.3283 0.166016 15.9716 0.166016 14.2983V5.20995C0.166016 3.53745 1.50602 2.18079 3.15935 2.18079H6.15268Z" fill="#FFDD00"/>
</svg>
