<?xml version="1.0" encoding="UTF-8"?> <svg xmlns="http://www.w3.org/2000/svg" width="112" height="112" viewBox="0 0 112 112" fill="none"><path d="M56 112C86.9279 112 112 86.9279 112 56C112 25.0721 86.9279 0 56 0C25.0721 0 0 25.0721 0 56C0 86.9279 25.0721 112 56 112Z" fill="#009DCC"></path><rect x="40.0781" y="27" width="32.0486" height="19.402" rx="1" stroke="white" stroke-width="2"></rect><path d="M36.7012 30.1619H39.7813V43.2405H36.7012C36.1489 43.2405 35.7012 42.7928 35.7012 42.2405V31.1619C35.7012 30.6096 36.1489 30.1619 36.7012 30.1619Z" stroke="white" stroke-width="2"></path><path d="M75.5039 43.2402L72.4238 43.2402L72.4238 30.1616L75.5039 30.1616C76.0562 30.1616 76.5039 30.6093 76.5039 31.1616L76.5039 42.2402C76.5039 42.7925 76.0562 43.2402 75.5039 43.2402Z" stroke="white" stroke-width="2"></path><path d="M50.0508 49.5909L50.0508 46.6996L62.1566 46.6996L62.1566 49.5909C62.1566 52.9338 59.4466 55.6438 56.1037 55.6438C52.7608 55.6438 50.0508 52.9338 50.0508 49.5909Z" stroke="white" stroke-width="2"></path><path d="M50.7676 72.1126L56.2134 64.0788L61.3053 72.3415C63.882 76.5228 60.8739 81.9099 55.9624 81.9099C50.9279 81.9099 47.9427 76.2798 50.7676 72.1126Z" stroke="white" stroke-width="2"></path><path d="M42.7539 77.681L42.7539 46.6996L69.6952 46.6996L69.6952 77.681C69.6952 85.1206 63.6642 91.1516 56.2246 91.1516C48.7849 91.1516 42.7539 85.1206 42.7539 77.681Z" stroke="white" stroke-width="2"></path><path d="M24 34.0256H35.1874" stroke="white" stroke-width="2" stroke-linecap="round"></path><path d="M77.0195 34.0256H88.2069" stroke="white" stroke-width="2" stroke-linecap="round"></path><path d="M56.1035 36.9441L59.6366 40.7203" stroke="white" stroke-width="2" stroke-linecap="round"></path><path d="M24 39.6194H35.1874" stroke="white" stroke-width="2" stroke-linecap="round"></path><path d="M77.0195 39.6194H88.2069" stroke="white" stroke-width="2" stroke-linecap="round"></path><circle cx="56.1037" cy="36.7011" r="6.05292" stroke="white" stroke-width="2"></circle></svg> 