<?xml version="1.0" encoding="UTF-8"?> <svg xmlns="http://www.w3.org/2000/svg" width="112" height="112" viewBox="0 0 112 112" fill="none"><path d="M56 112C86.9279 112 112 86.9279 112 56C112 25.0721 86.9279 0 56 0C25.0721 0 0 25.0721 0 56C0 86.9279 25.0721 112 56 112Z" fill="#009DCC"></path><path d="M41 35H71" stroke="white" stroke-width="2" stroke-linecap="round"></path><path d="M41 39H71" stroke="white" stroke-width="2" stroke-linecap="round"></path><path d="M41 43H71" stroke="white" stroke-width="2" stroke-linecap="round"></path><path d="M41 47H71" stroke="white" stroke-width="2" stroke-linecap="round"></path><path d="M41 51H71" stroke="white" stroke-width="2" stroke-linecap="round"></path><path d="M41 55H71" stroke="white" stroke-width="2" stroke-linecap="round"></path><path d="M41 59H71" stroke="white" stroke-width="2" stroke-linecap="round"></path><path d="M41 63H71" stroke="white" stroke-width="2" stroke-linecap="round"></path><path d="M41 67H71" stroke="white" stroke-width="2" stroke-linecap="round"></path><path d="M41 71H71" stroke="white" stroke-width="2" stroke-linecap="round"></path><path d="M41 75H71" stroke="white" stroke-width="2" stroke-linecap="round"></path><path d="M52.6914 23H59.1489C61.358 23 63.1489 24.7909 63.1489 27V30.2234H48.6914V27C48.6914 24.7909 50.4823 23 52.6914 23Z" stroke="white" stroke-width="2"></path><path d="M59.1484 87L52.691 87C50.4818 87 48.691 85.2091 48.691 83L48.691 79.7766L63.1484 79.7766L63.1484 83C63.1484 85.2091 61.3576 87 59.1484 87Z" stroke="white" stroke-width="2"></path></svg> 