<?xml version="1.0" encoding="UTF-8"?> <svg xmlns="http://www.w3.org/2000/svg" width="113" height="113" viewBox="0 0 113 113" fill="none"><path d="M56.5 113C87.7041 113 113 87.7041 113 56.5C113 25.2959 87.7041 0 56.5 0C25.2959 0 0 25.2959 0 56.5C0 87.7041 25.2959 113 56.5 113Z" fill="#009DCC"></path><rect x="19" y="69.0725" width="75.5123" height="5.92739" rx="2.9637" stroke="white" stroke-width="2"></rect><path d="M23.2859 67.6323C22.8454 65.577 22.5828 61.0283 25.0475 59.2645C25.9277 58.6346 26.81 56.622 26.81 56.622C27.3972 55.3008 29.1882 52.9226 31.6545 53.9795C34.1208 55.0365 35.031 51.7775 35.1778 50.0159C35.4714 48.2542 36.7633 44.7309 39.5819 44.7309C42.4005 44.7309 42.518 40.7672 43.1052 39.0056C43.6924 37.244 45.3953 35.13 47.5093 35.4823C49.6232 35.8347 50.5922 35.0419 50.5922 33.7206C50.5922 31.959 50.8264 30.6824 53.2346 28.8762C54.9963 27.5548 57.6383 26.6742 58.96 27.1146C61.6025 27.9951 62.4723 28.7257 64.2449 29.3165C65.5661 29.7569 68.0298 30.9824 69.5298 35.4823C70.4106 38.1248 71.2915 39.446 71.2915 39.446C72.6127 40.7673 74.9028 41.6481 75.2552 43.4097C75.6075 45.1714 75.2833 46.8562 76.5764 47.3734C78.7784 48.2542 80.9805 47.8139 82.3017 50.8967C83.623 53.9795 83.1826 56.88 83.1826 57.5029C83.1826 60.1453 84.5038 61.4666 85.825 61.907C87.1463 62.3474 93.312 65.8707 90.2291 68.5131" stroke="white" stroke-width="2" stroke-linecap="round"></path><circle cx="58.0771" cy="38.5651" r="1.32123" fill="white"></circle><circle cx="65.124" cy="45.6118" r="1.32123" fill="white"></circle><circle cx="46.6259" cy="46.4924" r="1.32123" fill="white"></circle><circle cx="49.2685" cy="42.0883" r="1.32123" fill="white"></circle><circle cx="43.1025" cy="41.2075" r="1.32123" fill="white"></circle><circle cx="58.958" cy="33.2802" r="1.32123" fill="white"></circle><circle cx="73.0517" cy="50.8967" r="1.32123" fill="white"></circle><circle cx="56.3154" cy="54.4199" r="1.32123" fill="white"></circle><circle cx="42.2216" cy="57.0624" r="1.32123" fill="white"></circle><circle cx="29.0107" cy="59.7048" r="1.32123" fill="white"></circle><circle cx="34.2958" cy="63.228" r="1.32123" fill="white"></circle><circle cx="43.1025" cy="53.539" r="1.32123" fill="white"></circle><circle cx="50.1494" cy="60.5856" r="1.32123" fill="white"></circle><circle cx="67.7665" cy="58.8239" r="1.32123" fill="white"></circle><circle cx="79.2177" cy="63.228" r="1.32123" fill="white"></circle><circle cx="36.0576" cy="51.7773" r="1.32123" fill="white"></circle><circle cx="87.1455" cy="64.1088" r="1.32123" fill="white"></circle><circle cx="77.456" cy="57.9431" r="1.32123" fill="white"></circle><circle cx="80.9794" cy="50.8967" r="1.32123" fill="white"></circle><circle cx="65.124" cy="53.539" r="1.32123" fill="white"></circle><circle cx="58.0771" cy="46.4924" r="1.32123" fill="white"></circle><circle cx="65.124" cy="40.3268" r="1.32123" fill="white"></circle><circle cx="58.958" cy="62.3474" r="1.32123" fill="white"></circle><circle cx="69.5283" cy="67.6323" r="1.32123" fill="white"></circle><circle cx="44.8642" cy="64.9897" r="1.32123" fill="white"></circle><circle cx="66.0048" cy="32.3994" r="1.32123" fill="white"></circle><circle cx="53.6728" cy="29.7568" r="1.32123" fill="white"></circle></svg> 