<?xml version="1.0" encoding="UTF-8"?> <svg xmlns="http://www.w3.org/2000/svg" width="113" height="113" viewBox="0 0 113 113" fill="none"><path d="M56.5 113C87.7041 113 113 87.7041 113 56.5C113 25.2959 87.7041 0 56.5 0C25.2959 0 0 25.2959 0 56.5C0 87.7041 25.2959 113 56.5 113Z" fill="#009DCC"></path><rect x="26" y="48" width="22" height="22" rx="1" stroke="white" stroke-width="2"></rect><path d="M22 67C22 66.4477 21.5523 66 21 66C20.4477 66 20 66.4477 20 67H22ZM21 83.5H20C20 84.0523 20.4477 84.5 21 84.5V83.5ZM92 83.5V84.5C92.5523 84.5 93 84.0523 93 83.5H92ZM93 67C93 66.4477 92.5523 66 92 66C91.4477 66 91 66.4477 91 67H93ZM29.5 29.5C28.9477 29.5 28.5 29.9477 28.5 30.5C28.5 31.0523 28.9477 31.5 29.5 31.5V29.5ZM34.5 31.5C35.0523 31.5 35.5 31.0523 35.5 30.5C35.5 29.9477 35.0523 29.5 34.5 29.5V31.5ZM20.5 38C19.9477 38 19.5 38.4477 19.5 39C19.5 39.5523 19.9477 40 20.5 40V38ZM34.5 40C35.0523 40 35.5 39.5523 35.5 39C35.5 38.4477 35.0523 38 34.5 38V40ZM36.5 61.5C35.9477 61.5 35.5 61.9477 35.5 62.5C35.5 63.0523 35.9477 63.5 36.5 63.5V61.5ZM47.5 63.5C48.0523 63.5 48.5 63.0523 48.5 62.5C48.5 61.9477 48.0523 61.5 47.5 61.5V63.5ZM20 67V83.5H22V67H20ZM21 84.5H92V82.5H21V84.5ZM93 83.5V67H91V83.5H93ZM29.5 31.5H34.5V29.5H29.5V31.5ZM20.5 40H34.5V38H20.5V40ZM36.5 63.5H47.5V61.5H36.5V63.5Z" fill="white"></path><path d="M42 30H86V28H42V30ZM87 31V51H89V31H87ZM46 47H42V49H46V47ZM41 46V31H39V46H41ZM86 52H50V54H86V52ZM49 51V50H47V51H49ZM50 52C49.4477 52 49 51.5523 49 51H47C47 52.6569 48.3431 54 50 54V52ZM42 47C41.4477 47 41 46.5523 41 46H39C39 47.6569 40.3431 49 42 49V47ZM46 49C46.5523 49 47 49.4477 47 50H49C49 48.3431 47.6569 47 46 47V49ZM87 51C87 51.5523 86.5523 52 86 52V54C87.6569 54 89 52.6569 89 51H87ZM86 30C86.5523 30 87 30.4477 87 31H89C89 29.3431 87.6569 28 86 28V30ZM42 28C40.3431 28 39 29.3431 39 31H41C41 30.4477 41.4477 30 42 30V28Z" fill="white"></path><path d="M72 30C72 29.4477 71.5523 29 71 29C70.4477 29 70 29.4477 70 30H72ZM71 38H70C70 38.3543 70.1875 38.6822 70.4929 38.8619C70.7983 39.0416 71.1759 39.0462 71.4856 38.8742L71 38ZM75.5 35.5L76.0812 34.6863L75.5669 34.3189L75.0144 34.6258L75.5 35.5ZM79 38L78.4188 38.8137C78.7236 39.0315 79.1245 39.0606 79.4576 38.8892C79.7907 38.7178 80 38.3746 80 38H79ZM80 30C80 29.4477 79.5523 29 79 29C78.4477 29 78 29.4477 78 30H80ZM70 30V38H72V30H70ZM71.4856 38.8742L75.9856 36.3742L75.0144 34.6258L70.5144 37.1258L71.4856 38.8742ZM74.9188 36.3137L78.4188 38.8137L79.5812 37.1863L76.0812 34.6863L74.9188 36.3137ZM80 38V30H78V38H80Z" fill="white"></path><path d="M49 30C49 29.4477 48.5523 29 48 29C47.4477 29 47 29.4477 47 30H49ZM48 38H47C47 38.3543 47.1875 38.6822 47.4929 38.8619C47.7983 39.0416 48.1759 39.0462 48.4856 38.8742L48 38ZM52.5 35.5L53.0812 34.6863L52.5669 34.3189L52.0144 34.6258L52.5 35.5ZM56 38L55.4188 38.8137C55.7236 39.0315 56.1245 39.0606 56.4576 38.8892C56.7907 38.7178 57 38.3746 57 38H56ZM57 30C57 29.4477 56.5523 29 56 29C55.4477 29 55 29.4477 55 30H57ZM47 30V38H49V30H47ZM48.4856 38.8742L52.9856 36.3742L52.0144 34.6258L47.5144 37.1258L48.4856 38.8742ZM51.9188 36.3137L55.4188 38.8137L56.5812 37.1863L53.0812 34.6863L51.9188 36.3137ZM57 38V30H55V38H57Z" fill="white"></path><path d="M64 29.5V53" stroke="white" stroke-width="2" stroke-linecap="round"></path><path d="M48 53H94C97.866 53 101 56.134 101 60C101 63.866 97.866 67 94 67H48V53Z" stroke="white" stroke-width="2"></path><path d="M26 67L20 67C16.134 67 13 63.866 13 60C13 56.134 16.134 53 20 53L26 53L26 67Z" stroke="white" stroke-width="2"></path><circle cx="20.5" cy="59.5" r="1.5" fill="white"></circle><circle cx="52.5" cy="59.5" r="1.5" fill="white"></circle><circle cx="62.5" cy="59.5" r="1.5" fill="white"></circle><circle cx="72.5" cy="59.5" r="1.5" fill="white"></circle><circle cx="82.5" cy="59.5" r="1.5" fill="white"></circle><circle cx="92.5" cy="59.5" r="1.5" fill="white"></circle></svg> 