<?xml version="1.0" encoding="UTF-8"?> <svg xmlns="http://www.w3.org/2000/svg" width="113" height="113" viewBox="0 0 113 113" fill="none"><path d="M56.5 113C87.7041 113 113 87.7041 113 56.5C113 25.2959 87.7041 0 56.5 0C25.2959 0 0 25.2959 0 56.5C0 87.7041 25.2959 113 56.5 113Z" fill="#009DCC"></path><path d="M61.5781 52.4531C60.8773 52.4531 60.3086 53.0219 60.3086 53.7227C60.3086 54.4234 60.8773 54.9922 61.5781 54.9922C62.2789 54.9922 62.8477 54.4234 62.8477 53.7227C62.8477 53.0219 62.2789 52.4531 61.5781 52.4531Z" fill="white"></path><path d="M56.5 44.8359C55.7992 44.8359 55.2305 45.4047 55.2305 46.1055C55.2305 46.8062 55.7992 47.375 56.5 47.375C57.2008 47.375 57.7695 46.8062 57.7695 46.1055C57.7695 45.4047 57.2008 44.8359 56.5 44.8359Z" fill="white"></path><path d="M41.2656 77.8438C40.5648 77.8438 39.9961 78.4125 39.9961 79.1133C39.9961 79.8141 40.5648 80.3828 41.2656 80.3828C41.9664 80.3828 42.5352 79.8141 42.5352 79.1133C42.5352 78.4125 41.9664 77.8438 41.2656 77.8438Z" fill="white"></path><path d="M81.9261 74.756L65.6232 45.773V30.3996C67.1011 29.8757 68.1623 28.4638 68.1623 26.8086C68.1623 24.7085 66.4538 23 64.3537 23H49.1193C47.0193 23 45.3107 24.7085 45.3107 26.8086C45.3107 28.4638 46.3719 29.8757 47.8498 30.3996V45.773L31.547 74.756C29.9819 77.5383 30.0097 80.8445 31.6211 83.5999C33.2324 86.3551 36.1 88 39.2919 88H74.1812C77.373 88 80.2405 86.3551 81.8519 83.5999C83.4633 80.8445 83.4911 77.5383 81.9261 74.756ZM50.2259 46.7278C50.3328 46.5379 50.3889 46.3234 50.3889 46.1055V30.6172H51.6584C52.3594 30.6172 52.9279 30.0487 52.9279 29.3477C52.9279 28.6466 52.3594 28.0781 51.6584 28.0781H49.1193C48.4193 28.0781 47.8498 27.5086 47.8498 26.8086C47.8498 26.1086 48.4193 25.5391 49.1193 25.5391H64.3537C65.0537 25.5391 65.6232 26.1086 65.6232 26.8086C65.6232 27.5086 65.0537 28.0781 64.3537 28.0781H61.8147C61.1136 28.0781 60.5451 28.6466 60.5451 29.3477C60.5451 30.0487 61.1136 30.6172 61.8147 30.6172H63.0842V46.1055C63.0842 46.3236 63.1403 46.5377 63.2472 46.7278L70.7299 60.0308C66.1603 59.6608 61.6064 60.585 57.4226 62.7514C52.0441 65.5348 46.0566 66.0248 40.4109 64.1767L50.2259 46.7278ZM79.6601 82.3181C78.5092 84.286 76.461 85.4609 74.1812 85.4609H39.2919C37.0121 85.4609 34.9638 84.286 33.813 82.3181C32.6619 80.3499 32.642 77.9882 33.76 76.0006L39.1439 66.4294C41.7561 67.3416 44.4556 67.802 47.1974 67.802C47.6033 67.802 48.0102 67.792 48.4178 67.7718C51.9604 67.5963 55.3827 66.6659 58.5898 65.0063C62.8798 62.7851 67.5983 62.0183 72.2732 62.7743L79.7131 76.0006C80.8311 77.9882 80.8113 80.3499 79.6601 82.3181Z" fill="white"></path><path d="M51.4219 52.4531C49.3218 52.4531 47.6133 54.1617 47.6133 56.2617C47.6133 58.3618 49.3218 60.0703 51.4219 60.0703C53.5219 60.0703 55.2305 58.3618 55.2305 56.2617C55.2305 54.1617 53.5219 52.4531 51.4219 52.4531ZM51.4219 57.5312C50.7219 57.5312 50.1523 56.9617 50.1523 56.2617C50.1523 55.5617 50.7219 54.9922 51.4219 54.9922C52.1219 54.9922 52.6914 55.5617 52.6914 56.2617C52.6914 56.9617 52.1219 57.5312 51.4219 57.5312Z" fill="white"></path><path d="M71.7344 77.8438H46.3438C45.6427 77.8438 45.0742 78.4122 45.0742 79.1133C45.0742 79.8143 45.6427 80.3828 46.3438 80.3828H71.7344C72.4354 80.3828 73.0039 79.8143 73.0039 79.1133C73.0039 78.4122 72.4354 77.8438 71.7344 77.8438Z" fill="white"></path></svg> 