<?xml version="1.0" encoding="UTF-8"?> <svg xmlns="http://www.w3.org/2000/svg" id="Warstwa_1" data-name="Warstwa 1" viewBox="0 0 31 31"><defs><style>.cls-1{fill:#9d9d9c;}.cls-2{fill:#fff;}.cls-2,.cls-3,.cls-4{stroke:#1d1d1b;stroke-width:0.75px;}.cls-2,.cls-4{stroke-linecap:round;stroke-linejoin:round;}.cls-3{fill:none;stroke-miterlimit:10;}.cls-4{fill:#1d1d1b;}</style></defs><path class="cls-1" d="M10,20.81h0v0h0v0ZM21,10.22h0"></path><path class="cls-2" d="M21,20.8H10.05L21,10.23V20.8"></path><polygon class="cls-1" points="20.99 20.82 10.03 20.82 20.99 20.82 20.99 10.2 20.97 10.2 20.99 10.18 20.99 20.82"></polygon><polyline class="cls-1" points="10.03 20.8 10.03 20.8 10.03 20.78 20.95 10.22 20.97 10.22 10.04 20.8"></polyline><polygon class="cls-1" points="20.99 20.82 10.03 20.82 10.02 20.8 10.03 20.79 10.03 20.81 20.98 20.81 20.98 10.21 20.96 10.21 20.97 10.2 20.97 10.2 20.99 10.2 20.99 20.82"></polygon><path class="cls-1" d="M21,20.81H10L21,10.22h0Zm0-10.58L10.05,20.8H21V10.23"></path><circle class="cls-3" cx="15.5" cy="15.5" r="11.15"></circle><path class="cls-4" d="M10,20.78V10.22H21L10,20.78"></path></svg> 