<?xml version="1.0" encoding="UTF-8"?> <svg xmlns="http://www.w3.org/2000/svg" id="Warstwa_1" data-name="Warstwa 1" viewBox="0 0 31 31"><defs><style>.cls-1{fill:#1d1d1b;}.cls-2{fill:#fff;stroke:#fff;stroke-linecap:round;stroke-linejoin:round;stroke-width:0.04px;}.cls-3{fill:none;stroke:#1d1d1b;stroke-miterlimit:10;stroke-width:0.75px;}</style></defs><path class="cls-1" d="M10.43,11.85c-.09-.19-.13-.2-.31-.34A3.78,3.78,0,0,1,13,13.06c0-.17,0-.33,0-.54a4.06,4.06,0,0,1,1.41.81,3.17,3.17,0,0,1,1,1.33l.07,0c0-.17,0-.34,0-.55a4.22,4.22,0,0,1,2.2,2.1l.06-.05c0-.11,0-.23-.05-.43A4.69,4.69,0,0,0,19,16.77c0-.13-.09-.21-.15-.36l.54.37c-.11-.28-.26-.49-.07-.76.09.25.05.53.39.66v-.47l.1,0,.18.41.15-.18a.2.2,0,0,1,0,.08c0,.45.22.6.64.48.59-.17,1.16-.37,1.74-.56.05,0,.1-.05.14,0l1.34.19c-.6.23-1.16.48-1.72.66a10,10,0,0,1-1.31.32.49.49,0,0,0-.33.59,1.17,1.17,0,0,0,.12.31c0,.1.11.18.18.3-.29,0-.39-.17-.48-.37a.67.67,0,0,0-.34.57c-.05-.13-.11-.25-.17-.4a3.8,3.8,0,0,1-3,1.35l.47-.76a3.42,3.42,0,0,1-3.17.7c-.46-.07-.9-.17-1.35-.26v-.1l.63-.48,0-.06c-1.68.69-3-.46-4.15-1.64l.66-.18a2,2,0,0,1-1.9-1,8.05,8.05,0,0,1-.85-2,1.47,1.47,0,0,0,.47.36,2,2,0,0,1-.18-.23c-.22-.2-.93-2.48-.24-3.17.67-.28,2.93.56,3.13.77"></path><path class="cls-2" d="M19.17,17.64a13.76,13.76,0,0,1-5.7-1.09,38.22,38.22,0,0,1-4.35-3c2.29,1.85,4.52,4.51,10.05,4.1"></path><circle class="cls-3" cx="15.5" cy="15.5" r="11.15"></circle></svg> 