<?xml version="1.0" encoding="UTF-8"?> <svg xmlns="http://www.w3.org/2000/svg" id="Warstwa_1" data-name="Warstwa 1" viewBox="0 0 31 31"><defs><style>.cls-1{fill:#1d1d1b;}.cls-2{fill:none;stroke:#1d1d1b;stroke-miterlimit:10;stroke-width:0.75px;}</style></defs><path class="cls-1" d="M9.22,11.85H10V16.7a3.82,3.82,0,0,0,.15,1.15,1.87,1.87,0,0,0,.45.78,1.78,1.78,0,0,0,.72.44,3.43,3.43,0,0,0,1.94,0,1.75,1.75,0,0,0,.73-.44,1.87,1.87,0,0,0,.45-.78,3.82,3.82,0,0,0,.15-1.15V11.85h.75v5A4,4,0,0,1,15.14,18a2.64,2.64,0,0,1-.54.95,2.57,2.57,0,0,1-.94.64,3.66,3.66,0,0,1-1.4.24,3.6,3.6,0,0,1-1.39-.24A2.57,2.57,0,0,1,9.93,19,2.5,2.5,0,0,1,9.39,18a4,4,0,0,1-.17-1.15Z"></path><path class="cls-1" d="M16.81,11.85h5v.63H17.56v2.83h3.75V16H17.56v3.73h-.75Z"></path><circle class="cls-2" cx="15.5" cy="15.5" r="11.15"></circle></svg> 