<?xml version="1.0" encoding="UTF-8"?> <!-- Generator: Adobe Illustrator 26.0.1, SVG Export Plug-In . SVG Version: 6.00 Build 0) --> <svg xmlns="http://www.w3.org/2000/svg" xmlns:xlink="http://www.w3.org/1999/xlink" version="1.1" id="Warstwa_1" x="0px" y="0px" viewBox="0 0 91 52" style="enable-background:new 0 0 91 52;" xml:space="preserve"> <style type="text/css"> .st0{fill:#244AA5;} .st1{fill:#D0A650;} .st2{fill:#FFFFFF;} </style> <path class="st0" d="M0,0h91v52H0V0z"></path> <path class="st1" d="M45.4,17c0.4,0.4,0.5,0.7,0.5,1.1c-0.2,0.2-0.5,0.2-0.9,0.4c1.2-0.2,1.6,1.2,3,0.7c0,0.2,0.2,0.4,0.5,0.4 l0.2-0.4c0.5-0.2,0.4,0.7,1.1,0.5c0.4,0.2,0.2,0.7,0.4,1.1c0,0.4,0.2,0.7,0.4,0.9c0.2-0.2,0.2-0.4,0.5-0.4c0.2,0.4,0.5,0.5,0.5,0.9 c-0.2,0.5-0.2,1.1,0.4,1.4v0.2c0.4,0.2,1.2-0.2,1.2,0.5c0,0.2,0.2,0,0.4,0.2c0.2-0.2,0.5,0,0.9,0c0.2,0.5-0.4,0.9-0.5,1.4 c0.2,0.2,0.2,0.7,0.2,1.1h-0.2c0.4,0,0.9,0,1.2,0.2l0.7,0.2c0.4-0.2,0.7-0.2,1.1-0.2c0.4,0.2-0.2,0.5,0.2,0.7c0.4,0,0.7,0,0.7,0.4 v0.2c0.2-0.5,0.9-0.2,1.2-0.5c0.5,0,0.5,0.5,0.9,0.9c0.2,0.7-0.9,1.1-0.5,2c-0.2,0.4-0.5,0.7-0.9,1.1c0.2,0,0,0.2,0,0.2 c-0.4,0.2,0,0.7-0.5,0.7c0,0.4-0.7,0.2-0.5,0.5c0.4,0.5-0.2,0.9-0.2,1.4c-0.2,0.4-0.7-0.2-0.7,0.4c-0.4,0-0.5-0.4-0.9,0 c-0.2,0.4,0.2,0.5,0.2,0.9c0.5,0,0.7,0.5,0.9,0.7l0.5,0.5c-0.5,0.4-1.2,0-1.8,0.2c-0.2,0,0-0.4-0.2-0.4c-0.2-0.2-0.5-0.2-0.7-0.2 c0,0.2-0.4,0.4-0.2,0.5c0,0,0.2,0.4-0.2,0.4c-0.4,0.2-0.4-0.4-0.7-0.2c-0.5,0.2-0.2,0.9-0.7,0.7c0.2,0.5-1.1,1.1-0.2,1.6 c0.2,0.2,0,0.4,0,0.5c-0.5,0.4-1.2,0.2-1.8,0.2c-0.4-0.2-0.2-0.5-0.4-0.9c-0.2-0.2-0.5-0.4-0.5-0.7c-0.4-0.2-0.5-0.2-0.7-0.5 c-0.7,0.7-1.6,1.4-2.7,1.4c-0.5,0.2-0.7,1.1-1.4,0.7c-0.4,0.5-1.1,0-1.2,0.7c-0.4,0.2-0.2,0.5-0.4,0.7c0,0.5,0,0.9,0.4,1.2 c0.2,0.4-0.4,0.4-0.2,0.7c0,0.2,0,0.4,0,0.4c-0.2,0-0.2,0.2-0.2,0.4c-0.2,0-0.2,0-0.4,0.2c-0.2,0.2-0.5,0.4-0.9,0.5 c-0.4,0-0.5-0.2-0.7-0.4c0,0.4-0.4,0.4-0.5,0.4c-0.4,0-0.4-0.4-0.7-0.5c0.2-0.5-0.4-0.7-0.2-1.1c0.4-0.2,0.9-0.4,0.7-0.9 c-0.4-0.4-0.2-1.1-0.5-1.6c-0.2-0.2-0.5-0.5-0.5-1.1c0.4-0.4,0-0.9-0.2-1.2c0-0.4-0.4-0.7-0.4-1.1c-0.5-0.4-0.5-1.2-1.4-1.2 c-0.5,0-0.7-0.7-1.2-0.7c0-0.2-0.2-0.2-0.4-0.4c-0.4,0.4-0.9,0-1.4,0c-0.4-0.5,0.4-1.2-0.5-1.6v-0.4c0.2,0,0.2,0,0.2-0.2 c0-0.4-0.7-0.4-0.4-0.9c-0.2-0.2-0.4-0.2-0.2-0.4c-0.4-0.7-1.6-0.7-1.8-1.4c0.2-0.2,0.2-0.4,0.4-0.5c-0.2-0.4-0.2-0.7-0.2-0.9 c0.2,0,0.4-0.4,0.4-0.5c-0.2-0.2-0.5-0.4-0.7-0.4c-0.5,0-0.7-0.4-1.2-0.7c-0.2-0.2,0-0.4,0-0.4c0.5-0.2,0-0.9,0.5-0.9 c0.2-0.2,0.5-0.4,0.9-0.5c0.4,0,0.5,0,0.7,0.2c0.2,0.4,0.7,0.2,0.9,0.4c0.2,0,0.5-0.2,0.7,0c0-0.4,0.2-0.7,0.5-1.1 c0-0.2,0.4-0.4,0.5-0.4c0.4,0.2,0.9,0.2,1.2-0.2c0.2,0.2,0.4-0.2,0.5-0.2c0.4,0,0.5,0,0.7,0.2c0-0.5,0.9,0,1.1-0.7 c0.2-0.4-0.5-0.5-0.5-0.9c-0.2-0.4,0.2-0.5,0.4-0.9c0.2,0,0.4-0.2,0.5-0.2c0.5-0.2,0.2-1.4,1.1-0.9c0,0.2,0,0.4,0,0.4 c0.4,0,0.4-0.4,0.5-0.5c0.2-0.4-0.2-0.7,0.2-1.1c0.2,0,0.4,0,0.4-0.2c0-0.4-0.2-0.4-0.4-0.5c0,0.2-0.4,0-0.4,0 c0-0.4-0.2-0.5-0.2-0.7c-0.2,0-0.2-0.2-0.2-0.4c0.2-0.2,0-0.7,0.5-0.7c0.2-0.2,0.5,0,0.7-0.4c0.5-0.4,1.2-0.4,1.6-0.9 c0.2,0,0.4-0.2,0.5,0C44.8,16.8,45.4,16.6,45.4,17z"></path> <path class="st2" d="M49.3,10.1L48.6,8l-0.7,2.1h-2.3l1.8,1.4l-0.7,2.1l1.8-1.4l1.8,1.4l-0.7-2.1l1.8-1.4H49.3z"></path> <path class="st2" d="M56.4,11.3l-0.7-2.1l-0.7,2.1h-2.3l1.8,1.4l-0.7,2.1l1.8-1.4l1.8,1.4l-0.7-2.1l1.8-1.4H56.4z"></path> <path class="st2" d="M63.3,13.8l-0.7-2.1l-0.7,2.1h-2.3l1.8,1.4l-0.7,2.1l1.8-1.4l1.8,1.4l-0.7-2.1l1.8-1.4H63.3z"></path> <path class="st2" d="M42,10.1L41.3,8l-0.7,2.1h-2.3l1.8,1.4l-0.7,2.1l1.8-1.4l1.8,1.4l-0.7-2.1l1.8-1.4H42z"></path> <path class="st2" d="M34.9,11.3l-0.7-2.1l-0.7,2.1h-2.3l1.8,1.4l-0.7,2.1l1.8-1.4l1.8,1.4l-0.7-2.1l1.8-1.4H34.9z"></path> <path class="st2" d="M28.1,13.8l-0.7-2.1l-0.7,2.1h-2.3l1.8,1.4l-0.7,2.1l1.8-1.4l1.8,1.4l-0.7-2.1l1.8-1.4H28.1z"></path> </svg> 