<?xml version="1.0" encoding="UTF-8"?> <svg xmlns="http://www.w3.org/2000/svg" width="89" height="52" viewBox="0 0 89 52" fill="none"><path d="M89 0H0V16.6876H89V0Z" fill="#4497B1"></path><path d="M89 16.4229H0V17.4821H89V16.4229Z" fill="#BC0030"></path><path d="M89 17.4805H0V34.1681H89V17.4805Z" fill="white"></path><path d="M89 34.1709H0V35.2305H89V34.1709Z" fill="#BC0030"></path><path d="M89 35.2285H0V51.9158H89V35.2285Z" fill="#50B63F"></path><path d="M20.6592 8.21138C20.6592 11.6548 17.7456 14.3038 14.567 14.3038C11.1236 14.3038 8.47461 11.39 8.47461 8.21138C8.47461 4.76793 11.3884 1.85449 14.567 1.85449C17.7456 2.11937 20.6592 4.76793 20.6592 8.21138Z" fill="white"></path><path d="M22.5152 8.20973C22.5152 11.1234 20.1312 13.5074 17.2175 13.5074C14.3039 13.5074 11.9199 11.1234 11.9199 8.20973C11.9199 5.29604 14.3039 2.91211 17.2175 2.91211C20.1312 3.17699 22.5152 5.29604 22.5152 8.20973Z" fill="#4497B1"></path><path d="M30.1926 2.11914L29.9277 3.17873L30.4575 3.44355L30.1926 2.11914Z" fill="white"></path><path d="M30.1926 2.11914L30.4575 3.17873L29.9277 3.44355L30.1926 2.11914Z" fill="white"></path><path d="M31.5178 2.91211H30.1934V3.44207L31.5178 2.91211Z" fill="white"></path><path d="M31.517 2.91211L30.4575 3.70688L29.9277 3.17725L31.517 2.91211Z" fill="white"></path><path d="M29.1367 2.91211L29.9313 3.70688L30.4611 3.17725L29.1367 2.91211Z" fill="white"></path><path d="M29.1367 2.91211H30.1961V3.44207L29.1367 2.91211Z" fill="white"></path><path d="M30.9872 4.23798L30.4575 3.17871H29.9277L30.9872 4.23798Z" fill="white"></path><path d="M30.9872 4.23652L29.9277 3.44207L30.1926 2.91211L30.9872 4.23652Z" fill="white"></path><path d="M29.4023 4.23652L30.4619 3.44207L30.197 2.91211L29.4023 4.23652Z" fill="white"></path><path d="M29.4023 4.23798L29.9321 3.17871H30.4619L29.4023 4.23798Z" fill="white"></path><path d="M35.229 2.11914L34.6992 3.17873L35.4938 3.44355L35.229 2.11914Z" fill="white"></path><path d="M35.2259 2.11914L35.4907 3.17873L34.9609 3.44355L35.2259 2.11914Z" fill="white"></path><path d="M36.286 2.91211H35.2266V3.44207L36.286 2.91211Z" fill="white"></path><path d="M36.2853 2.91211L35.2259 3.70688L34.9609 3.17725L36.2853 2.91211Z" fill="white"></path><path d="M33.9023 2.91211L34.9618 3.70688L35.4916 3.17725L33.9023 2.91211Z" fill="white"></path><path d="M33.9023 2.91211H35.2267V3.44207L33.9023 2.91211Z" fill="white"></path><path d="M36.0205 4.23798L35.4907 3.17871H34.9609L36.0205 4.23798Z" fill="white"></path><path d="M36.0205 4.23652L34.9609 3.44207L35.2259 2.91211L36.0205 4.23652Z" fill="white"></path><path d="M34.4355 4.23652L35.495 3.44207L34.9652 2.91211L34.4355 4.23652Z" fill="white"></path><path d="M34.4355 4.23798L34.7004 3.17871H35.495L34.4355 4.23798Z" fill="white"></path><path d="M40.2621 2.11914L39.7324 3.17873L40.2621 3.44355V2.11914Z" fill="white"></path><path d="M40.2609 2.11914L40.5259 3.17873L39.9961 3.44355L40.2609 2.11914Z" fill="white"></path><path d="M41.3205 2.91211H39.9961V3.44207L41.3205 2.91211Z" fill="white"></path><path d="M41.3205 2.91211L40.2609 3.70688L39.9961 3.17725L41.3205 2.91211Z" fill="white"></path><path d="M38.9355 2.91211L39.9951 3.70688L40.26 3.17725L38.9355 2.91211Z" fill="white"></path><path d="M38.9355 2.91211H40.26V3.44207L38.9355 2.91211Z" fill="white"></path><path d="M40.7907 4.23798L40.5259 3.17871H39.9961L40.7907 4.23798Z" fill="white"></path><path d="M40.7907 4.23652L39.9961 3.44207L40.2609 2.91211L40.7907 4.23652Z" fill="white"></path><path d="M39.4629 4.23652L40.5225 3.44207L39.9927 2.91211L39.4629 4.23652Z" fill="white"></path><path d="M39.4629 4.23798L39.7279 3.17871H40.5225L39.4629 4.23798Z" fill="white"></path><path d="M25.1595 6.88574L24.8945 8.21015L25.4243 8.47529L25.1595 6.88574Z" fill="white"></path><path d="M25.1595 6.88574L25.6891 8.21015L24.8945 8.47529L25.1595 6.88574Z" fill="white"></path><path d="M26.4885 7.94629H25.1641V8.47625L26.4885 7.94629Z" fill="white"></path><path d="M26.4885 7.94629L25.4289 8.47625L25.1641 8.21111L26.4885 7.94629Z" fill="white"></path><path d="M24.1035 7.94629L25.1631 8.47625L25.4279 8.21111L24.1035 7.94629Z" fill="white"></path><path d="M24.1035 7.94629H25.1631V8.47625L24.1035 7.94629Z" fill="white"></path><path d="M25.9541 9.27069L25.6891 7.94629L24.8945 8.21111L25.9541 9.27069Z" fill="white"></path><path d="M25.9541 9.27069L24.8945 8.47625L25.4243 7.94629L25.9541 9.27069Z" fill="white"></path><path d="M24.3672 9.27069L25.4268 8.47625L25.162 7.94629L24.3672 9.27069Z" fill="white"></path><path d="M24.3672 9.27069L24.897 7.94629L25.4268 8.21111L24.3672 9.27069Z" fill="white"></path><path d="M30.1926 6.88574L29.9277 8.21015L30.4575 8.47529L30.1926 6.88574Z" fill="white"></path><path d="M30.1926 6.88574L30.4575 8.21015L29.9277 8.47529L30.1926 6.88574Z" fill="white"></path><path d="M31.5178 7.94629H30.1934V8.47625L31.5178 7.94629Z" fill="white"></path><path d="M31.517 7.94629L30.4575 8.47625L29.9277 8.21111L31.517 7.94629Z" fill="white"></path><path d="M29.1367 7.94629L29.9313 8.47625L30.4611 8.21111L29.1367 7.94629Z" fill="white"></path><path d="M29.1367 7.94629H30.1961V8.47625L29.1367 7.94629Z" fill="white"></path><path d="M30.9872 9.27069L30.4575 7.94629L29.9277 8.21111L30.9872 9.27069Z" fill="white"></path><path d="M30.9872 9.27069L29.9277 8.47625L30.1926 7.94629L30.9872 9.27069Z" fill="white"></path><path d="M29.4023 9.27069L30.4619 8.47625L30.197 7.94629L29.4023 9.27069Z" fill="white"></path><path d="M29.4023 9.27069L29.9321 7.94629L30.4619 8.21111L29.4023 9.27069Z" fill="white"></path><path d="M35.229 6.88574L34.6992 8.21015L35.4938 8.47529L35.229 6.88574Z" fill="white"></path><path d="M35.2259 6.88574L35.4907 8.21015L34.9609 8.47529L35.2259 6.88574Z" fill="white"></path><path d="M36.286 7.94629H35.2266V8.47625L36.286 7.94629Z" fill="white"></path><path d="M36.2853 7.94629L35.2259 8.47625L34.9609 8.21111L36.2853 7.94629Z" fill="white"></path><path d="M33.9023 7.94629L34.9618 8.47625L35.4916 8.21111L33.9023 7.94629Z" fill="white"></path><path d="M33.9023 7.94629H35.2267V8.47625L33.9023 7.94629Z" fill="white"></path><path d="M36.0205 9.27069L35.4907 7.94629L34.9609 8.21111L36.0205 9.27069Z" fill="white"></path><path d="M36.0205 9.27069L34.9609 8.47625L35.2259 7.94629L36.0205 9.27069Z" fill="white"></path><path d="M34.4355 9.27069L35.495 8.47625L34.9652 7.94629L34.4355 9.27069Z" fill="white"></path><path d="M34.4355 9.27069L34.7004 7.94629L35.495 8.21111L34.4355 9.27069Z" fill="white"></path><path d="M40.2621 6.88574L39.7324 8.21015L40.2621 8.47529V6.88574Z" fill="white"></path><path d="M40.2609 6.88574L40.5259 8.21015L39.9961 8.47529L40.2609 6.88574Z" fill="white"></path><path d="M41.3205 7.94629H39.9961V8.47625L41.3205 7.94629Z" fill="white"></path><path d="M41.3205 7.94629L40.2609 8.47625L39.9961 8.21111L41.3205 7.94629Z" fill="white"></path><path d="M38.9355 7.94629L39.9951 8.47625L40.26 8.21111L38.9355 7.94629Z" fill="white"></path><path d="M38.9355 7.94629H40.26V8.47625L38.9355 7.94629Z" fill="white"></path><path d="M40.7907 9.27069L40.5259 7.94629L39.9961 8.21111L40.7907 9.27069Z" fill="white"></path><path d="M40.7907 9.27069L39.9961 8.47625L40.2609 7.94629L40.7907 9.27069Z" fill="white"></path><path d="M39.4629 9.27069L40.5225 8.47625L39.9927 7.94629L39.4629 9.27069Z" fill="white"></path><path d="M39.4629 9.27069L39.7279 7.94629L40.5225 8.21111L39.4629 9.27069Z" fill="white"></path><path d="M20.132 11.9199L19.8672 13.2443H20.3968L20.132 11.9199Z" fill="white"></path><path d="M20.1309 11.9199L20.6607 13.2443H20.1309V11.9199Z" fill="white"></path><path d="M21.4553 12.7139H20.1309V13.5083L21.4553 12.7139Z" fill="white"></path><path d="M21.4553 12.7139L20.3957 13.5083L20.1309 12.9787L21.4553 12.7139Z" fill="white"></path><path d="M19.0684 12.7139L20.1279 13.5083L20.3928 12.9787L19.0684 12.7139Z" fill="white"></path><path d="M19.0684 12.7139H20.3928V13.5083L19.0684 12.7139Z" fill="white"></path><path d="M20.9266 14.3039L20.6618 12.9795L19.8672 13.2443L20.9266 14.3039Z" fill="white"></path><path d="M20.9266 14.3039L19.8672 13.5091L20.3968 12.9795L20.9266 14.3039Z" fill="white"></path><path d="M19.5977 14.3039L20.3923 13.5091L20.1275 12.9795L19.5977 14.3039Z" fill="white"></path><path d="M19.5977 14.3039L19.8626 12.9795L20.3923 13.2443L19.5977 14.3039Z" fill="white"></path><path d="M25.1595 11.9199L24.8945 13.2443H25.4243L25.1595 11.9199Z" fill="white"></path><path d="M25.1595 11.9199L25.6891 13.2443H24.8945L25.1595 11.9199Z" fill="white"></path><path d="M26.4885 12.7139H25.1641V13.5083L26.4885 12.7139Z" fill="white"></path><path d="M26.4885 12.7139L25.4289 13.5083L25.1641 12.9787L26.4885 12.7139Z" fill="white"></path><path d="M24.1035 12.7139L25.1631 13.5083L25.4279 12.9787L24.1035 12.7139Z" fill="white"></path><path d="M24.1035 12.7139H25.1631V13.5083L24.1035 12.7139Z" fill="white"></path><path d="M25.9541 14.3039L25.6891 12.9795L24.8945 13.2443L25.9541 14.3039Z" fill="white"></path><path d="M25.9541 14.3039L24.8945 13.5091L25.4243 12.9795L25.9541 14.3039Z" fill="white"></path><path d="M24.3672 14.3039L25.4268 13.5091L25.162 12.9795L24.3672 14.3039Z" fill="white"></path><path d="M24.3672 14.3039L24.897 12.9795L25.4268 13.2443L24.3672 14.3039Z" fill="white"></path><path d="M30.1926 11.9199L29.9277 13.2443H30.4575L30.1926 11.9199Z" fill="white"></path><path d="M30.1926 11.9199L30.4575 13.2443H29.9277L30.1926 11.9199Z" fill="white"></path><path d="M31.5178 12.7139H30.1934V13.5083L31.5178 12.7139Z" fill="white"></path><path d="M31.517 12.7139L30.4575 13.5083L29.9277 12.9787L31.517 12.7139Z" fill="white"></path><path d="M29.1367 12.7139L29.9313 13.5083L30.4611 12.9787L29.1367 12.7139Z" fill="white"></path><path d="M29.1367 12.7139H30.1961V13.5083L29.1367 12.7139Z" fill="white"></path><path d="M30.9872 14.3039L30.4575 12.9795L29.9277 13.2443L30.9872 14.3039Z" fill="white"></path><path d="M30.9872 14.3039L29.9277 13.5091L30.1926 12.9795L30.9872 14.3039Z" fill="white"></path><path d="M29.4023 14.3039L30.4619 13.5091L30.197 12.9795L29.4023 14.3039Z" fill="white"></path><path d="M29.4023 14.3039L29.9321 12.9795L30.4619 13.2443L29.4023 14.3039Z" fill="white"></path><path d="M35.229 11.9199L34.6992 13.2443H35.4938L35.229 11.9199Z" fill="white"></path><path d="M35.2259 11.9199L35.4907 13.2443H34.9609L35.2259 11.9199Z" fill="white"></path><path d="M36.286 12.7139H35.2266V13.5083L36.286 12.7139Z" fill="white"></path><path d="M36.2853 12.7139L35.2259 13.5083L34.9609 12.9787L36.2853 12.7139Z" fill="white"></path><path d="M33.9023 12.7139L34.9618 13.5083L35.4916 12.9787L33.9023 12.7139Z" fill="white"></path><path d="M33.9023 12.7139H35.2267V13.5083L33.9023 12.7139Z" fill="white"></path><path d="M36.0205 14.3039L35.4907 12.9795L34.9609 13.2443L36.0205 14.3039Z" fill="white"></path><path d="M36.0205 14.3039L34.9609 13.5091L35.2259 12.9795L36.0205 14.3039Z" fill="white"></path><path d="M34.4355 14.3039L35.495 13.5091L34.9652 12.9795L34.4355 14.3039Z" fill="white"></path><path d="M34.4355 14.3039L34.7004 12.9795L35.495 13.2443L34.4355 14.3039Z" fill="white"></path><path d="M40.2621 11.9199L39.7324 13.2443H40.2621V11.9199Z" fill="white"></path><path d="M40.2609 11.9199L40.5259 13.2443H39.9961L40.2609 11.9199Z" fill="white"></path><path d="M41.3205 12.7139H39.9961V13.5083L41.3205 12.7139Z" fill="white"></path><path d="M41.3205 12.7139L40.2609 13.5083L39.9961 12.9787L41.3205 12.7139Z" fill="white"></path><path d="M38.9355 12.7139L39.9951 13.5083L40.26 12.9787L38.9355 12.7139Z" fill="white"></path><path d="M38.9355 12.7139H40.26V13.5083L38.9355 12.7139Z" fill="white"></path><path d="M40.7907 14.3039L40.5259 12.9795L39.9961 13.2443L40.7907 14.3039Z" fill="white"></path><path d="M40.7907 14.3039L39.9961 13.5091L40.2609 12.9795L40.7907 14.3039Z" fill="white"></path><path d="M39.4629 14.3039L40.5225 13.5091L39.9927 12.9795L39.4629 14.3039Z" fill="white"></path><path d="M39.4629 14.3039L39.7279 12.9795L40.5225 13.2443L39.4629 14.3039Z" fill="white"></path></svg> 