<?xml version="1.0" encoding="UTF-8"?> <svg xmlns="http://www.w3.org/2000/svg" width="90" height="52" viewBox="0 0 90 52" fill="none"><path d="M20.9593 0H0V52H20.9593V0Z" fill="#EA0020"></path><path d="M89.1408 0H68.1816V52H89.1408V0Z" fill="#EA0020"></path><path d="M68.1835 0H20.959V52H68.1835V0Z" fill="white"></path><path d="M44.5705 6.63281L41.3868 12.7348C41.1215 13.2654 40.3256 13.2654 39.795 13.0001L37.6726 11.6735L39.2644 20.9593C39.5297 22.5511 38.4684 22.5512 37.9378 22.0206L33.9582 17.5103L33.4276 19.8981C33.4276 20.1634 33.1623 20.4288 32.6317 20.4288L27.591 19.3675L28.9175 24.4084C29.1828 25.4696 29.448 26.0001 28.6521 26.2654L26.7949 27.0614L35.2848 34.2246C35.5501 34.4899 35.8155 35.0205 35.5502 35.5511L34.7541 38.2042C37.6725 37.9389 40.3256 37.4084 43.244 37.1431C43.5093 37.1431 44.0398 37.4084 44.0398 37.6737L43.7746 46.9594H45.1011L44.8359 37.6737C44.8359 37.4084 45.1011 37.1431 45.3664 37.1431C48.2847 37.4084 50.9378 37.9389 53.8562 38.2042L53.0603 35.5511C53.0603 35.0205 53.0603 34.7552 53.3256 34.2246L61.8154 27.0614L59.9582 26.2654C59.1623 26.0001 59.4277 25.4696 59.693 24.4084L61.0195 19.3675L55.9786 20.4288C55.448 20.4288 55.1827 20.1634 55.1827 19.8981L54.6521 17.5103L50.6725 22.0206C50.1419 22.8165 49.0807 22.8164 49.346 20.9593L50.9379 11.6735L48.8155 13.0001C48.2849 13.2654 47.4889 13.5307 47.2236 12.7348L44.5705 6.63281Z" fill="#EA0020"></path></svg> 