<?xml version="1.0" encoding="UTF-8"?> <svg xmlns="http://www.w3.org/2000/svg" width="90" height="52" viewBox="0 0 90 52" fill="none"><path d="M89.1405 46.1641H0V52.0007H89.1405V46.1641Z" fill="#16007E"></path><path d="M89.1405 40.5908H0V46.4274H89.1405V40.5908Z" fill="white"></path><path d="M89.1405 34.7529H0V40.5895H89.1405V34.7529Z" fill="#16007E"></path><path d="M89.1405 28.918H0V34.7546H89.1405V28.918Z" fill="white"></path><path d="M89.1405 23.0811H0V28.9177H89.1405V23.0811Z" fill="#16007E"></path><path d="M89.1405 17.5088H0V23.3454H89.1405V17.5088Z" fill="white"></path><path d="M89.1405 11.6738H0V17.5104H89.1405V11.6738Z" fill="#16007E"></path><path d="M89.1405 5.83789H0V11.6745H89.1405V5.83789Z" fill="white"></path><path d="M89.1405 0H0V5.83645H89.1405V0Z" fill="#16007E"></path><path d="M28.9176 0H0V28.9175H28.9176V0Z" fill="#16007E"></path><path d="M28.9176 11.6738H0V17.5104H28.9176V11.6738Z" fill="white"></path><path d="M17.5124 0H11.6758V28.9175H17.5124V0Z" fill="white"></path></svg> 