<?xml version="1.0" encoding="UTF-8"?> <svg xmlns="http://www.w3.org/2000/svg" width="89" height="52" viewBox="0 0 89 52" fill="none"><path d="M89 0H0V52H89V0Z" fill="#BC0030"></path><path d="M58.9979 32.6119C58.9979 32.6119 58.7287 32.3427 58.4594 32.3427C58.1901 32.3427 57.9208 32.3427 57.9208 32.3427C57.6516 32.0734 57.3823 32.3426 57.1131 32.6119C56.8438 32.8811 56.8437 32.8811 56.0359 32.8811C54.9589 32.8811 54.6896 32.8811 54.6896 32.8811C54.6896 32.8811 54.9589 32.6119 55.2282 32.3427C55.7667 32.0734 55.7667 32.0733 56.0359 32.0733C56.3052 32.0733 56.5746 32.0734 56.8439 31.8041C57.1131 31.5348 57.1131 31.5347 57.6516 31.5347C57.9209 31.5347 57.6516 31.5347 57.9208 31.5347C57.9208 31.2655 57.3824 30.7271 56.8439 30.9963C56.5746 30.9963 56.3053 30.9963 56.3053 30.9963C56.036 30.7271 55.4974 31.2655 55.2282 31.5347C55.2282 31.804 54.6897 32.0733 54.1512 32.6119L53.6126 32.8811L52.5355 32.6119C51.4584 32.0733 50.6506 31.8041 50.6506 31.8041C50.6506 31.8041 50.6507 31.5347 50.92 31.5347C51.1892 31.2655 51.1892 31.2655 51.1892 31.2655C51.1892 31.2655 50.9199 30.9963 50.6506 30.9963C49.035 30.1885 47.958 29.1114 47.6888 28.0343C47.4195 27.2265 47.4194 26.9573 47.958 27.7651C48.2272 28.3036 48.4966 28.5728 49.0351 28.8421C49.5736 29.1113 49.8429 29.1114 49.8429 29.1114C50.1121 28.8422 50.1122 28.5729 49.5737 28.3037C49.0351 27.4959 48.7658 26.4188 49.3043 26.4188C49.5736 26.4188 49.5736 26.4187 49.8429 27.4957C50.3814 28.8421 50.92 29.6499 51.4585 29.9192C51.7278 30.1885 52.5355 29.9193 52.5355 29.65C52.5355 29.3807 52.5355 29.1113 51.9969 28.8421C51.1891 28.3035 50.9199 27.4958 50.6506 26.688C50.6506 26.4187 50.6506 26.4187 50.6506 26.1494C50.9199 25.8801 50.92 25.8802 51.4585 26.688C52.2663 28.0343 53.8818 29.6499 54.6896 30.1884C55.7667 30.7269 56.8438 30.7269 57.6516 30.1884C57.9209 29.9191 57.9208 29.9193 57.9208 29.65C57.9208 29.3807 57.6516 29.1114 57.1131 29.1114C56.036 29.1114 55.7667 29.1113 55.2282 28.8421C54.4204 28.3035 53.3434 27.4958 52.8049 25.8802C52.2663 24.5339 52.2662 24.534 53.3433 25.611C54.6896 27.2266 56.036 27.7651 57.1131 27.2265C57.6516 26.9573 58.1902 26.6879 58.1902 26.1494C58.1902 25.8801 57.9208 25.611 57.3823 25.611C57.113 25.611 56.5746 25.611 56.3053 25.611C55.7668 25.611 55.7667 25.6109 55.2282 25.3417C54.9589 25.3417 54.6897 24.8031 54.4204 24.8031C53.6126 24.2646 52.5355 22.649 52.5355 22.1104C52.5355 21.8412 52.8048 21.8412 53.6126 22.649C54.1512 23.1875 55.2282 23.9953 55.7667 23.9953C56.036 23.9953 56.3053 24.2647 56.8439 24.2647C57.3824 24.2647 57.6516 24.2646 57.9208 23.9953C58.4594 23.7261 58.4594 23.4568 58.4594 23.1876C58.4594 22.649 58.1901 22.3797 57.1131 22.649C55.7667 22.9183 54.9589 22.6491 53.8818 21.572C53.3433 21.0335 53.0741 20.4949 53.0741 20.4949C53.0741 20.2256 53.3433 20.4949 54.4204 21.0335C55.7667 21.572 56.036 21.8412 56.5745 21.8412C57.113 21.8412 57.3824 21.8413 57.6516 21.572C58.1902 21.0335 58.1901 20.7642 57.9208 20.4949C57.6516 20.2256 57.113 20.2256 56.5745 20.4949C56.3052 20.4949 56.036 20.7641 55.7667 20.7641C54.9589 20.7641 53.6126 20.4949 53.0741 19.6871C52.5355 19.1486 52.5355 18.8793 52.5355 18.61C52.5355 18.3407 52.8047 18.61 53.3433 18.61C54.1511 18.8793 54.6897 19.1486 55.4975 19.1486C56.3053 19.1486 56.8437 19.1485 57.3823 18.61C57.9208 18.3407 58.1902 18.0715 58.1902 17.8022C58.1902 17.8022 58.1901 17.5329 57.9208 17.2637C57.6516 16.9944 57.3824 16.9944 56.8439 17.2637C55.4975 18.0715 54.6897 18.0716 53.6126 17.533C53.3434 17.2638 52.5356 16.7252 52.2663 16.4559C52.2663 16.1867 52.2663 16.1867 52.2663 16.1867C52.2663 16.1867 52.5356 16.1867 53.6126 16.4559C54.1512 16.7252 54.4204 16.7251 54.959 16.7251C55.7668 16.7251 56.3053 16.7252 56.8439 16.4559C57.6517 16.1867 58.1902 15.3789 58.1902 14.8404C58.1902 14.5711 57.9208 14.3018 57.9208 14.3018C57.6516 14.3018 57.3823 14.3019 57.1131 14.8404C56.3053 15.6482 55.7667 15.9174 54.6896 15.9174C53.6125 15.9174 53.0741 15.6481 53.0741 15.3788C53.0741 15.1095 53.3433 14.8404 53.8818 14.8404C55.4974 14.5711 57.113 13.7633 57.9208 12.9555C58.4594 12.417 58.7286 12.1477 58.7286 11.6092C58.7286 11.0706 58.4595 10.8014 58.1902 10.8014C57.9209 10.8014 57.6515 10.8013 57.3823 11.3398C56.8437 12.1476 56.3052 12.6862 55.2282 13.2247C54.6896 13.494 53.6125 14.0325 53.3433 13.7633L53.0741 13.4941C52.8048 12.9555 52.8048 12.9554 52.2663 13.2247C51.997 13.494 51.1891 13.7633 50.6506 13.7633C49.5736 14.0325 49.3044 14.3019 49.0351 14.8404C49.0351 15.1097 48.7659 15.1096 48.7659 15.9174C48.7659 16.7252 48.7658 16.7252 48.4965 16.9945C48.2273 17.2637 48.2273 17.2637 47.6888 17.2637C47.1502 17.2637 46.6116 16.9945 46.6116 16.1867C46.6116 15.6482 46.6117 15.1096 46.881 14.571C47.1503 14.0325 47.4195 13.494 48.2273 13.2247C48.7659 12.9554 49.3044 12.6861 50.1122 12.6861C50.92 12.6861 51.7277 12.4169 51.7277 11.8784C50.92 12.1476 50.1122 11.8784 50.3814 11.6092C50.3814 11.6092 51.7277 11.6092 51.9969 11.6092C52.5355 11.6092 52.8048 11.3399 53.0741 11.0706C53.3433 10.8013 53.6126 10.532 53.6126 10.532C53.6126 10.2628 53.3433 10.2628 53.0741 10.532C53.0741 10.532 52.8049 10.8013 52.8049 11.0706C52.5356 11.3399 52.5355 11.3398 51.9969 11.3398C51.4584 11.3398 51.4584 11.3398 51.1892 11.3398L50.92 11.0706C50.92 11.0706 51.1893 10.8014 51.4585 10.8014C51.7278 10.8014 51.997 10.8013 52.2663 11.0706C52.2663 10.8013 52.2662 10.8013 51.9969 10.532C51.7277 10.2628 51.4585 9.99348 50.92 9.99348C50.3815 9.99348 50.3815 9.99354 50.1122 9.72428L49.8429 9.45508H49.5737C49.0351 9.45508 48.4966 9.72421 47.6888 9.99348C47.4195 10.2627 47.1503 10.2628 46.881 10.2628C46.6117 10.2628 46.3425 10.2628 46.0732 10.2628C45.5347 9.99358 45.5347 9.99358 45.5347 10.2628C45.5347 10.2628 46.0732 10.8013 46.3424 11.0706C46.6117 11.0706 46.6116 11.3398 46.6116 11.3398C46.6116 11.6091 46.0731 11.8784 45.8039 11.8784C45.5346 11.8784 45.5346 12.1477 45.8039 12.4169C46.0731 12.4169 46.0732 12.6861 46.0732 12.6861C46.0732 12.9554 45.5346 13.2247 44.9961 13.2247C44.7268 13.2247 44.7268 13.4941 45.2653 13.4941C45.5346 13.4941 45.5346 13.494 45.2653 13.7633C44.996 14.0325 44.7269 14.0325 44.7269 14.0325C44.4576 14.0325 44.4575 14.0326 44.4575 14.3018C44.4575 14.5711 44.4575 14.571 44.4575 14.571C44.4575 14.571 44.4576 14.571 44.1883 14.571H43.919C43.919 14.571 43.919 14.5711 43.919 14.3018C44.1882 14.0326 43.919 14.0325 43.6498 14.0325C43.3805 14.0325 43.1112 14.0325 43.1112 13.7633C42.842 13.494 42.842 13.4941 43.1112 13.4941C43.6497 13.4941 43.6498 13.2247 43.3806 13.2247C43.1113 13.2247 42.3035 12.6861 42.3035 12.6861C42.3035 12.6861 42.3034 12.4169 42.5727 12.4169C42.8419 12.1477 42.8419 12.1476 42.5727 11.8784C42.3034 11.8784 41.7649 11.3398 41.7649 11.3398C41.7649 11.3398 41.765 11.0706 42.0343 11.0706C42.3035 10.8013 42.842 10.5321 42.842 10.2628C42.842 10.2628 42.842 10.2628 42.3035 10.2628C42.0342 10.2628 41.765 10.2628 41.4957 10.2628C41.2264 10.2628 40.9572 10.2627 40.6879 9.99348C39.8801 9.72421 39.3416 9.45508 38.803 9.45508C38.5338 9.45508 38.5337 9.45508 38.5337 9.45508L38.2645 9.72428C38.2645 9.72428 37.9952 9.72421 37.4567 9.99348C36.6489 9.99348 36.3796 10.2628 36.3796 10.532C36.3796 10.8013 36.3796 10.8013 36.1104 11.0706C36.3796 11.0706 36.9181 10.8014 36.9181 10.8014C37.1874 10.8014 37.4567 11.0706 37.4567 11.0706C37.4567 11.0706 37.4566 11.0705 37.1873 11.3398C36.9181 11.3398 36.9181 11.3398 36.3796 11.3398C35.841 11.3398 35.5718 11.3399 35.5718 11.0706C35.5718 10.8013 35.3026 10.8013 35.3026 10.532C35.0333 10.2628 34.7641 10.2628 34.7641 10.532C34.7641 10.8013 35.0333 11.0706 35.3026 11.0706C35.5719 11.3399 35.841 11.3399 36.3796 11.6092C36.6488 11.6092 37.9953 11.6092 37.9953 11.6092C37.9953 11.6092 37.1875 11.8784 36.6489 11.8784C36.9182 12.1476 37.4567 12.4169 38.2645 12.6861C39.0723 12.6861 39.6108 12.9554 40.1494 13.2247C40.6879 13.7632 41.2264 14.0325 41.4957 14.571C41.765 15.1096 41.7649 15.6482 41.7649 16.1867C41.7649 16.9945 41.4957 17.2637 40.6879 17.2637C40.1494 17.2637 40.1493 17.2637 39.88 16.9945C39.6107 16.7252 39.6108 16.7252 39.6108 15.9174C39.6108 15.1096 39.6109 15.1097 39.3416 14.8404C39.0723 14.3019 38.803 14.0325 37.7259 13.7633C37.1874 13.494 36.6489 13.2247 36.1104 13.2247C35.5718 12.9554 35.3026 12.9555 35.3026 13.4941C35.3026 13.7633 35.0333 13.7633 35.0333 13.7633C34.764 13.7633 33.6869 13.494 33.1484 13.2247C32.0713 12.6862 31.5328 12.1476 30.9943 11.3398C30.725 10.8013 30.4558 10.5321 30.1865 10.8014C29.9172 10.8014 29.6479 11.3399 29.6479 11.6092C29.6479 12.1477 29.9172 12.417 30.4557 12.9555C31.2635 13.7633 33.1484 14.5711 34.4947 14.8404C35.0332 14.8404 35.3026 15.1095 35.3026 15.3788C35.3026 15.9173 34.764 15.9174 33.6869 15.9174C32.6099 15.9174 31.8022 15.6482 31.2636 14.8404C30.7251 14.3019 30.725 14.3018 30.4557 14.3018C30.1864 14.3018 30.1865 14.5711 30.1865 14.8404C30.1865 15.3789 30.9943 16.1867 31.5328 16.4559C32.0714 16.7252 32.6099 16.7251 33.4177 16.7251C33.9563 16.7251 34.2255 16.7252 34.7641 16.4559C35.8411 16.1867 35.8411 16.1867 36.1104 16.1867C36.1104 16.1867 36.1104 16.1867 36.1104 16.4559C35.8411 16.7252 35.3026 17.533 34.7641 17.533C33.9563 18.0716 32.8792 17.8022 31.5328 17.2637C30.9943 16.9944 30.4557 16.9944 30.4557 17.2637C30.4557 17.2637 30.1865 17.533 30.1865 17.8022C30.1865 18.0715 30.4557 18.3407 30.9943 18.61C31.5328 18.8793 32.0714 19.1486 32.8792 19.1486C33.687 19.1486 33.9562 19.1485 35.0333 18.61C35.5718 18.3407 35.5717 18.3407 35.841 18.61C35.841 18.8793 35.8411 19.1486 35.3026 19.6871C34.7641 20.2257 33.4178 20.7641 32.61 20.7641C32.3407 20.7641 32.0713 20.7642 31.802 20.4949C31.2635 20.2256 30.725 20.2256 30.4557 20.4949C30.1864 20.7642 30.1865 21.3028 30.7251 21.572C30.9943 21.8413 31.2635 21.8412 31.802 21.8412C32.3406 21.8412 32.8792 21.8413 33.9563 21.0335C35.0333 20.4949 35.3025 20.4949 35.5718 20.4949C35.5718 20.7642 35.3026 21.0335 34.7641 21.572C33.4177 22.9184 32.8792 23.1875 31.5328 22.649C30.4558 22.3797 30.1865 22.649 30.1865 23.1876C30.1865 23.7261 30.4558 23.7261 30.7251 23.9953C30.9943 24.2646 31.2635 24.2647 31.802 24.2647C32.3406 24.2647 32.6099 24.2646 32.8792 23.9953C33.4177 23.7261 34.4947 23.1875 35.0333 22.649C35.841 22.1105 36.1104 21.8412 36.1104 22.1104C36.1104 22.3797 35.0333 23.9953 34.2255 24.8031C33.9562 25.0724 33.687 25.3417 33.4177 25.3417C32.8792 25.6109 32.8791 25.611 32.3406 25.611C32.0713 25.611 31.5329 25.611 31.2636 25.611C30.7251 25.611 30.4557 25.6109 30.4557 26.1494C30.4557 26.4187 30.9943 26.9573 31.5328 27.2265C32.6099 27.4958 33.687 26.9573 35.3026 25.611C36.3797 24.534 36.6488 24.5339 35.841 25.8802C35.0332 27.2265 34.2255 28.3035 33.4177 28.8421C32.8792 29.1113 32.8792 29.1114 31.5328 29.1114C30.9943 29.1114 30.7251 29.1115 30.7251 29.65C30.7251 29.9193 30.725 29.9191 30.9943 30.1884C31.8021 30.9962 32.8792 30.9962 33.9563 30.1884C34.4948 29.9191 36.1103 28.0343 37.1873 26.688C37.7259 25.8802 37.726 25.8801 37.9953 26.1494C37.9953 26.4187 37.9953 26.4187 37.9953 26.688C37.726 27.765 37.4567 28.5728 36.6489 28.8421C36.1104 29.1113 36.1104 29.3807 36.1104 29.65C36.1104 29.9193 36.9181 30.1885 37.1873 29.9192C37.7259 29.6499 38.2645 28.8421 38.803 27.4957C39.3416 26.4187 39.3416 26.4188 39.3416 26.4188C39.8801 26.4188 39.6108 27.4959 39.0722 28.3037C38.803 28.5729 38.803 28.8422 38.803 29.1114C39.0723 29.3807 39.3415 29.1113 39.6108 28.8421C40.1493 28.5728 40.1494 28.3036 40.6879 27.7651C40.9572 26.9573 41.2264 27.2265 40.9571 28.0343C40.4186 29.1114 39.3416 30.1885 37.9953 30.9963C37.726 30.9963 37.4567 31.2655 37.4567 31.2655L37.7259 31.5347C37.9952 31.804 37.9953 31.8041 37.9953 31.8041C37.9953 31.8041 37.1874 32.3426 36.1104 32.6119L35.0333 32.8811L34.4947 32.6119C33.6869 32.0733 33.4177 31.804 33.4177 31.5347C33.1485 30.9962 32.6099 30.7271 32.3406 30.9963C32.3406 30.9963 32.0713 30.9963 31.802 30.9963C31.2635 30.7271 30.7251 31.2655 30.7251 31.5347C30.9943 31.5347 30.725 31.5347 30.9943 31.5347C31.5328 31.5347 31.5328 31.5348 31.802 31.8041C32.0713 32.0734 32.3407 32.3426 32.61 32.0733C32.8792 32.0733 32.8792 32.0734 33.4177 32.3427C33.687 32.6119 33.9563 32.6118 33.9563 32.8811C33.9563 32.8811 33.687 32.8811 32.61 32.8811C31.8022 32.8811 31.8021 32.8811 31.5328 32.6119C31.2636 32.3426 30.9943 32.3427 30.7251 32.3427C30.7251 32.3427 30.4558 32.3427 30.1865 32.3427C29.9172 32.3427 29.9172 32.3426 29.6479 32.6119C29.3787 32.8811 29.3786 32.8812 29.1094 33.1504C29.3786 33.1504 29.3787 33.1504 29.6479 33.1504C30.1865 33.1504 30.1865 33.1504 30.1865 33.1504L30.4557 33.4196C30.725 33.4196 30.9944 33.4196 31.2636 33.4196C31.5329 33.4196 31.8021 33.4196 32.3406 33.4196C32.8791 33.4196 33.4177 33.4196 33.4177 33.4196C33.4177 33.4196 33.1484 33.689 32.8792 33.689C32.3406 33.9582 32.3406 33.9582 31.802 33.9582C31.2635 33.9582 30.9943 34.2275 30.7251 34.4967C30.7251 34.4967 30.7251 34.766 30.7251 35.0353C30.7251 35.3046 30.7251 35.5737 30.7251 36.1123C30.9943 35.5737 30.9943 35.5737 30.9943 35.5737C31.2635 35.3044 31.2636 35.3045 31.5328 35.3045C32.0714 35.3045 32.3406 35.0352 32.3406 34.7659C32.3406 34.4967 32.6098 34.4967 33.1484 33.9582C33.9562 33.4197 33.9563 33.4197 34.7641 33.9582C35.3026 34.2274 35.3025 34.2275 35.5718 34.4967C35.8411 34.766 36.1103 34.7659 36.3796 34.7659C36.6488 34.7659 36.9181 34.766 37.1873 35.0353C37.1873 35.0353 37.1874 35.0352 37.4567 35.3045C37.4567 35.0352 37.4567 35.0353 37.4567 35.0353C37.4567 34.766 37.4566 34.7659 37.1873 34.2274C36.6488 33.6889 36.6489 33.689 36.1104 33.689C35.8411 33.689 35.8411 33.689 35.5718 33.689C35.0333 33.4197 35.0333 33.4196 35.3026 33.4196C35.3026 33.4196 36.1104 33.1503 36.6489 32.8811L37.9953 32.3427L38.2645 32.6119C38.5337 32.8811 39.3415 33.1504 39.6108 33.1504C39.8801 33.1504 39.88 33.1503 39.88 32.8811C39.88 32.6118 40.6878 30.9963 41.2263 30.4578C42.0341 29.3807 42.3034 29.1114 42.5727 29.3806C42.5727 29.3806 42.5727 29.6499 42.5727 29.9192C42.5727 31.2655 41.7649 32.8812 40.9571 33.689C40.4186 34.2275 39.8801 34.4967 39.3416 34.4967C38.8031 34.4967 38.5337 34.7659 38.5337 34.7659C38.5337 34.7659 38.803 35.3045 39.0722 35.3045C39.3415 35.3045 39.3415 35.3045 39.88 35.3045C40.4185 35.3045 40.4186 35.3046 40.9571 35.0353C41.4957 34.766 41.4957 34.7659 41.4957 34.7659V35.0353C41.2264 35.5738 40.9572 35.8431 40.1494 35.8431C39.3416 35.8431 39.0723 36.1123 39.3416 36.6508C39.6109 36.9201 39.88 37.1894 40.4186 37.1894C40.9571 37.1894 41.4957 36.9202 42.0343 36.3816C42.3035 36.1124 42.5727 35.843 42.5727 36.1123C42.5727 36.1123 42.5727 36.6508 42.5727 36.92C42.5727 37.1893 42.0342 37.728 41.7649 37.728C41.7649 37.728 41.4956 37.7279 41.2263 37.9972C40.4185 38.2664 40.4186 38.5357 40.9571 38.8049C41.2264 39.0742 41.7649 39.0742 42.3035 38.8049C42.5727 38.8049 43.3806 37.9972 43.3806 37.728C43.3806 37.4587 43.6498 37.7279 43.6498 37.9972C43.6498 38.2664 43.3805 38.5358 43.1112 39.0743C42.842 39.3436 42.842 40.1513 43.3806 40.6898C43.6498 41.2284 43.9191 41.4976 44.1883 41.4976C44.4576 41.4976 44.7268 40.9591 44.9961 40.6898C45.5346 39.882 45.5346 39.3436 45.2653 39.0743C44.996 38.5358 44.7269 38.2664 44.7269 37.9972C44.7269 37.7279 44.7268 37.4587 44.9961 37.728C45.2654 37.9972 45.804 38.8049 46.0732 38.8049C46.6118 39.0742 47.1503 39.0742 47.4196 38.8049C47.9581 38.5357 47.958 38.2664 47.1502 37.9972C46.8809 37.9972 46.6116 37.728 46.6116 37.728C46.3424 37.728 45.8039 37.1893 45.8039 36.92C45.8039 36.6508 45.8039 36.1123 45.8039 36.1123C45.8039 36.1123 46.0732 36.3816 46.3424 36.3816C46.881 36.9202 47.4194 37.1894 47.958 37.1894C48.4965 37.1894 48.7658 36.9201 49.0351 36.6508C49.3044 36.1123 49.0351 35.8431 48.2273 35.8431C47.4195 35.8431 46.881 35.5738 46.881 35.0353C46.881 34.766 46.881 34.7659 46.881 34.7659C46.881 34.7659 47.1503 34.766 47.4196 35.0353C47.9581 35.3046 47.958 35.3045 48.4965 35.3045C48.7658 35.3045 49.035 35.3045 49.3043 35.3045C49.5736 35.3045 49.8429 34.7659 49.8429 34.7659C49.8429 34.4967 49.5736 34.4967 49.0351 34.4967C48.4966 34.4967 47.9581 34.2275 47.4196 33.689C46.6118 32.8812 45.8039 31.2655 45.8039 29.9192C45.8039 29.3807 45.8039 29.3806 45.8039 29.3806C46.0731 29.1114 46.6117 29.3807 47.1502 30.4578C47.6887 30.9963 48.2273 32.6118 48.4965 32.8811C48.4965 33.1503 48.4966 33.1504 48.7659 33.1504C49.0352 33.1504 49.5736 32.8811 49.8429 32.6119L50.1122 32.3427L51.4585 32.8811C52.2663 33.1503 52.8049 33.4196 52.8049 33.4196C53.0741 33.4196 52.8048 33.689 52.5355 33.689C52.2662 33.9582 51.9969 33.9582 51.9969 33.689C51.7277 33.689 51.4585 33.6889 50.92 34.2274C50.6507 34.4966 50.6506 34.766 50.6506 35.0353C50.6506 35.3046 50.6506 35.3045 50.6506 35.3045C50.9199 35.3045 50.92 35.3046 50.92 35.0353C51.1892 34.766 51.1893 34.7659 51.4585 34.7659C51.7278 34.7659 51.997 34.766 52.2663 34.4967C52.2663 34.2275 52.5355 34.2274 53.0741 33.9582C54.1511 33.4197 53.8818 33.4197 54.6896 33.9582C55.2281 34.2274 55.4975 34.4967 55.4975 34.7659C55.7668 35.0352 55.7668 35.3045 56.3053 35.3045C56.5746 35.3045 56.5746 35.3044 56.8439 35.5737C56.8439 35.5737 56.8438 35.5737 57.1131 36.1123C57.3823 35.5737 57.3823 35.5738 57.1131 35.0353C57.1131 34.766 57.1131 34.766 57.1131 34.4967C57.1131 34.2275 56.5745 33.9582 56.0359 33.9582C55.4974 33.9582 55.4975 33.9582 54.959 33.689C54.6897 33.4197 54.4204 33.4196 54.4204 33.4196C54.4204 33.4196 54.959 33.4196 55.4975 33.4196C56.3053 33.4196 56.5745 33.4196 56.5745 33.4196C56.8438 33.4196 57.3823 33.4196 57.3823 33.4196L57.6516 33.1504C57.9209 33.1504 57.9209 32.8812 58.1902 33.1504C58.4595 33.1504 58.4593 33.1504 58.7286 33.1504C59.2671 32.8812 58.9979 32.8811 58.9979 32.6119ZM49.3043 10.532C49.5736 10.532 49.3044 10.2628 49.5737 10.2628H49.8429C50.1121 10.2628 50.1122 10.5321 50.1122 10.8014C49.843 11.0707 49.3044 11.0707 49.0351 10.8014C48.7658 10.2629 49.035 10.8013 49.3043 10.532ZM39.88 10.8014C39.6107 10.8014 39.0723 10.8014 38.803 10.8014C38.5338 10.8014 38.803 10.5321 39.0722 10.2628C39.3415 10.2628 39.3416 10.2628 39.3416 10.2628C39.6109 10.2628 39.3415 10.532 39.6108 10.532C39.6108 10.8013 40.1493 10.2629 39.88 10.8014Z" fill="black"></path></svg> 