<?xml version="1.0" encoding="UTF-8"?> <svg xmlns="http://www.w3.org/2000/svg" width="89" height="53" viewBox="0 0 89 53" fill="none"><path d="M89 0.262695H0V34.9622H89V0.262695Z" fill="#BA0019"></path><path d="M89 34.6982H0V51.9155H89V34.6982Z" fill="#3E9A13"></path><path d="M11.3899 0.262695H0V52.1795H11.3899V0.262695Z" fill="white"></path><path d="M1.32617 51.122H1.8558V49.7976H1.32617V51.122ZM5.29939 51.122H5.82902V49.7976H5.29939V51.122ZM9.53742 51.122H10.0672V49.7976H9.53742V51.122ZM3.44519 47.1488H3.97498V46.0894H3.44519V47.1488ZM7.41841 47.1488H7.9482V46.0894H7.41841V47.1488ZM1.32617 44.2352H1.8558V42.9108H1.32617V44.2352ZM5.29939 44.2352H5.82902V42.9108H5.29939V44.2352ZM9.53742 44.2352H10.0672V42.9108H9.53742V44.2352ZM2.3856 46.0894H2.91539V44.765H3.44519V43.7054H3.97498V44.765H4.50462V46.0894H5.03441V47.1488H4.50462V48.4732H3.97498V49.7976H3.44519V48.4732H2.91539V47.1488H2.3856V46.0894ZM6.35882 46.0894H6.88861V44.765H7.41841V43.7054H7.9482V44.765H8.47783V46.0894H9.00763V47.1488H8.47783V48.4732H7.9482V49.7976H7.41841V48.4732H6.88861V47.1488H6.35882V46.0894ZM7.41841 41.3214V42.381H6.88861V43.7054H6.35882V44.765H5.82902V46.0894H5.29939V44.765H4.76959V43.7054H4.2398V42.381H3.71001V41.3214H3.18021V42.381H2.91539V43.7054H2.3856V44.765H1.8558V46.0894H1.32617V47.1488H1.8558V48.4732H2.3856V49.7976H2.91539V50.8572H3.44519V51.9166H3.97498V50.8572H4.50462V49.7976H5.03441V48.4732H5.56421V47.1488H6.094V48.4732H6.6238V49.7976H7.15343V50.8572H7.68322V51.9166H8.21302V50.8572H8.74281V49.7976H9.27261V48.4732H9.80224V47.1488H10.332V46.0894H9.80224V44.765H9.27261V43.7054H8.74281V42.381H8.21302V41.3214H7.41841ZM8.74281 39.997L9.00763 39.4674H9.27261V39.997H9.53742V40.5268H9.27261V41.0566H9.00763V40.5268H8.74281V39.997ZM8.74281 38.4078V39.2024H8.47783V39.997H8.21302V41.0566H8.47783V41.8512H8.74281V42.6458H9.53742V41.8512H9.80224V41.0566H10.0672V39.997H9.80224V39.2024H9.53742V38.4078H8.74281ZM1.8558 39.997L2.12078 39.4674H2.3856V39.997H2.65058V40.5268H2.3856V41.0566H2.12078V40.5268H1.8558V39.997ZM1.8558 38.4078V39.2024H1.59099V39.997H1.32617V41.0566H1.59099V41.8512H1.8558V42.6458H2.65058V41.8512H2.91539V41.0566H3.18021V39.997H2.91539V39.2024H2.65058V38.4078H1.8558ZM4.50462 39.997L4.76959 39.4674H5.03441V39.997H5.29939V40.5268H5.03441V41.0566H4.76959V40.5268H4.50462V39.997ZM5.82902 39.997L6.094 39.4674H6.35882V39.997H6.6238V40.5268H6.35882V41.0566H6.094V40.5268H5.82902V39.997ZM5.82902 38.4078V39.2024H5.29939V38.4078H4.50462V39.2024H4.2398V39.997H3.97498V41.0566H4.2398V41.8512H4.50462V42.6458H5.29939V41.8512H5.82902V42.6458H6.6238V41.8512H6.88861V41.0566H7.15343V39.997H6.88861V39.2024H6.6238V38.4078H5.82902ZM1.32617 37.878H1.8558V36.5536H1.32617V37.878ZM5.29939 37.878H5.82902V36.5536H5.29939V37.878ZM9.53742 37.878H10.0672V36.5536H9.53742V37.878ZM1.32617 32.0506H1.8558V30.9911H1.32617V32.0506ZM9.53742 32.0506H10.0672V30.9911H9.53742V32.0506ZM5.29939 28.6071H5.82902V27.5477H5.29939V28.6071ZM1.32617 25.4285V26.2233V27.0179H1.8558V26.2233V25.4285H1.32617ZM4.2398 25.4285V26.2233V27.0179H4.76959V26.2233V25.4285H4.2398ZM6.6238 25.4285V26.2233V27.0179H7.15343V26.2233V25.4285H6.6238ZM9.53742 25.4285V26.2233V27.0179H10.0672V26.2233V25.4285H9.53742ZM6.094 24.6339V25.1637H5.82902V25.4285H5.29939V25.1637H5.03441V24.6339H4.50462V25.4285H4.76959V25.6935H5.03441V26.2233V26.7529H4.76959V27.0179H4.50462V27.8125H5.03441V27.2827H5.29939V27.0179H5.82902V27.2827H6.094V27.8125H6.6238V27.0179H6.35882V26.7529H6.094V26.2233V25.6935H6.35882V25.1637H6.6238V24.3691H6.094V24.6339ZM5.29939 24.8989H5.82902V23.8393H5.29939V24.8989ZM1.32617 21.1905H1.8558V20.1309H1.32617V21.1905ZM9.53742 21.1905H10.0672V20.1309H9.53742V21.1905ZM1.32617 15.6281H1.8558V14.3036H1.32617V15.6281ZM5.29939 15.6281H5.82902V14.3036H5.29939V15.6281ZM9.53742 15.6281H10.0672V14.3036H9.53742V15.6281ZM3.44519 26.2233V25.6935H3.97498V24.8989H4.50462V23.8393H5.29939V22.7797H5.56421V22.2501H5.82902H6.094V22.7797H6.35882V23.8393H7.15343V24.3691V24.8989H7.68322V25.6935H8.21302V26.2233V26.7529H7.68322V27.5477H7.15343V28.0773V28.6071H6.35882V29.6667H6.094V30.1965H5.56421H5.29939V29.6667H5.03441V28.6071H4.2398V27.5477H3.71001V26.7529H3.18021V26.2233H3.44519ZM7.41841 12.9792V14.3036H6.88861V15.3631H6.35882V16.6875H5.82902V17.7471V18.0119H5.29939V16.9525H4.76959V15.6281H4.2398V14.5685H3.71001V13.2441H3.18021V14.5685H2.91539V15.6281H2.3856V16.9525H1.8558V18.0119V18.2769H1.32617V19.6013H1.8558V20.9257H2.3856V21.9851H2.91539V23.0447H3.44519V21.9851H3.97498V20.9257H4.50462V19.6013H3.97498V18.2769H4.50462V18.5417V19.3363H5.03441V21.1905H5.29939V22.2501H4.50462V23.3095H3.97498V24.1041H3.44519V25.4285H2.91539V24.1041H2.3856V22.5149H1.8558V21.7203H1.32617V23.8393H1.8558V24.8989H2.3856V25.6935H2.91539V26.2233V26.7529H2.3856V27.5477H1.8558V28.6071H1.32617V30.7261H1.8558V29.9315H2.3856V29.1369H2.91539V27.8125H3.44519V28.8721H3.97498V29.6667H4.50462V30.7261H5.29939V31.7857H5.03441V33.6399H4.50462V34.4345V34.6994H3.97498V33.375H4.50462V32.3155H3.97498V31.2559H3.44519V29.9315H2.91539V31.2559H2.3856V32.3155H1.8558V33.375H1.32617V34.6994H1.8558V34.9643V36.0238H2.3856V37.3482H2.91539V38.6726H3.44519V39.7322H3.97498V38.6726H4.50462V37.3482H5.03441V35.759H5.56421V34.6994H6.094V34.9643V36.0238H6.6238V37.3482H7.15343V38.6726H7.68322V39.7322H8.21302V38.6726H8.74281V37.3482H9.27261V35.759H9.80224V34.6994H10.332V33.375H9.80224V32.3155H9.27261V31.2559H8.74281V29.9315H8.21302V31.2559H7.68322V32.3155H7.15343V33.375H7.68322V34.6994V34.9643H7.15343V34.6994V33.9048H6.6238V32.0506H6.35882V30.9911H6.6238H6.88861H7.15343H7.41841V29.9315H7.9482V29.1369H8.47783V27.8125H9.00763V28.8721H9.53742V29.6667H10.0672V30.4613H10.597V28.3423H10.0672V27.2827H9.53742V26.4881H9.00763V25.9583V25.4285H9.53742V24.6339H10.0672V23.5745H10.597V21.4553H10.0672V22.2501H9.53742V23.0447H9.00763V24.3691H8.47783V23.0447H7.9482V22.5149H7.41841V21.4553H7.15343H6.88861H6.6238H6.35882V20.3959H6.6238V18.5417H7.15343V17.7471V17.4821H7.68322V17.7471V19.0715H7.15343V20.3959H7.68322V21.4553H8.21302V22.5149H8.74281V21.4553H9.27261V20.3959H9.80224V19.0715H10.332V17.7471H9.80224V16.6875H9.27261V15.3631H8.74281V14.3036H8.21302V12.9792H7.41841ZM1.8558 11.6548L2.12078 11.125H2.3856V11.6548H2.65058V12.1845H2.3856V12.7143H2.12078V12.1845H1.8558V11.6548ZM1.8558 10.5952L1.59099 11.3899H1.32617V12.4494H1.59099V13.2441H1.8558V14.0387H2.65058V13.2441H2.91539V12.4494H3.18021V11.3899H2.91539V10.5952H2.65058V9.80063H1.8558V10.5952ZM4.50462 11.6548L4.76959 11.125H5.03441V11.6548H5.29939V12.1845H5.03441V12.7143H4.76959V12.1845H4.50462V11.6548ZM5.82902 11.6548L6.094 11.125H6.35882V11.6548H6.6238V12.1845H6.35882V12.7143H6.094V12.1845H5.82902V11.6548ZM4.50462 10.5952L4.2398 11.3899H3.97498V12.4494H4.2398V13.2441H4.50462V14.0387H5.29939V13.2441H5.82902V14.0387H6.6238V13.2441H6.88861V12.4494H7.15343V11.3899H6.88861V10.5952H6.6238V9.80063H5.82902V10.5952H5.29939V9.80063H4.50462V10.5952ZM8.74281 11.6548L9.00763 11.125H9.27261V11.6548H9.53742V12.1845H9.27261V12.7143H9.00763V12.1845H8.74281V11.6548ZM8.74281 10.0655V10.8601H8.47783V11.6548H8.21302V12.7143H8.47783V13.5089H8.74281V14.3036H9.53742V13.5089H9.80224V12.7143H10.0672V11.6548H9.80224V10.8601H9.53742V10.0655H8.74281ZM1.32617 9.53566H1.8558V8.21125H1.32617V9.53566ZM5.29939 9.53566H5.82902V8.21125H5.29939V9.53566ZM9.53742 9.53566H10.0672V8.21125H9.53742V9.53566ZM3.44519 6.09223H3.97498V4.76783H3.44519V6.09223ZM7.41841 6.09223H7.9482V4.76783H7.41841V6.09223ZM1.32617 2.64881H1.8558V1.32441H1.32617V2.64881ZM5.29939 2.64881H5.82902V1.32441H5.29939V2.64881ZM9.53742 2.64881H10.0672V1.32441H9.53742V2.64881ZM2.3856 5.03281H2.91539V3.97322H3.44519V2.64881H3.97498V3.97322H4.50462V5.03281H5.03441V6.35721H4.50462V7.41664H3.97498V8.74104H3.44519V7.41664H2.91539V6.35721H2.3856V5.03281ZM6.35882 5.03281H6.88861V3.97322H7.41841V2.64881H7.9482V3.97322H8.47783V5.03281H9.00763V6.35721H8.47783V7.41664H7.9482V8.74104H7.41841V7.41664H6.88861V6.35721H6.35882V5.03281ZM7.41841 0.264816V1.58922H6.88861V2.64881H6.35882V3.97322H5.82902V5.03281H5.29939V3.97322H4.76959V2.64881H4.2398V1.32441H3.71001V0H3.18021V1.32441H2.91539V2.38399H2.3856V3.7084H1.8558V4.76783H1.32617V6.09223H1.8558V7.15182H2.3856V8.47623H2.91539V9.80063H3.44519V10.8601H3.97498V9.80063H4.50462V8.47623H5.03441V7.15182H5.56421V6.09223H6.094V7.15182H6.6238V8.47623H7.15343V9.80063H7.68322V10.8601H8.21302V9.80063H8.74281V8.47623H9.27261V7.15182H9.80224V6.09223H10.332V4.76783H9.80224V3.7084H9.27261V2.38399H8.74281V1.32441H8.21302V0H7.41841V0.264816Z" fill="#BA0019"></path></svg> 