<?xml version="1.0" encoding="UTF-8"?> <svg xmlns="http://www.w3.org/2000/svg" id="Warstwa_1" data-name="Warstwa 1" viewBox="0 0 31 31"><defs><style>.cls-1{fill:#1d1d1b;}.cls-2{fill:none;stroke:#1d1d1b;stroke-miterlimit:10;stroke-width:0.75px;}</style></defs><path class="cls-1" d="M18.22,13.9a2.6,2.6,0,0,0-.34-.84,2.11,2.11,0,0,0-.57-.62,2.47,2.47,0,0,0-.74-.38,2.59,2.59,0,0,0-.84-.13,2.88,2.88,0,0,0-1.39.31,2.67,2.67,0,0,0-.95.81,3.5,3.5,0,0,0-.55,1.15,5.09,5.09,0,0,0,0,2.61A3.55,3.55,0,0,0,13.39,18a2.67,2.67,0,0,0,.95.81,2.88,2.88,0,0,0,1.39.31,2.39,2.39,0,0,0,1.81-.76,3,3,0,0,0,.53-.82,3.48,3.48,0,0,0,.26-1h.78a4.32,4.32,0,0,1-.36,1.35,3.29,3.29,0,0,1-.7,1,3,3,0,0,1-1,.65,3.38,3.38,0,0,1-1.3.23,3.85,3.85,0,0,1-1.68-.34,3.61,3.61,0,0,1-1.2-.94,4,4,0,0,1-.72-1.35,5.45,5.45,0,0,1,0-3.2,4,4,0,0,1,.72-1.35,3.61,3.61,0,0,1,1.2-.94,3.85,3.85,0,0,1,1.68-.34,4,4,0,0,1,1.13.17,3.05,3.05,0,0,1,1,.51,2.81,2.81,0,0,1,.75.82A2.75,2.75,0,0,1,19,13.9Z"></path><circle class="cls-2" cx="15.5" cy="15.5" r="14.87"></circle></svg> 