<?xml version="1.0" encoding="UTF-8"?> <!-- Generator: Adobe Illustrator 25.4.1, SVG Export Plug-In . SVG Version: 6.00 Build 0) --> <svg xmlns="http://www.w3.org/2000/svg" xmlns:xlink="http://www.w3.org/1999/xlink" version="1.1" id="Warstwa_1" x="0px" y="0px" viewBox="0 0 31 31" style="enable-background:new 0 0 31 31;" xml:space="preserve"> <style type="text/css"> .st0{fill:none;stroke:#1D1D1B;stroke-width:0.75;stroke-miterlimit:10;} .st1{fill:#1D1D1B;} </style> <circle class="st0" cx="15.5" cy="15.5" r="11.1"></circle> <polygon class="st1" points="11,19.5 11.5,20.3 12,21.2 11,21.2 10.1,21.2 10.6,20.3 "></polygon> <polygon class="st1" points="16,19.5 16.5,20.3 17,21.2 16,21.2 15.1,21.2 15.5,20.3 "></polygon> <polygon class="st1" points="18.4,19.5 18.9,20.3 19.4,21.2 18.4,21.2 17.5,21.2 17.9,20.3 "></polygon> <polygon class="st1" points="20.9,19.5 21.4,20.3 21.9,21.2 20.9,21.2 20,21.2 20.5,20.3 "></polygon> <polygon class="st1" points="13.4,17.4 13.9,18.2 14.3,19.1 13.4,19.1 12.5,19.1 12.9,18.2 "></polygon> <polygon class="st1" points="13.1,11 13.8,11.5 14.6,12.1 13.7,12.4 12.9,12.8 13,11.9 "></polygon> <polygon class="st1" points="20.9,17.4 21.4,18.2 21.9,19.1 20.9,19.1 20,19.1 20.5,18.2 "></polygon> <polygon class="st1" points="16,15.2 16.5,16 17,16.8 16,16.8 15.1,16.8 15.5,16 "></polygon> <polygon class="st1" points="20.9,15.2 21.4,16 21.9,16.8 20.9,16.8 20,16.8 20.5,16 "></polygon> <polygon class="st1" points="11.5,15.2 11.7,16.2 11.9,17.1 11,16.8 10.1,16.5 10.8,15.9 "></polygon> <polygon class="st1" points="18,13.1 18.8,13.5 19.6,14 18.8,14.5 18,15 18,14 "></polygon> <polygon class="st1" points="18.9,10.4 18.8,11.3 18.8,12.2 18,11.7 17.2,11.2 18,10.8 "></polygon> <polygon class="st1" points="21.1,13 21.4,13.9 21.7,14.8 20.8,14.6 19.8,14.4 20.5,13.7 "></polygon> </svg> 