<?xml version="1.0" encoding="UTF-8"?> <svg xmlns="http://www.w3.org/2000/svg" id="Warstwa_1" data-name="Warstwa 1" viewBox="0 0 31 31"><defs><style>.cls-1{fill:none;stroke:#1d1d1b;stroke-miterlimit:10;stroke-width:0.75px;}.cls-2{fill:#1d1d1b;}</style></defs><circle class="cls-1" cx="15.5" cy="15.5" r="14.87"></circle><path class="cls-2" d="M5.67,9.05h5.39a7.74,7.74,0,0,1,1.54.15,4,4,0,0,1,1.3.52,2.7,2.7,0,0,1,.9,1,2.93,2.93,0,0,1,.34,1.49,3,3,0,0,1-.16,1,2.84,2.84,0,0,1-1.15,1.51,2.56,2.56,0,0,1-.9.37v0a3,3,0,0,1,2,1,3.07,3.07,0,0,1,.74,2.09,5.16,5.16,0,0,1-.14,1.08,2.85,2.85,0,0,1-.6,1.19,3.48,3.48,0,0,1-1.37,1,6.19,6.19,0,0,1-2.46.4H5.67Zm1.21,5.59h4.18a4.27,4.27,0,0,0,1.26-.17,2.72,2.72,0,0,0,.9-.46,2.06,2.06,0,0,0,.53-.69,2,2,0,0,0,.18-.84c0-1.59-1-2.39-2.87-2.39H6.88Zm0,6.12h4.18a6.55,6.55,0,0,0,1.28-.12,2.81,2.81,0,0,0,1.07-.41,2.14,2.14,0,0,0,.73-.82,2.68,2.68,0,0,0,.27-1.27,2.12,2.12,0,0,0-.87-1.85,4.29,4.29,0,0,0-2.48-.62H6.88Z"></path><path class="cls-2" d="M20.12,18a1.08,1.08,0,0,0-.12-.52,1,1,0,0,0-.31-.37,1.21,1.21,0,0,0-.44-.22,2.26,2.26,0,0,0-.53-.06,2.18,2.18,0,0,0-.44,0,1.67,1.67,0,0,0-.41.16.82.82,0,0,0-.42.73.62.62,0,0,0,.11.37.88.88,0,0,0,.28.26,2,2,0,0,0,.36.17l.36.11.88.2A1.8,1.8,0,0,1,20,19a1.57,1.57,0,0,1,.49.28,1.27,1.27,0,0,1,.35.44,1.28,1.28,0,0,1,.14.61,1.34,1.34,0,0,1-.2.74,1.7,1.7,0,0,1-.5.5,2.28,2.28,0,0,1-.7.28,3.29,3.29,0,0,1-.76.09,2.38,2.38,0,0,1-1.53-.46,1.9,1.9,0,0,1-.67-1.44h.65a1.3,1.3,0,0,0,.49,1,1.77,1.77,0,0,0,1.09.34,2.12,2.12,0,0,0,.49-.06,1.44,1.44,0,0,0,.48-.17,1.12,1.12,0,0,0,.36-.32.75.75,0,0,0,.14-.47.72.72,0,0,0-.1-.4A.86.86,0,0,0,20,19.7a1.91,1.91,0,0,0-.38-.18,3.45,3.45,0,0,0-.43-.12l-.85-.19c-.21-.06-.41-.12-.59-.19a2.32,2.32,0,0,1-.47-.27,1.13,1.13,0,0,1-.32-.4,1.25,1.25,0,0,1-.11-.58,1.27,1.27,0,0,1,.18-.69,1.41,1.41,0,0,1,.47-.47,2,2,0,0,1,.65-.26,2.92,2.92,0,0,1,.71-.08,2.64,2.64,0,0,1,.76.1,1.78,1.78,0,0,1,.61.32,1.58,1.58,0,0,1,.42.54,1.81,1.81,0,0,1,.18.76Z"></path><path class="cls-2" d="M24.14,10.62h.55V13H27v.55H24.69v2.34h-.55V13.51H21.8V13h2.34Z"></path></svg> 