<?xml version="1.0" encoding="UTF-8"?> <svg xmlns="http://www.w3.org/2000/svg" width="75" height="92" viewBox="0 0 75 92" fill="none"><g clip-path="url(#clip0)"><path d="M43.9729 61.315C34.5862 65.0671 25.593 69.1163 17.7988 68.782C23.532 72.3112 30.2957 74.3544 37.509 74.3544C39.7012 74.3544 41.8745 74.1501 43.9729 73.7971C55.177 71.8468 64.7136 64.9371 70.1658 55.4269C61.4911 54.7582 52.554 57.9159 43.9729 61.315Z" fill="#009DCC"></path><path d="M43.9733 0.557238C41.8748 0.204321 39.7015 0 37.5094 0C16.8624 0 0 16.6986 0 37.1864C0 46.8266 3.72845 55.6309 9.85511 62.2435C21.6213 66.1813 32.713 61.9649 43.992 58.3057C52.6105 55.5009 61.3415 53.0119 70.5596 54.7579C73.4074 49.5199 75.0187 43.5389 75.0187 37.1864C75 18.8904 61.5663 3.60347 43.9733 0.557238Z" fill="#009DCC"></path><path d="M69.7354 38.6722V38.0406C69.7354 36.146 69.4169 34.5857 68.7986 33.4155C68.1616 32.2268 67.2435 31.3166 66.0444 30.7037C64.8828 30.1093 63.309 29.7749 61.323 29.7749C61.248 29.7563 61.1918 29.7563 61.0981 29.7563C58.5313 29.7563 56.5266 30.4622 55.0652 31.8553C53.6037 33.2484 52.873 35.0873 52.873 37.3162C52.873 38.9136 53.229 40.2881 53.9597 41.4398C54.6717 42.61 55.5898 43.4644 56.6952 44.0216C57.8006 44.5603 59.3182 44.8203 61.248 44.8203H61.3042C63.4963 44.8203 65.1826 44.5046 66.3629 43.873C67.5433 43.2415 68.555 42.2199 69.4169 40.7525L63.9085 40.251C63.5713 40.6782 63.2528 40.994 62.9343 41.1612C62.4471 41.4212 61.9225 41.5698 61.3604 41.5698C61.3417 41.5698 61.323 41.5698 61.2855 41.5698C60.4424 41.5512 59.7679 41.254 59.2433 40.6411C58.8686 40.2138 58.625 39.5452 58.5126 38.6536H61.2855H69.7354V38.6722ZM59.2245 34.0842C59.7491 33.397 60.4611 33.0441 61.323 33.0255H61.3417C62.0911 33.0255 62.7094 33.2669 63.1966 33.7127C63.665 34.1771 63.946 34.9387 64.0771 36.016H61.323H58.5688C58.6625 35.1616 58.8873 34.5114 59.2245 34.0842Z" fill="white"></path><path d="M16.75 29.7564C16.0755 29.7564 15.4572 29.8493 14.8764 30.0164C14.7078 30.0722 14.5579 30.1279 14.3893 30.1836C13.696 30.4808 13.059 30.908 12.4782 31.4838V24.5927H6.85742V44.5046H12.0848V42.3685C12.8155 43.2601 13.4712 43.8731 14.0895 44.2074C14.3518 44.3374 14.6141 44.4489 14.8764 44.5418C15.476 44.7461 16.113 44.839 16.7687 44.839C17.9116 44.839 18.9608 44.5418 19.8976 43.9474C20.8344 43.353 21.5651 42.4614 22.0897 41.2541C22.6144 40.0653 22.8767 38.6722 22.8767 37.0934C22.8767 34.7344 22.2958 32.9141 21.1342 31.651C19.9726 30.4065 18.5112 29.7564 16.75 29.7564ZM16.6189 39.9724C16.1692 40.5297 15.6071 40.7897 14.9326 40.7897C14.9139 40.7897 14.8951 40.7897 14.8577 40.7897C14.1644 40.7711 13.6024 40.4925 13.1527 39.9538C12.6843 39.3966 12.4595 38.505 12.4595 37.2605C12.4595 36.1275 12.6843 35.273 13.1714 34.7344C13.6211 34.2143 14.1832 33.9357 14.8764 33.8985C14.9326 33.8799 14.9888 33.8799 15.0263 33.8799C15.6633 33.8799 16.2067 34.14 16.6376 34.6787C17.0873 35.2173 17.2933 36.0532 17.2933 37.1862C17.2933 38.505 17.0685 39.4338 16.6189 39.9724Z" fill="white"></path><path d="M44.629 37.0377C44.629 38.3565 44.4229 39.2667 43.992 39.7682C43.5798 40.2697 43.0177 40.5297 42.3619 40.5297C41.7436 40.5297 41.2752 40.344 40.938 39.9539C40.6008 39.5824 40.4321 38.9323 40.4321 38.0222V30.0908H34.8301V39.2667C34.8301 41.1613 35.261 42.573 36.1416 43.4831C37.0222 44.3933 38.2213 44.8391 39.7389 44.8391C40.8818 44.8391 41.8561 44.6347 42.6617 44.2261C43.4486 43.8175 44.2355 43.1488 45.0037 42.1829V44.5233H50.2123V30.0908H44.629V37.0377Z" fill="white"></path><path d="M31.3255 24.6115H25.7422V44.5234H31.3255V24.6115Z" fill="white"></path><path d="M13.9016 48.0339H12.9648V54.9808H13.9016V48.0339Z" fill="white"></path><path d="M6.875 54.9808H7.8118V51.8232H11.0906V51.0059H7.8118V48.8512H11.5965V48.0339H6.875V54.9808Z" fill="white"></path><path d="M16.4122 54.145V48.0339H15.4941V54.9808H19.7847H19.8596V54.145H19.7847H16.4122Z" fill="white"></path><path d="M27.1485 51.8046H31.0269V50.9873H27.1485V48.8512H31.2892V48.0339H26.2305V54.9808H31.4578V54.145H27.1485V51.8046Z" fill="white"></path><path d="M44.741 52.0278C44.5536 51.7491 44.2351 51.5077 43.8417 51.3219C43.5606 51.2105 43.0548 51.0619 42.2866 50.8761C41.5372 50.709 41.0688 50.5418 40.9001 50.3746C40.7128 50.2075 40.6378 50.0217 40.6378 49.7617C40.6378 49.483 40.7502 49.223 41.0125 49.0187C41.2748 48.8144 41.6683 48.7029 42.2491 48.7029C42.7925 48.7029 43.1859 48.8144 43.467 49.0372C43.748 49.2601 43.9166 49.5945 43.9541 50.0403L44.8534 49.966C44.8347 49.5573 44.7223 49.1858 44.5162 48.8701C44.2913 48.5543 43.9916 48.3128 43.5981 48.1271C43.1859 47.9599 42.755 47.8856 42.2304 47.8856C41.762 47.8856 41.3311 47.9599 40.9563 48.1085C40.5629 48.2757 40.2818 48.5172 40.0757 48.7958C39.8697 49.1115 39.776 49.4459 39.776 49.7802C39.776 50.096 39.8509 50.3746 40.0195 50.6347C40.1882 50.8947 40.4317 51.1176 40.769 51.2848C41.0313 51.4148 41.4809 51.5634 42.118 51.712C42.7737 51.8792 43.1859 51.972 43.3733 52.0463C43.6543 52.1578 43.8791 52.3064 43.9916 52.455C44.1227 52.6222 44.1977 52.8079 44.1977 53.0308C44.1977 53.2537 44.1227 53.4394 43.9916 53.6252C43.8604 53.8109 43.6543 53.9409 43.392 54.0524C43.1297 54.1638 42.8112 54.2196 42.4552 54.2196C42.043 54.2196 41.7058 54.1453 41.3685 53.9967C41.05 53.8667 40.8065 53.6809 40.6753 53.458C40.5254 53.2351 40.413 52.9565 40.3755 52.6036L39.5137 52.6779C39.5324 53.1237 39.6448 53.5695 39.8884 53.9224C40.132 54.2939 40.4692 54.5725 40.9001 54.7582C41.3311 54.944 41.8557 55.0183 42.4927 55.0183C42.9986 55.0183 43.4295 54.944 43.8417 54.7582C44.2351 54.5725 44.5349 54.3124 44.7597 53.9967C44.9846 53.6809 45.0782 53.328 45.0782 52.9565C45.0408 52.6407 44.9471 52.325 44.741 52.0278Z" fill="white"></path><path d="M19.709 48.0339V48.8512H19.7839H22.0135V54.9808H22.9503V48.8512H25.2736V48.0339H19.7839H19.709Z" fill="white"></path><path d="M36.9281 52.1575C36.797 52.046 36.6096 51.9346 36.366 51.8046C37.0405 51.7303 37.5464 51.4888 37.8649 51.1545C38.1834 50.8201 38.3333 50.4115 38.3333 49.91C38.3333 49.5385 38.2396 49.1856 38.0523 48.8698C37.8462 48.554 37.6026 48.3311 37.2654 48.2197C36.9469 48.0897 36.4785 48.0339 35.8414 48.0339H35.5229H32.75V54.9808H33.6681V51.8975H34.7547C34.9983 51.8975 35.1669 51.916 35.2606 51.9346C35.3543 51.9532 35.4292 51.9903 35.5229 52.0275C35.5791 52.0461 35.6353 52.0832 35.6728 52.1018C35.8227 52.1946 35.9726 52.3618 36.1412 52.5661C36.3098 52.789 36.5534 53.1048 36.8157 53.532L37.7525 54.9808H38.9141L37.6963 53.0862C37.4527 52.7147 37.2092 52.4175 36.9281 52.1575ZM35.6728 51.0987H35.5417H33.6868V48.7955H35.5417H35.8976C36.4223 48.7955 36.797 48.9069 37.0405 49.1113C37.2841 49.3156 37.3965 49.5942 37.3965 49.91C37.3965 50.1329 37.3216 50.3372 37.2092 50.5415C37.0967 50.7273 36.8907 50.8573 36.6471 50.9501C36.4223 51.043 36.085 51.0987 35.6728 51.0987Z" fill="white"></path><path d="M0.28125 91.9582V83.9525H2.37968V84.807C2.66072 84.454 2.94175 84.194 3.18532 84.0826C3.50383 83.9154 3.87855 83.8225 4.27201 83.8225C5.05892 83.8225 5.65847 84.1197 6.08939 84.7141C6.52032 85.3085 6.72642 86.0329 6.72642 86.9245C6.72642 87.8903 6.50159 88.6333 6.03319 89.1348C5.56479 89.6364 4.98397 89.8964 4.27201 89.8964C3.93476 89.8964 3.61625 89.8407 3.33521 89.7292C3.05417 89.6178 2.79187 89.432 2.56704 89.2091V91.9768H0.28125V91.9582ZM2.52956 86.8687C2.52956 87.3331 2.62324 87.6674 2.82934 87.8903C3.0167 88.1132 3.279 88.2247 3.56004 88.2247C3.82234 88.2247 4.04718 88.1132 4.2158 87.9089C4.38442 87.7046 4.4781 87.3331 4.4781 86.8316C4.4781 86.3672 4.38442 86.0143 4.19706 85.7914C4.0097 85.5685 3.78487 85.4571 3.52257 85.4571C3.24153 85.4571 2.99796 85.5685 2.8106 85.7914C2.62324 86.0143 2.52956 86.3672 2.52956 86.8687Z" fill="#009DCC"></path><path d="M7.83203 83.9523H9.93046V84.8996C10.1366 84.491 10.3426 84.2124 10.5487 84.0452C10.7548 83.878 11.0359 83.8037 11.3544 83.8037C11.6916 83.8037 12.0476 83.8966 12.4411 84.1009L11.7478 85.6797C11.4855 85.5683 11.2794 85.5126 11.1108 85.5126C10.811 85.5126 10.5862 85.624 10.4363 85.8655C10.2115 86.1998 10.0803 86.8314 10.0803 87.7601V89.7104H7.83203V83.9523Z" fill="#009DCC"></path><path d="M12.7227 86.8687C12.7227 85.9772 13.0224 85.2528 13.622 84.6769C14.2215 84.1011 15.0459 83.8225 16.0577 83.8225C17.238 83.8225 18.1186 84.1569 18.7182 84.8255C19.2053 85.3642 19.4489 86.0329 19.4489 86.8316C19.4489 87.7232 19.1491 88.4476 18.5495 89.0234C17.95 89.5992 17.1256 89.8778 16.0764 89.8778C15.1396 89.8778 14.3714 89.6363 13.7906 89.172C13.0786 88.5962 12.7227 87.816 12.7227 86.8687ZM14.971 86.8687C14.971 87.3888 15.0834 87.7603 15.2895 88.0204C15.4956 88.2618 15.7579 88.3919 16.0951 88.3919C16.4136 88.3919 16.6759 88.2618 16.9008 88.0204C17.1069 87.7789 17.2193 87.3888 17.2193 86.8502C17.2193 86.3486 17.1069 85.9772 16.9008 85.7357C16.6947 85.4942 16.4324 85.3642 16.1326 85.3642C15.8141 85.3642 15.533 85.4942 15.327 85.7357C15.0834 85.9772 14.971 86.3487 14.971 86.8687Z" fill="#009DCC"></path><path d="M23.027 83.9526H24.0949V85.5872H23.027V89.7665H20.7787V85.5872H19.9355V83.9526H20.7787V83.6926C20.7787 83.4511 20.7974 83.191 20.8536 82.9124C20.9098 82.6338 21.0035 82.3923 21.1346 82.2066C21.2845 82.0208 21.4719 81.8722 21.7342 81.7608C21.9965 81.6494 22.3712 81.5936 22.8584 81.5936C23.2518 81.5936 23.8139 81.6308 24.5633 81.7237L24.3198 83.061C24.0575 83.0239 23.8326 82.9867 23.664 82.9867C23.4579 82.9867 23.308 83.0239 23.2331 83.0796C23.1581 83.1353 23.0832 83.2468 23.0457 83.3954C23.027 83.5254 23.027 83.6926 23.027 83.9526Z" fill="#009DCC"></path><path d="M31.2324 87.4073H26.7358C26.7733 87.7602 26.867 88.0389 27.0356 88.206C27.2604 88.4661 27.5414 88.5775 27.8787 88.5775C28.1035 88.5775 28.3096 88.5218 28.5157 88.4104C28.6281 88.3361 28.7593 88.2246 28.9092 88.0389L31.12 88.2432C30.7828 88.819 30.3706 89.2462 29.9022 89.5063C29.415 89.7663 28.7405 89.8778 27.8412 89.8778C27.073 89.8778 26.4548 89.7663 26.0051 89.5434C25.5554 89.3205 25.1994 88.9862 24.8997 88.5032C24.5999 88.0203 24.4688 87.4816 24.4688 86.8315C24.4688 85.9214 24.7685 85.1969 25.3493 84.6211C25.9302 84.0639 26.7358 83.7853 27.785 83.7853C28.6281 83.7853 29.2839 83.9153 29.771 84.1568C30.2582 84.4168 30.6329 84.7697 30.8764 85.2527C31.1387 85.7356 31.2512 86.3486 31.2512 87.1101V87.4073H31.2324ZM28.9466 86.33C28.9092 85.9028 28.778 85.587 28.5907 85.4013C28.4033 85.2155 28.1597 85.1227 27.8412 85.1227C27.4852 85.1227 27.2042 85.2712 26.9794 85.5499C26.8482 85.717 26.7545 85.9771 26.7171 86.33H28.9466Z" fill="#009DCC"></path><path d="M31.8516 88.1504L34.0811 87.946C34.1748 88.2061 34.306 88.3918 34.4746 88.5033C34.6432 88.6147 34.868 88.6704 35.1304 88.6704C35.4301 88.6704 35.6737 88.6147 35.8236 88.4847C35.9547 88.3918 36.0109 88.2804 36.0109 88.1318C36.0109 87.9646 35.9173 87.8532 35.7486 87.7603C35.6362 87.7046 35.299 87.6303 34.7931 87.5374C34.0062 87.4074 33.4816 87.2773 33.1631 87.1659C32.8633 87.0545 32.601 86.8501 32.3949 86.5901C32.1888 86.3115 32.0764 86.0143 32.0764 85.6614C32.0764 85.2713 32.1888 84.9555 32.4136 84.6769C32.6385 84.3983 32.9382 84.194 33.3317 84.0639C33.7252 83.9339 34.2498 83.8596 34.9055 83.8596C35.5988 83.8596 36.1234 83.9153 36.4606 84.0268C36.7979 84.1382 37.0789 84.3054 37.285 84.5097C37.5098 84.7326 37.6972 85.0298 37.8471 85.4199L35.7112 85.6242C35.655 85.4385 35.5613 85.3084 35.4301 85.2156C35.2615 85.1041 35.0367 85.0484 34.7931 85.0484C34.5308 85.0484 34.3622 85.0855 34.231 85.1784C34.1186 85.2713 34.0624 85.3827 34.0624 85.4942C34.0624 85.6428 34.1373 85.7357 34.2872 85.81C34.4371 85.8843 34.7556 85.94 35.2428 86.0143C35.9922 86.1071 36.5355 86.2186 36.9103 86.3672C37.2662 86.5158 37.5473 86.7387 37.7534 86.9987C37.9407 87.2773 38.0344 87.5745 38.0344 87.9089C38.0344 88.2432 37.9407 88.5776 37.7346 88.8933C37.5286 89.2091 37.21 89.4692 36.7791 89.6549C36.3482 89.8406 35.7486 89.9335 34.9805 89.9335C33.9125 89.9335 33.1443 89.7849 32.6947 89.4877C32.2825 89.1348 31.9827 88.7076 31.8516 88.1504Z" fill="#009DCC"></path><path d="M38.7461 88.1504L40.9757 87.946C41.0694 88.2061 41.2005 88.3918 41.3691 88.5033C41.5378 88.6147 41.7626 88.6704 42.0249 88.6704C42.3247 88.6704 42.5682 88.6147 42.7181 88.4847C42.8493 88.3918 42.9055 88.2804 42.9055 88.1318C42.9055 87.9646 42.8118 87.8532 42.6432 87.7603C42.5308 87.7046 42.1935 87.6303 41.6876 87.5374C40.9007 87.4074 40.3761 87.2773 40.0576 87.1659C39.7578 87.0545 39.4955 86.8501 39.2894 86.5901C39.0833 86.3115 38.9709 86.0143 38.9709 85.6614C38.9709 85.2713 39.0833 84.9555 39.3082 84.6769C39.533 84.3983 39.8328 84.194 40.2262 84.0639C40.6197 83.9339 41.1443 83.8596 41.8001 83.8596C42.4933 83.8596 43.0179 83.9153 43.3551 84.0268C43.6924 84.1382 43.9734 84.3054 44.1795 84.5097C44.4044 84.7326 44.5917 85.0298 44.7416 85.4199L42.6057 85.6242C42.5495 85.4385 42.4558 85.3084 42.3247 85.2156C42.156 85.1041 41.9312 85.0484 41.6876 85.0484C41.4253 85.0484 41.2567 85.0855 41.1256 85.1784C41.0131 85.2713 40.9569 85.3827 40.9569 85.4942C40.9569 85.6428 41.0319 85.7357 41.1818 85.81C41.3317 85.8843 41.6502 85.94 42.1373 86.0143C42.8867 86.1071 43.4301 86.2186 43.8048 86.3672C44.1608 86.5158 44.4418 86.7387 44.6479 86.9987C44.8353 87.2773 44.929 87.5745 44.929 87.9089C44.929 88.2432 44.8353 88.5776 44.6292 88.8933C44.4231 89.2091 44.1046 89.4692 43.6737 89.6549C43.2427 89.8406 42.6432 89.9335 41.875 89.9335C40.807 89.9335 40.0389 89.7849 39.5892 89.4877C39.177 89.1348 38.8772 88.7076 38.7461 88.1504Z" fill="#009DCC"></path><path d="M46.127 81.7419H48.3753V83.2465H46.127V81.7419ZM46.127 83.9523H48.3753V89.7476H46.127V83.9523Z" fill="#009DCC"></path><path d="M49.5371 86.8687C49.5371 85.9772 49.8369 85.2528 50.4364 84.6769C51.036 84.1011 51.8604 83.8225 52.8721 83.8225C54.0525 83.8225 54.9331 84.1569 55.5326 84.8255C56.0198 85.3642 56.2633 86.0329 56.2633 86.8316C56.2633 87.7232 55.9635 88.4476 55.364 89.0234C54.7644 89.5992 53.9401 89.8778 52.8908 89.8778C51.954 89.8778 51.1859 89.6363 50.6051 89.172C49.8931 88.5962 49.5371 87.816 49.5371 86.8687ZM51.7854 86.8687C51.7854 87.3888 51.8978 87.7603 52.1039 88.0204C52.31 88.2618 52.5723 88.3919 52.9096 88.3919C53.2281 88.3919 53.4904 88.2618 53.7152 88.0204C53.9213 87.7789 54.0337 87.3888 54.0337 86.8502C54.0337 86.3486 53.9213 85.9772 53.7152 85.7357C53.5091 85.4942 53.2468 85.3642 52.9471 85.3642C52.6285 85.3642 52.3475 85.4942 52.1414 85.7357C51.8791 85.9772 51.7854 86.3487 51.7854 86.8687Z" fill="#009DCC"></path><path d="M57.3312 83.9525H59.4109V84.8998C59.7294 84.5098 60.048 84.2311 60.3665 84.064C60.685 83.8968 61.0784 83.8225 61.5281 83.8225C62.1464 83.8225 62.6335 84.0083 62.9895 84.3797C63.3455 84.7512 63.5141 85.3085 63.5141 86.07V89.7664H61.2658V86.5715C61.2658 86.2001 61.1908 85.9586 61.0597 85.7914C60.9285 85.6428 60.7412 85.5685 60.4789 85.5685C60.1978 85.5685 59.9917 85.6614 59.8231 85.8657C59.6545 86.07 59.5608 86.4415 59.5608 86.9616V89.7478H57.3125V83.9525H57.3312Z" fill="#009DCC"></path><path d="M66.9064 85.8286L64.7705 85.6057C64.8455 85.2342 64.9766 84.937 65.1265 84.7327C65.2764 84.5283 65.5013 84.3426 65.7823 84.1754C65.9884 84.064 66.2694 83.9711 66.6254 83.9154C66.9814 83.8597 67.3748 83.8225 67.787 83.8225C68.4615 83.8225 69.0049 83.8597 69.3983 83.934C69.8105 84.0083 70.1478 84.1569 70.4101 84.3983C70.5974 84.5655 70.7473 84.7884 70.8597 85.1042C70.9721 85.4013 71.0284 85.6985 71.0284 85.9586V88.5219C71.0284 88.8005 71.0471 89.0048 71.0846 89.172C71.122 89.3206 71.197 89.5249 71.3094 89.7664H69.211C69.1173 89.6178 69.0798 89.5063 69.0423 89.432C69.0236 89.3577 68.9861 89.2277 68.9674 89.0605C68.6676 89.3392 68.3866 89.5435 68.0868 89.6549C67.6934 89.8221 67.225 89.8964 66.7004 89.8964C66.0071 89.8964 65.4638 89.7292 65.1078 89.4135C64.7518 89.0977 64.5645 88.6891 64.5645 88.2247C64.5645 87.7789 64.6956 87.426 64.9579 87.1288C65.2202 86.8502 65.7073 86.6273 66.4006 86.4972C67.2437 86.3301 67.787 86.2186 68.0306 86.1443C68.2742 86.07 68.5365 85.9957 68.8175 85.8843C68.8175 85.6057 68.7613 85.4199 68.6489 85.3085C68.5365 85.197 68.3304 85.1413 68.0493 85.1413C67.6746 85.1413 67.4123 85.197 67.225 85.3085C67.1125 85.4013 67.0001 85.5871 66.9064 85.8286ZM68.855 86.9988C68.5552 87.1102 68.218 87.2031 67.8994 87.296C67.4498 87.4074 67.15 87.5374 67.0376 87.6489C66.9064 87.7603 66.8502 87.9089 66.8502 88.0575C66.8502 88.2247 66.9064 88.3733 67.0376 88.4847C67.1687 88.5962 67.3374 88.6519 67.5809 88.6519C67.8245 88.6519 68.0681 88.5962 68.2742 88.4662C68.4803 88.3547 68.6489 88.2061 68.7238 88.0204C68.8175 87.8532 68.855 87.6303 68.855 87.3517V86.9988Z" fill="#009DCC"></path><path d="M72.4707 81.7419H74.719V89.7476H72.4707V81.7419Z" fill="#009DCC"></path></g><defs><clipPath id="clip0"><rect width="75" height="92" fill="white"></rect></clipPath></defs></svg> 