<?xml version="1.0" encoding="UTF-8"?> <svg xmlns="http://www.w3.org/2000/svg" width="113" height="113" viewBox="0 0 113 113" fill="none"><path d="M56.5 113C87.7041 113 113 87.7041 113 56.5C113 25.2959 87.7041 0 56.5 0C25.2959 0 0 25.2959 0 56.5C0 87.7041 25.2959 113 56.5 113Z" fill="#009DCC"></path><g clip-path="url(#clip0)"><path d="M88.9684 45.7631C83.6219 28.6843 65.3819 19.14 48.2998 24.4844C31.2199 29.8311 21.6744 48.0753 27.02 65.1541L29.1189 64.4966C24.135 48.5756 33.034 31.5671 48.9573 26.5821C56.671 24.1689 64.863 24.9033 72.0215 28.6491C79.1831 32.3972 84.4565 38.708 86.8706 46.4207C89.2842 54.1332 88.5506 62.3242 84.8038 69.4849C81.058 76.6468 74.7471 81.9197 67.0334 84.3343C54.1225 88.3745 39.9705 83.2722 32.6096 71.9235L30.7647 73.1198C36.8491 82.5026 47.2631 87.9054 58.0585 87.9039C61.2689 87.9039 64.5156 87.4267 67.6897 86.4306C75.9628 83.8413 82.7324 78.1851 86.7518 70.5042C90.7717 62.8233 91.5576 54.0366 88.9684 45.7631Z" fill="white"></path><path d="M51.6216 38.3922L52.2527 36.2856L41.2582 32.9873C40.8734 32.8708 40.4522 32.9763 40.1653 33.2633L37.9664 35.4621C37.7103 35.7183 37.597 36.0844 37.663 36.4407C37.729 36.7969 37.9664 37.0971 38.2973 37.2444L48.1924 41.6422L49.0852 39.6324L40.6536 35.8843L41.2561 35.2818L51.6216 38.3922Z" fill="white"></path><path d="M61.8341 31.8432C61.8341 31.2363 61.3426 30.7438 60.7347 30.7438C60.7335 30.7438 60.7335 30.7438 60.7325 30.7438C58.3137 30.7438 56.0389 31.6859 54.3281 33.3968L45.0049 42.719L41.2107 41.7701C40.8358 41.6767 40.44 41.7855 40.1662 42.0593L37.9673 44.2582C37.7277 44.4978 37.6111 44.8343 37.6529 45.1696C37.6947 45.5049 37.8881 45.804 38.1784 45.9778L43.4404 49.1353L46.5979 54.3973C46.7717 54.6876 47.0696 54.881 47.4061 54.9228C47.45 54.9284 47.4951 54.9305 47.5402 54.9305C47.8294 54.9305 48.1097 54.8162 48.3187 54.6096L50.5176 52.4107C50.7902 52.1369 50.9002 51.7412 50.8067 51.3662L49.859 47.5763L59.3307 38.198C60.9468 36.5059 61.8363 34.2829 61.8341 31.8432ZM47.8656 46.4527C47.5896 46.7253 47.4786 47.1233 47.5721 47.5004L48.521 51.2947L47.7579 52.0576L45.1841 47.7676C45.0906 47.6126 44.962 47.4829 44.807 47.3906L40.517 44.8167L41.28 44.0537L45.0743 45.0026C45.4491 45.096 45.845 44.9873 46.1188 44.7135L55.8819 34.9504C56.8934 33.9378 58.1664 33.2814 59.5474 33.0428C59.3297 34.4017 58.7107 35.6617 57.7608 36.6567L47.8656 46.4527Z" fill="white"></path><path d="M59.5882 51.4629L56.2898 40.3256L54.1811 40.9501L57.2803 51.4147L56.613 52.0041L52.9474 43.5009L50.9277 44.3717L55.1936 54.2667C55.3332 54.59 55.6192 54.8275 55.9632 54.9045C56.0435 54.922 56.1237 54.9309 56.204 54.9309C56.469 54.9309 56.7284 54.8352 56.9307 54.656L59.2617 52.6001C59.5826 52.3172 59.7091 51.8741 59.5882 51.4629Z" fill="white"></path><path d="M46.4777 83.6225C38.6474 87.3332 32.5048 87.8124 29.6286 84.9374C24.6437 79.9529 30.0574 65.4697 42.2205 51.2472L40.5494 49.8179C27.2088 65.4168 22.0777 80.4981 28.073 86.4919C29.7475 88.1653 32.1124 88.9999 35.0456 88.9999C38.4649 88.9999 42.656 87.8668 47.4188 85.6091L46.4777 83.6225Z" fill="white"></path><path d="M83.6948 61.0081C83.5034 60.6507 83.1307 60.4276 82.7246 60.4276H79.0067L76.0118 54.4389C75.8245 54.0662 75.4443 53.8308 75.0276 53.8308H64.0331C63.425 53.8308 62.9336 54.3234 62.9336 54.9303V63.7259C62.9336 64.334 63.4251 64.8253 64.0331 64.8253H67.3314V76.9194C67.3314 77.5276 67.8228 78.0185 68.4308 78.0185H73.928C74.2193 78.0185 74.4987 77.9033 74.7065 77.6957L79.1042 73.2977C79.3108 73.0921 79.4266 72.8129 79.4266 72.5204V68.4558L83.6394 62.1361C83.8638 61.7997 83.8856 61.3654 83.6948 61.0081ZM77.411 67.5136C77.2912 67.6939 77.2262 67.9071 77.2262 68.1238V72.0664L73.4729 75.8197H69.5303H69.5292V63.7259C69.5292 63.1179 69.0378 62.6265 68.4298 62.6265H65.1314V56.0298H74.3471L77.342 62.0186C77.5288 62.3912 77.9091 62.6266 78.3259 62.6266H80.6699L77.411 67.5136Z" fill="white"></path><path d="M84.4607 51.6322L80.3799 44.4902C80.1839 44.1472 79.8189 43.936 79.4254 43.936H72.8289C72.4616 43.936 72.1186 44.1195 71.9142 44.4252L70.0418 47.2343H67.3317V41.7372H72.8289C73.1214 41.7372 73.3995 41.6217 73.6061 41.415L77.682 37.3394H82.7239V35.1405H77.2266C76.9342 35.1405 76.656 35.256 76.4493 35.4626L72.3737 39.5382H66.2322C65.6242 39.5382 65.1328 40.0308 65.1328 40.6377V48.3338C65.1328 48.9406 65.6243 49.4332 66.2322 49.4332H70.63C70.9972 49.4332 71.3403 49.2496 71.5447 48.944L73.4171 46.1349H78.7878L82.8691 53.2769C83.0646 53.6199 83.4296 53.8311 83.8236 53.8311H88.2212V51.6322H84.4607Z" fill="white"></path><path d="M57.4369 62.6267H51.2954L48.3192 59.6505C48.1136 59.4437 47.8333 59.3284 47.5419 59.3284H42.0447C41.4378 59.3284 40.9453 59.8199 40.9453 60.4278V68.1239C40.9453 68.7319 41.4378 69.2233 42.0447 69.2233H46.4425V80.218C46.4425 80.6343 46.6778 81.0151 47.0506 81.2019C47.2056 81.2786 47.3749 81.3172 47.5421 81.3172C47.7751 81.3172 48.0072 81.2436 48.2017 81.0974L52.5994 77.7989C52.8764 77.5912 53.0393 77.2648 53.0393 76.9196V74.1491L58.1242 70.0821C58.3848 69.8732 58.5364 69.5577 58.5364 69.2234V63.7263C58.5363 63.1182 58.0438 62.6267 57.4369 62.6267ZM56.3374 68.6957L51.2525 72.7626C50.992 72.9715 50.8402 73.2869 50.8402 73.6212V76.3697L48.6414 78.0192V68.124C48.6414 67.5159 48.1488 67.0246 47.5419 67.0246H43.1442V61.5273H47.0868L50.063 64.5035C50.2686 64.7102 50.5489 64.8257 50.8402 64.8257H56.3374V68.6957Z" fill="white"></path><path d="M35.2907 46.6683L31.9924 41.1711C31.7945 40.8402 31.436 40.6378 31.0503 40.6378H29.9508V42.8367H30.428L32.9645 47.064L30.2731 49.7555C30.0663 49.9611 29.9509 50.2415 29.9509 50.5328V53.8311H26.6523V56.03H31.0501C31.657 56.03 32.1496 55.5374 32.1496 54.9305V50.9879L35.1257 48.0117C35.482 47.6544 35.5502 47.1015 35.2907 46.6683Z" fill="white"></path><path d="M59.6371 24.1458V25.487L56.0716 26.3787C55.9495 26.4095 55.833 26.4612 55.7286 26.5304L52.9612 28.3753L46.9351 25.3617L45.9512 27.3286L52.5478 30.6269C52.7029 30.7038 52.8711 30.7424 53.0394 30.7424C53.2527 30.7424 53.4649 30.6797 53.6484 30.5577L56.7885 28.4644L61.0027 27.4111C61.4918 27.289 61.836 26.8493 61.836 26.3446V24.1458H59.6371Z" fill="white"></path></g><defs><clipPath id="clip0"><rect width="66" height="66" fill="white" transform="translate(24 24)"></rect></clipPath></defs></svg> 