<?xml version="1.0" encoding="UTF-8"?> <svg xmlns="http://www.w3.org/2000/svg" width="113" height="113" viewBox="0 0 113 113" fill="none"><path d="M56.5 113C87.7041 113 113 87.7041 113 56.5C113 25.2959 87.7041 0 56.5 0C25.2959 0 0 25.2959 0 56.5C0 87.7041 25.2959 113 56.5 113Z" fill="#009DCC"></path><g clip-path="url(#clip0)"><path d="M50.7804 45.0729L52.4219 43.4319L54.0634 45.0734C54.5593 45.5688 55.3627 45.5688 55.8586 45.0734L57.5 43.4319L59.1415 45.0734C59.6374 45.5688 60.4408 45.5688 60.9367 45.0734L62.5781 43.4319L64.2196 45.0734C64.7155 45.5688 65.5189 45.5688 66.0148 45.0734C66.5107 44.5775 66.5107 43.7736 66.0148 43.2777L63.4757 40.7387C62.9798 40.2432 62.1765 40.2432 61.6806 40.7387L60.0391 42.3801L58.3976 40.7387C57.9017 40.2427 57.0983 40.2427 56.6024 40.7387L54.961 42.3801L53.3195 40.7387C52.8236 40.2427 52.0202 40.2427 51.5243 40.7387L48.9852 43.2777C48.4893 43.7731 48.4893 44.577 48.9852 45.0729C49.4811 45.5688 50.2845 45.5688 50.7804 45.0729Z" fill="white"></path><path d="M88.7305 30.3008H26.2695C25.5683 30.3008 25 30.8691 25 31.5703V79.8125C25 80.5135 25.5683 81.082 26.2695 81.082H58.7696V87.3395C58.7696 87.853 59.079 88.316 59.5531 88.5125C60.0277 88.7085 60.5736 88.6 60.9366 88.237L65.1172 84.057L69.2977 88.2375C69.6607 88.6005 70.2067 88.7085 70.6813 88.513C71.1554 88.316 71.4649 87.853 71.4649 87.3395V81.082H88.7305C89.4315 81.082 90 80.5135 90 79.8125V31.5703C90 30.8691 89.4315 30.3008 88.7305 30.3008ZM57.5 63.3086C57.5 59.1083 60.9168 55.6914 65.1172 55.6914C69.3175 55.6914 72.7344 59.1083 72.7344 63.3086C72.7344 67.4847 69.3339 70.9258 65.1172 70.9258C60.9064 70.9258 57.5 67.4916 57.5 63.3086ZM71.4649 71.2303C73.8611 69.3062 75.2735 66.3932 75.2735 63.3086C75.2735 57.7083 70.7175 53.1524 65.1172 53.1524C59.5168 53.1524 54.961 57.7083 54.961 63.3086C54.961 66.3932 56.3733 69.3062 58.7696 71.2303V73.4649H36.2651C35.8049 71.6831 34.399 70.2772 32.6172 69.817V41.5659C34.399 41.1057 35.8049 39.6998 36.2651 37.918H78.735C79.195 39.6998 80.601 41.1057 82.383 41.5659V69.817C80.601 70.2772 79.195 71.6831 78.735 73.4649H71.4649V71.2303ZM68.9258 84.2745L66.0148 81.3635C65.5189 80.868 64.7155 80.868 64.2196 81.3635L61.3086 84.2745V72.7239C62.5092 73.2114 63.797 73.4649 65.1172 73.4649C66.4373 73.4649 67.7252 73.2114 68.9258 72.7239V84.2745ZM87.461 78.543H71.4649V76.0039H79.844C80.545 76.0039 81.1135 75.4356 81.1135 74.7344C81.1135 73.3344 82.2525 72.1953 83.6525 72.1953C84.3535 72.1953 84.922 71.627 84.922 70.9258V40.4571C84.922 39.7558 84.3535 39.1875 83.6525 39.1875C82.2525 39.1875 81.1135 38.0484 81.1135 36.6485C81.1135 35.9472 80.545 35.3789 79.844 35.3789H35.1562C34.455 35.3789 33.8867 35.9472 33.8867 36.6485C33.8867 38.0484 32.7476 39.1875 31.3477 39.1875C30.6465 39.1875 30.0781 39.7558 30.0781 40.4571V70.9258C30.0781 71.627 30.6465 72.1953 31.3477 72.1953C32.7476 72.1953 33.8867 73.3344 33.8867 74.7344C33.8867 75.4356 34.455 76.0039 35.1562 76.0039H58.7696V78.543H27.5391V32.8399H87.461V78.543Z" fill="white"></path><path d="M70.1953 63.3086C70.1953 60.5087 67.9171 58.2305 65.1172 58.2305C62.3173 58.2305 60.0391 60.5087 60.0391 63.3086C60.0391 66.1085 62.3173 68.3867 65.1172 68.3867C67.9171 68.3867 70.1953 66.1085 70.1953 63.3086ZM62.5781 63.3086C62.5781 61.9087 63.7173 60.7696 65.1172 60.7696C66.5172 60.7696 67.6563 61.9087 67.6563 63.3086C67.6563 64.7086 66.5172 65.8477 65.1172 65.8477C63.7173 65.8477 62.5781 64.7086 62.5781 63.3086Z" fill="white"></path><path d="M70.9571 48.0742H38.9649C38.2637 48.0742 37.6953 48.6426 37.6953 49.3438C37.6953 50.045 38.2637 50.6133 38.9649 50.6133H70.9571C71.6583 50.6133 72.2266 50.045 72.2266 49.3438C72.2266 48.6426 71.6583 48.0742 70.9571 48.0742Z" fill="white"></path><path d="M49.8828 55.6914H38.9649C38.2637 55.6914 37.6953 56.2597 37.6953 56.961C37.6953 57.6622 38.2637 58.2305 38.9649 58.2305H49.8828C50.5841 58.2305 51.1524 57.6622 51.1524 56.961C51.1524 56.2597 50.5841 55.6914 49.8828 55.6914Z" fill="white"></path><path d="M49.8828 63.3086H38.9649C38.2637 63.3086 37.6953 63.8769 37.6953 64.5781C37.6953 65.2793 38.2637 65.8476 38.9649 65.8476H49.8828C50.5841 65.8476 51.1524 65.2793 51.1524 64.5781C51.1524 63.8769 50.5841 63.3086 49.8828 63.3086Z" fill="white"></path></g><defs><clipPath id="clip0"><rect width="66" height="66" fill="white" transform="translate(24 24)"></rect></clipPath></defs></svg> 