<?xml version="1.0" encoding="UTF-8"?> <svg xmlns="http://www.w3.org/2000/svg" width="113" height="113" viewBox="0 0 113 113" fill="none"><path d="M56.5 113C87.7041 113 113 87.7041 113 56.5C113 25.2959 87.7041 0 56.5 0C25.2959 0 0 25.2959 0 56.5C0 87.7041 25.2959 113 56.5 113Z" fill="#009DCC"></path><path d="M82.1565 25.9844H68.375C66.7469 25.9844 65.4219 27.3093 65.4219 28.9375V30.9063C63.2504 30.9063 61.4844 32.6722 61.4844 34.8438C61.4844 37.0153 63.2504 38.7813 65.4219 38.7813V43.7032H73.2969V41.7344C73.2969 40.6486 74.1799 39.7656 75.2657 39.7656C76.3514 39.7656 77.2344 40.6486 77.2344 41.7344V43.7032H82.1565C83.7843 43.7032 85.1093 42.3782 85.1093 40.75V28.9375C85.1093 27.3093 83.7843 25.9844 82.1565 25.9844ZM83.1408 40.75C83.1408 41.2924 82.6998 41.7344 82.1565 41.7344H79.2033C79.2033 39.5628 77.4372 37.7969 75.2657 37.7969C73.0941 37.7969 71.3282 39.5628 71.3282 41.7344H67.3907V36.8125H65.4219C64.3361 36.8125 63.4532 35.9295 63.4532 34.8438C63.4532 33.758 64.3361 32.875 65.4219 32.875H67.3907V28.9375C67.3907 28.3951 67.8317 27.9531 68.375 27.9531H82.1565C82.6998 27.9531 83.1408 28.3951 83.1408 28.9375V40.75Z" fill="white"></path><path fill-rule="evenodd" clip-rule="evenodd" d="M82.1573 43.7032C83.7851 43.7032 85.11 42.3783 85.11 40.7501V28.9376C85.11 27.3095 83.7851 25.9845 82.1573 25.9845H68.3759C66.7477 25.9845 65.4227 27.3095 65.4227 28.9376V30.9064C63.2512 30.9064 61.4852 32.6724 61.4852 34.8439C61.4852 37.0154 63.2512 38.7814 65.4227 38.7814V43.7032H73.2977V41.7345C73.2977 40.6487 74.1807 39.7657 75.2665 39.7657C76.3523 39.7657 77.2352 40.6487 77.2352 41.7345V43.7032H82.1573ZM65.2773 38.9242V43.8486H73.4431V41.7345C73.4431 40.729 74.261 39.9111 75.2665 39.9111C76.272 39.9111 77.0898 40.729 77.0898 41.7345V43.8486H82.1573C83.8655 43.8486 85.2554 42.4586 85.2554 40.7501V28.9376C85.2554 27.2292 83.8655 25.8391 82.1573 25.8391H68.3759C66.6674 25.8391 65.2773 27.2292 65.2773 28.9376V30.7636C63.0926 30.8403 61.3398 32.6407 61.3398 34.8439C61.3398 37.047 63.0926 38.8474 65.2773 38.9242ZM67.3915 32.8751H65.4227C64.337 32.8751 63.454 33.7581 63.454 34.8439C63.454 35.9297 64.337 36.8126 65.4227 36.8126H67.3915V41.7345H71.329C71.329 39.563 73.095 37.797 75.2665 37.797C77.438 37.797 79.204 39.563 79.204 41.7345H82.1573C82.7005 41.7345 83.1415 41.2925 83.1415 40.7501V28.9376C83.1415 28.3952 82.7005 27.9532 82.1573 27.9532H68.3759C67.8325 27.9532 67.3915 28.3952 67.3915 28.9376V32.8751ZM79.347 41.5891H82.1573C82.6201 41.5891 82.9961 41.2123 82.9961 40.7501V28.9376C82.9961 28.4754 82.6201 28.0986 82.1573 28.0986H68.3759C67.9129 28.0986 67.5369 28.4754 67.5369 28.9376V33.0205H65.4227C64.4173 33.0205 63.5994 33.8384 63.5994 34.8439C63.5994 35.8494 64.4173 36.6672 65.4227 36.6672H67.5369V41.5891H71.1862C71.263 39.4044 73.0633 37.6516 75.2665 37.6516C77.4696 37.6516 79.2699 39.4044 79.347 41.5891Z" fill="white"></path><path d="M65.4218 45.6718C63.2503 45.6718 61.4843 47.4378 61.4843 49.6093H57.5468V44.6875H55.5781C54.4923 44.6875 53.6093 43.8045 53.6093 42.7187C53.6093 41.6329 54.4923 40.75 55.5781 40.75H57.5468V31.8906H54.9078C44.4222 31.8906 35.8906 40.4222 35.8906 50.9078C35.8906 56.6348 38.4333 61.9997 42.8659 65.6261L46.7187 68.7791V71.4477C45.5759 71.8553 44.75 72.938 44.75 74.2199C44.75 75.5812 45.6802 76.7191 46.9353 77.0588C46.7984 77.398 46.7187 77.7673 46.7187 78.1565C46.7187 79.4577 47.5702 80.5524 48.7406 80.945C49.1482 84.3586 52.057 87.0157 55.5781 87.0157C59.0992 87.0157 62.008 84.3586 62.4156 80.945C63.586 80.5524 64.4375 79.4577 64.4375 78.1565C64.4375 77.7673 64.3578 77.398 64.2209 77.0578C65.476 76.7172 66.4062 75.5803 66.4062 74.2185C66.4062 72.9371 65.5803 71.8542 64.4375 71.4467V68.7781L68.2903 65.6251C72.7229 61.9997 75.2656 56.6348 75.2656 50.9078V49.6093H69.3593C69.3593 47.4378 67.5934 45.6718 65.4218 45.6718ZM54.9078 33.8593H55.5781V38.7812C53.4066 38.7812 51.6406 40.5472 51.6406 42.7187C51.6406 44.8902 53.4066 46.6562 55.5781 46.6562V49.6093H51.6406C51.6406 47.4378 49.8746 45.6718 47.7031 45.6718C45.5316 45.6718 43.7656 47.4378 43.7656 49.6093H37.9086C38.574 40.813 45.944 33.8593 54.9078 33.8593ZM44.1121 64.1023C40.3114 60.9927 38.0612 56.4586 37.8731 51.5781H45.7343V49.6093C45.7343 48.5236 46.6173 47.6406 47.7031 47.6406C48.7889 47.6406 49.6718 48.5236 49.6718 49.6093V51.5781H55.5781V55.5156C53.4066 55.5156 51.6406 57.2816 51.6406 59.4531C51.6406 61.6246 53.4066 63.3906 55.5781 63.3906V71.2656H48.6875V67.8459L44.1121 64.1023ZM55.5781 85.0467C53.2018 85.0467 51.2134 83.3525 50.7557 81.1092H60.4005C59.9428 83.3525 57.9544 85.0467 55.5781 85.0467ZM61.4843 79.1407H49.6718C49.1285 79.1407 48.6875 78.6988 48.6875 78.1565C48.6875 77.6137 49.1285 77.1717 49.6718 77.1717H61.4843C62.0277 77.1717 62.4687 77.6137 62.4687 78.1565C62.4687 78.6988 62.0277 79.1407 61.4843 79.1407ZM63.4531 75.2032H61.4843H49.6718H47.7031C47.1597 75.2032 46.7187 74.7613 46.7187 74.2185C46.7187 73.6762 47.1597 73.2343 47.7031 73.2343H63.4531C63.9965 73.2343 64.4375 73.6762 64.4375 74.2185C64.4375 74.7613 63.9965 75.2032 63.4531 75.2032ZM67.0441 64.1023L62.4687 67.8459V71.2656H57.5468V61.4218H55.5781C54.4923 61.4218 53.6093 60.5389 53.6093 59.4531C53.6093 58.3673 54.4923 57.4843 55.5781 57.4843H57.5468V51.5781H63.4531V49.6093C63.4531 48.5236 64.3361 47.6406 65.4218 47.6406C66.5076 47.6406 67.3906 48.5236 67.3906 49.6093V51.5781H73.2831C73.095 56.4586 70.8448 60.9927 67.0441 64.1023Z" fill="white"></path><path fill-rule="evenodd" clip-rule="evenodd" d="M57.5477 31.8906V40.75H55.579C54.4932 40.75 53.6102 41.633 53.6102 42.7188C53.6102 43.8046 54.4932 44.6875 55.579 44.6875H57.5477V49.6094H61.4852C61.4852 47.4379 63.2512 45.6719 65.4227 45.6719C67.5943 45.6719 69.3602 47.4379 69.3602 49.6094H75.2665V50.9078C75.2665 56.6349 72.7238 61.9997 68.2912 65.6252L64.4384 68.7781V71.4468C65.5812 71.8543 66.4071 72.9371 66.4071 74.2189C66.4071 75.5288 65.5454 76.6313 64.3617 77.0161C64.3156 77.0311 64.2689 77.0447 64.2218 77.0578C64.2399 77.1029 64.257 77.1484 64.2731 77.1945C64.3783 77.4964 64.4384 77.8191 64.4384 78.1564C64.4384 79.4576 63.5869 80.5524 62.4165 80.9449C62.009 84.359 59.1001 87.0157 55.579 87.0157C52.0579 87.0157 49.1491 84.359 48.7415 80.9449C47.5711 80.5524 46.7196 79.4576 46.7196 78.1564C46.7196 77.8191 46.7796 77.4964 46.8848 77.1954C46.9009 77.1494 46.918 77.1038 46.9362 77.0588C46.8891 77.0462 46.8424 77.0321 46.7962 77.0171C45.6126 76.6333 44.7509 75.5298 44.7509 74.2199C44.7509 72.9381 45.5768 71.8553 46.7196 71.4477V68.7791L42.8668 65.6262C38.4342 61.9997 35.8915 56.6349 35.8915 50.9078C35.8915 40.4222 44.4231 31.8906 54.9087 31.8906H57.5477ZM46.5742 68.848L42.7747 65.7387C38.3084 62.0846 35.7461 56.6785 35.7461 50.9078C35.7461 40.3419 44.3428 31.7452 54.9087 31.7452H57.6931V40.8954H55.579C54.5735 40.8954 53.7556 41.7133 53.7556 42.7188C53.7556 43.7243 54.5735 44.5421 55.579 44.5421H57.6931V49.464H61.3424C61.4192 47.2793 63.2196 45.5265 65.4227 45.5265C67.6259 45.5265 69.4263 47.2793 69.5031 49.464H75.4119V50.9078C75.4119 56.6785 72.8497 62.0846 68.3833 65.7377C68.3833 65.7377 68.3833 65.7377 68.3833 65.7377L64.5838 68.847V71.3461C65.7313 71.7986 66.5525 72.909 66.5525 74.2189C66.5525 75.5928 65.6503 76.7476 64.4124 77.1523C64.5213 77.4668 64.5838 77.8036 64.5838 78.1564C64.5838 79.4911 63.7312 80.6168 62.5495 81.0525C62.0934 84.4947 59.1438 87.1611 55.579 87.1611C52.0141 87.1611 49.0646 84.4947 48.6085 81.0525C47.4268 80.6168 46.5742 79.4911 46.5742 78.1564C46.5742 77.8036 46.6366 77.4673 46.7455 77.1533C45.5075 76.7491 44.6055 75.5938 44.6055 74.2199C44.6055 72.91 45.4267 71.7996 46.5742 71.347V68.848ZM48.6884 67.8459V71.2656H55.579V63.3906C53.4075 63.3906 51.6415 61.6247 51.6415 59.4531C51.6415 57.2816 53.4075 55.5156 55.579 55.5156V51.5781H49.6727V49.6094C49.6727 48.5236 48.7898 47.6406 47.704 47.6406C46.6182 47.6406 45.7352 48.5236 45.7352 49.6094V51.5781H37.874C37.8759 51.6266 37.878 51.6751 37.8802 51.7235C38.1069 56.5486 40.3501 61.0236 44.113 64.1023L48.6884 67.8459ZM38.0258 51.7235C38.2523 56.5049 40.4758 60.9387 44.2051 63.9899L48.8338 67.777V71.1202H55.4336V63.5335C53.2489 63.4567 51.4961 61.6563 51.4961 59.4531C51.4961 57.25 53.2489 55.4496 55.4336 55.3728V51.7235H49.5273V49.6094C49.5273 48.6039 48.7095 47.786 47.704 47.786C46.6985 47.786 45.8806 48.6039 45.8806 49.6094V51.7235H38.0258ZM62.3242 67.777L66.953 63.9899C70.6822 60.9387 72.9057 56.5049 73.1322 51.7235H67.2461V49.6094C67.2461 48.6039 66.4282 47.786 65.4227 47.786C64.4173 47.786 63.5994 48.6039 63.5994 49.6094V51.7235H57.6931V57.6298H55.579C54.5735 57.6298 53.7556 58.4477 53.7556 59.4531C53.7556 60.4586 54.5735 61.2765 55.579 61.2765H57.6931V71.1202H62.3242V67.777ZM73.284 51.5781C73.2821 51.6266 73.28 51.6751 73.2778 51.7235C73.0511 56.5486 70.8079 61.0236 67.045 64.1023L62.4696 67.8459V71.2656H57.5477V61.4219H55.579C54.4932 61.4219 53.6102 60.5389 53.6102 59.4531C53.6102 58.3674 54.4932 57.4844 55.579 57.4844H57.5477V51.5781H63.454V49.6094C63.454 48.5236 64.337 47.6406 65.4227 47.6406C66.5085 47.6406 67.3915 48.5236 67.3915 49.6094V51.5781H73.284ZM55.4336 34.0048H54.9087C46.0748 34.0048 38.8017 40.8169 38.067 49.464H43.6237C43.7005 47.2793 45.5008 45.5265 47.704 45.5265C49.9072 45.5265 51.7075 47.2793 51.7843 49.464H55.4336V46.7991C53.2489 46.7223 51.4961 44.9219 51.4961 42.7188C51.4961 40.5156 53.2489 38.7152 55.4336 38.6385V34.0048ZM55.579 46.6563V49.6094H51.6415C51.6415 47.4379 49.8755 45.6719 47.704 45.6719C45.5325 45.6719 43.7665 47.4379 43.7665 49.6094H37.9095C37.9131 49.5609 37.917 49.5124 37.9211 49.464C38.6563 40.7365 45.9944 33.8594 54.9087 33.8594H55.579V38.7813C53.4075 38.7813 51.6415 40.5473 51.6415 42.7188C51.6415 44.8903 53.4075 46.6563 55.579 46.6563ZM50.938 81.2546C51.4473 83.3447 53.3354 84.9013 55.579 84.9013C57.8227 84.9013 59.7107 83.3447 60.2199 81.2546H50.938ZM50.7885 81.2546C50.7772 81.2066 50.7665 81.1581 50.7566 81.1092H60.4014C60.3915 81.1581 60.3808 81.2066 60.3694 81.2546C59.8572 83.4256 57.9037 85.0467 55.579 85.0467C53.2543 85.0467 51.3008 83.4256 50.7885 81.2546ZM49.6727 78.9953H61.4852C61.9482 78.9953 62.3242 78.6183 62.3242 78.1564C62.3242 77.6941 61.9482 77.3171 61.4852 77.3171H49.6727C49.2098 77.3171 48.8338 77.6941 48.8338 78.1564C48.8338 78.6183 49.2098 78.9953 49.6727 78.9953ZM63.454 75.0578C63.917 75.0578 64.293 74.6808 64.293 74.2189C64.293 73.7566 63.917 73.3798 63.454 73.3798H47.704C47.241 73.3798 46.865 73.7566 46.865 74.2189C46.865 74.6808 47.241 75.0578 47.704 75.0578H63.454ZM49.6727 79.1407H61.4852C62.0286 79.1407 62.4696 78.6987 62.4696 78.1564C62.4696 77.6137 62.0286 77.1717 61.4852 77.1717H49.6727C49.1294 77.1717 48.6884 77.6137 48.6884 78.1564C48.6884 78.6987 49.1294 79.1407 49.6727 79.1407ZM63.454 75.2032C63.9974 75.2032 64.4384 74.7612 64.4384 74.2189C64.4384 73.6762 63.9974 73.2344 63.454 73.2344H47.704C47.1606 73.2344 46.7196 73.6762 46.7196 74.2189C46.7196 74.7612 47.1606 75.2032 47.704 75.2032H63.454Z" fill="white"></path></svg> 