<?xml version="1.0" encoding="UTF-8"?> <svg xmlns="http://www.w3.org/2000/svg" width="113" height="113" viewBox="0 0 113 113" fill="none"><path d="M56.5 113C87.7041 113 113 87.7041 113 56.5C113 25.2959 87.7041 0 56.5 0C25.2959 0 0 25.2959 0 56.5C0 87.7041 25.2959 113 56.5 113Z" fill="#009DCC"></path><path d="M47.5418 47.5576C47.5418 46.6781 46.8247 45.9628 45.9432 45.9628H38.4424C37.5609 45.9628 36.8438 46.6781 36.8438 47.5576V52.8121C36.8438 53.6916 37.5609 54.407 38.4424 54.407H45.9432C46.8247 54.407 47.5418 53.6916 47.5418 52.8121V47.5576ZM45.0994 51.9648H39.2859V48.4049H45.0994V51.9648Z" fill="white"></path><path d="M52.4036 54.407H59.908C60.7877 54.407 61.5032 53.6916 61.5032 52.8121V47.5576C61.5032 46.6781 60.7877 45.9628 59.908 45.9628H52.4036C51.5241 45.9628 50.8086 46.6781 50.8086 47.5576V52.8121C50.8086 53.6916 51.5243 54.407 52.4036 54.407ZM53.2509 48.4049H59.0609V51.9647H53.2509V48.4049Z" fill="white"></path><path d="M83.7803 58.0961V35.7839C83.7803 33.846 82.2027 32.2696 80.2635 32.2696H75.2743V30.2172C75.2743 29.543 74.7274 28.9961 74.0531 28.9961H64.8124C64.138 28.9961 63.5913 29.543 63.5913 30.2172V32.2696H49.4362V30.2172C49.4362 29.543 48.8894 28.9961 48.215 28.9961H38.9711C38.2967 28.9961 37.75 29.543 37.75 30.2172V32.2696H32.5237C30.5844 32.2696 29.0069 33.846 29.0069 35.7839V41.6947C29.0025 41.737 29 41.7797 29 41.8232C29 41.8667 29.0025 41.9095 29.0069 41.9517V78.2933C29.0069 80.2315 30.5844 81.8077 32.5237 81.8077H48.9083C49.5827 81.8077 50.1295 81.2612 50.1295 80.5868C50.1295 79.9124 49.5827 79.3654 48.9083 79.3654H32.5237C31.9313 79.3654 31.4492 78.8847 31.4492 78.2933V43.0442H81.338V57.1476C80.2177 56.8376 79.0383 56.6707 77.8207 56.6707C70.5534 56.6707 64.6413 62.5772 64.6413 69.8374C64.6413 73.5818 66.2139 76.966 68.734 79.3654H58.8555C58.1812 79.3654 57.6344 79.9124 57.6344 80.5868C57.6344 81.2612 58.1812 81.8077 58.8555 81.8077H72.3351C74.0062 82.5751 75.8641 83.0039 77.8207 83.0039C85.0876 83.0039 91 77.0976 91 69.8376C91 64.719 88.0607 60.2735 83.7803 58.0961ZM66.0336 31.4384H72.8319V35.5464H66.0336V31.4384ZM40.1922 31.4384H46.9939V35.5464H40.1922V31.4384ZM31.4492 40.6022V35.7839C31.4492 35.1926 31.9313 34.7118 32.5237 34.7118H37.75V36.7674C37.75 37.4418 38.2967 37.9885 38.9711 37.9885H48.215C48.8894 37.9885 49.4362 37.4418 49.4362 36.7674V34.7118H63.5913V36.7674C63.5913 37.4418 64.138 37.9885 64.8124 37.9885H74.0531C74.7274 37.9885 75.2743 37.4418 75.2743 36.7674V34.7118H80.2635C80.8563 34.7118 81.338 35.1926 81.338 35.7839V40.6022H31.4492ZM79.0416 80.4919V79.7536C79.0416 79.0793 78.4951 78.5327 77.8207 78.5327C77.1463 78.5327 76.5994 79.0793 76.5994 79.7536V80.4919C71.6533 79.9296 67.7168 75.9988 67.1536 71.0586H67.8937C68.5681 71.0586 69.115 70.5119 69.115 69.8376C69.115 69.1633 68.5681 68.6165 67.8937 68.6165H67.1536C67.7168 63.6765 71.6533 59.7448 76.5994 59.1831V59.9214C76.5994 60.5957 77.1463 61.1425 77.8207 61.1425C78.4951 61.1425 79.0416 60.5957 79.0416 59.9214V59.1831C83.9878 59.7449 87.9248 63.6765 88.4876 68.6165H87.7474C87.073 68.6165 86.5265 69.1633 86.5265 69.8376C86.5265 70.5119 87.073 71.0586 87.7474 71.0586H88.4876C87.9243 75.9983 83.9878 79.9296 79.0416 80.4919Z" fill="white"></path><path d="M47.5418 58.2831C47.5418 57.4036 46.8247 56.6884 45.9432 56.6884H38.4424C37.5609 56.6884 36.8438 57.4036 36.8438 58.2831V63.5376C36.8438 64.4171 37.5609 65.1324 38.4424 65.1324H45.9432C46.8247 65.1324 47.5418 64.4171 47.5418 63.5376V58.2831ZM45.0994 62.6901H39.2859V59.1304H45.0994V62.6901Z" fill="white"></path><path d="M50.8086 63.5338C50.8086 64.4151 51.5241 65.1321 52.4036 65.1321H59.908C60.7877 65.1321 61.5032 64.4151 61.5032 63.5338V58.2829C61.5032 57.4015 60.7877 56.6846 59.908 56.6846H52.4036C51.5241 56.6846 50.8086 57.4015 50.8086 58.2829V63.5338ZM53.2509 59.1266H59.0609V62.6899H53.2509V59.1266Z" fill="white"></path><path d="M45.9432 67.4103H38.4424C37.5609 67.4103 36.8438 68.1271 36.8438 69.0081V74.2595C36.8438 75.1403 37.5609 75.8572 38.4424 75.8572H45.9432C46.8247 75.8572 47.5418 75.1403 47.5418 74.2595V69.0081C47.5418 68.1271 46.8247 67.4103 45.9432 67.4103ZM45.0994 73.4153H39.2859V69.8525H45.0994V73.4153Z" fill="white"></path><path d="M61.5032 74.2599V69.0046C61.5032 68.1255 60.7877 67.4103 59.908 67.4103H52.4036C51.5241 67.4103 50.8086 68.1255 50.8086 69.0046V74.2599C50.8086 75.1389 51.5241 75.8543 52.4036 75.8543H59.908C60.7877 75.8543 61.5032 75.1389 61.5032 74.2599ZM59.0609 73.412H53.2509V69.8525H59.0609V73.412Z" fill="white"></path><path d="M66.1752 54.407H73.6795C74.5593 54.407 75.2748 53.6916 75.2748 52.8121V47.5576C75.2748 46.6781 74.5593 45.9628 73.6795 45.9628H66.1752C65.2956 45.9628 64.5801 46.6781 64.5801 47.5576V52.8121C64.5801 53.6916 65.2957 54.407 66.1752 54.407ZM67.0224 48.4049H72.8324V51.9647H67.0224V48.4049Z" fill="white"></path><path d="M77.8213 64.267C77.147 64.267 76.6 64.8137 76.6 65.4882V70.1781L74.7311 72.0451C74.2541 72.5215 74.2536 73.2946 74.7302 73.772C74.9688 74.011 75.2815 74.1302 75.5942 74.1302C75.9065 74.1302 76.2188 74.011 76.4573 73.7725L78.6841 71.5482C78.9135 71.3192 79.0423 71.0085 79.0423 70.6843V65.4882C79.0423 64.8136 78.4957 64.267 77.8213 64.267Z" fill="white"></path></svg> 