<?xml version="1.0" encoding="UTF-8"?> <svg xmlns="http://www.w3.org/2000/svg" id="Warstwa_1" data-name="Warstwa 1" viewBox="0 0 31 31"><defs><style>.cls-1{fill:#1a171c;}</style></defs><path class="cls-1" d="M3.63,21h.13a.45.45,0,0,0,.29-.56,32.4,32.4,0,0,1-1.26-9.51.13.13,0,0,1,.13-.13H15.37a.45.45,0,1,0,0-.89H2.92a1,1,0,0,0-1,1,33.29,33.29,0,0,0,1.3,9.79.45.45,0,0,0,.43.31"></path><path class="cls-1" d="M10.87,24.05h4.25a.44.44,0,1,0,0-.88H10.87a2.9,2.9,0,0,1-2.63-1.68,15.77,15.77,0,0,1-1.09-3.44.42.42,0,0,0-.52-.34.43.43,0,0,0-.34.52,15.92,15.92,0,0,0,1.15,3.63,3.78,3.78,0,0,0,3.43,2.19"></path><path class="cls-1" d="M6.36,12.87a.45.45,0,0,0-.47.42A19.58,19.58,0,0,0,6,16a.44.44,0,0,0,.44.4h0a.44.44,0,0,0,.4-.48,19.69,19.69,0,0,1-.07-2.55.44.44,0,0,0-.41-.47"></path><path class="cls-1" d="M26,19.41c-.86.7-2.22,1.68-3.19,2.38a31.15,31.15,0,0,0,1.6-8.18,2.62,2.62,0,0,1,4.51,1.83c0,1.42-1.48,2.8-2.92,4m.28-7.49a3.49,3.49,0,0,0-1.81.52c0-.63,0-1.17,0-1.54a1,1,0,0,0-1-1H17.73a.45.45,0,0,0,0,.89h5.75a.13.13,0,0,1,.13.13c.05,2.21-.1,9.77-4,15.22H18A.44.44,0,0,0,18,27H24a7.61,7.61,0,0,1-5.37,2.2H8A7.61,7.61,0,0,1,2.61,27H15.08a.44.44,0,0,0,0-.88H6.75a17.6,17.6,0,0,1-1.94-3.57.44.44,0,1,0-.82.34,20.08,20.08,0,0,0,1.69,3.23H1.62a.44.44,0,0,0-.4.25.45.45,0,0,0,.05.46A8.51,8.51,0,0,0,8,30.1H18.6a8.51,8.51,0,0,0,6.71-3.25.45.45,0,0,0,.05-.46.44.44,0,0,0-.4-.25H20.72a19,19,0,0,0,1.52-2.85c.52-.36,3-2.09,4.34-3.19,1.6-1.3,3.24-2.87,3.24-4.66a3.53,3.53,0,0,0-3.52-3.52"></path><path class="cls-1" d="M13.43,5.07A1.31,1.31,0,0,1,13,6a.44.44,0,0,0,0,.62.43.43,0,0,0,.31.13.44.44,0,0,0,.32-.13,2.18,2.18,0,0,0,.64-1.55,2.22,2.22,0,0,0-.64-1.56,1.29,1.29,0,0,1,0-1.85A.45.45,0,1,0,13,1a2.18,2.18,0,0,0-.64,1.56A2.17,2.17,0,0,0,13,4.14a1.31,1.31,0,0,1,.39.93"></path><path class="cls-1" d="M7.82,7.81a.44.44,0,0,0,0,.62.43.43,0,0,0,.31.13.4.4,0,0,0,.31-.13,2.2,2.2,0,0,0,0-3.11,1.32,1.32,0,0,1,0-1.86.44.44,0,0,0-.62-.62,2.15,2.15,0,0,0-.65,1.55A2.19,2.19,0,0,0,7.82,6a1.32,1.32,0,0,1,0,1.86"></path><path class="cls-1" d="M18.65,6.42a1.29,1.29,0,0,1-.39.93.45.45,0,0,0,0,.63.44.44,0,0,0,.32.13A.43.43,0,0,0,18.89,8a2.21,2.21,0,0,0,0-3.11,1.3,1.3,0,0,1,0-1.86.45.45,0,1,0-.63-.63,2.22,2.22,0,0,0,0,3.12,1.27,1.27,0,0,1,.39.92"></path></svg> 