<?xml version="1.0" encoding="UTF-8"?> <svg xmlns="http://www.w3.org/2000/svg" xmlns:xlink="http://www.w3.org/1999/xlink" id="Warstwa_1" data-name="Warstwa 1" viewBox="0 0 31 31"><defs><style>.cls-1,.cls-3{fill:none;}.cls-2{clip-path:url(#clip-path);}.cls-3{stroke:#1d1d1b;stroke-miterlimit:10;stroke-width:0.61px;}.cls-4,.cls-5{fill:#1d1d1b;}.cls-5{fill-rule:evenodd;}</style><clipPath id="clip-path"><polygon class="cls-1" points="-0.64 21.85 1.51 28.6 23 29.45 28.44 27.46 29.07 2.29 3.67 1.55 -0.64 21.85"></polygon></clipPath></defs><g class="cls-2"><path class="cls-3" d="M25.92,3.4H5a1.2,1.2,0,0,0-1.2,1.2V26.39A1.2,1.2,0,0,0,5,27.59H25.92a1.19,1.19,0,0,0,1.19-1.2V4.6A1.19,1.19,0,0,0,25.92,3.4ZM22.55,23.48H8.41V12.07H22.55Z"></path><path class="cls-4" d="M22.55,20.29v-.46H8.41v.46H9.78v.91H8.41v.46H9.78v.91H8.41V23H22.55v-.45H19.81v-.91h2.74V21.2H19.81v-.91Zm-5.47.91H15.71v-.91h1.37Zm-1.83,0H13.88v-.91h1.37Zm-1.82,0H12.06v-.91h1.37Zm-3.2-.91H11.6v.91H10.23Zm0,1.37H11.6v.91H10.23Zm1.83,0h1.37v.91H12.06Zm1.82,0h1.37v.91H13.88Zm1.83,0h1.37v.91H15.71Zm3.65.91H17.53v-.92h1.83Zm0-1.37H17.53v-.91h1.83Z"></path><path class="cls-4" d="M13.43,16.18a2.74,2.74,0,1,0,2.74,2.74,2.74,2.74,0,0,0-2.74-2.74m0,5a2.28,2.28,0,1,1,2.28-2.28,2.28,2.28,0,0,1-2.28,2.28m0-6.39a4.11,4.11,0,1,0,4.1,4.11,4.11,4.11,0,0,0-4.1-4.11m0,7.3a3.2,3.2,0,1,1,3.19-3.19,3.19,3.19,0,0,1-3.19,3.19"></path><path class="cls-4" d="M21.18,15.27H18.45l-.92,6.84h4.11ZM18,21.66l.91-5.94h1.83l.45,5.94Z"></path><path class="cls-4" d="M11.58,12.2l-.24-.37L8.08,14.08l.24.36Zm1.55.07L8.08,15.51l.22.33,5.58-3.57Z"></path><path class="cls-3" d="M37.87,15.5A22.39,22.39,0,1,1,15.48-6.89,22.39,22.39,0,0,1,37.87,15.5Z"></path><rect class="cls-4" x="5.21" y="9.2" width="20.53" height="0.6"></rect><path class="cls-5" d="M17.76,5.69A1.14,1.14,0,1,0,18.9,6.83a1.14,1.14,0,0,0-1.14-1.14"></path><path class="cls-5" d="M22.32,5.69a1.14,1.14,0,1,0,1.14,1.14,1.14,1.14,0,0,0-1.14-1.14"></path><rect class="cls-4" x="5.44" y="5.69" width="9.13" height="2.28"></rect></g></svg> 