<?xml version="1.0" encoding="UTF-8"?> <svg xmlns="http://www.w3.org/2000/svg" id="Warstwa_1" data-name="Warstwa 1" viewBox="0 0 31 31"><defs><style>.cls-1{fill:#1d1d1b;}</style></defs><path class="cls-1" d="M20.92,24.43a2.57,2.57,0,0,1-2.55,2.18H12.63a2.57,2.57,0,0,1-2.55-2.18l-3.16-20H24.08ZM24.27,9.06l.8-5A.46.46,0,0,0,25,3.67a.44.44,0,0,0-.34-.16H6.38A.44.44,0,0,0,6,3.67.46.46,0,0,0,5.93,4L9.18,24.57a3.46,3.46,0,0,0,3.11,2.92h6.42a3.48,3.48,0,0,0,3.12-2.92l.64-4.11"></path><path class="cls-1" d="M22.28,9.23a.46.46,0,0,0-.62-.18,6.87,6.87,0,0,1-5.94,0,7.78,7.78,0,0,0-6.82,0,.46.46,0,0,0,.44.8,6.87,6.87,0,0,1,5.94,0,7.29,7.29,0,0,0,3.41.78,7.29,7.29,0,0,0,3.41-.78.46.46,0,0,0,.18-.62"></path><path class="cls-1" d="M20.75,14.52a5.9,5.9,0,0,1-5,0,6.74,6.74,0,0,0-5.91,0,.46.46,0,0,0,.44.8,5.9,5.9,0,0,1,5,0,6.32,6.32,0,0,0,3,.68,6.33,6.33,0,0,0,3-.68.46.46,0,0,0-.44-.8"></path></svg> 