<?xml version="1.0" encoding="UTF-8"?> <svg xmlns="http://www.w3.org/2000/svg" xmlns:xlink="http://www.w3.org/1999/xlink" id="Warstwa_1" data-name="Warstwa 1" viewBox="0 0 31 31"><defs><style>.cls-1,.cls-4{fill:none;}.cls-2{clip-path:url(#clip-path);}.cls-3{fill:#1d1d1b;}.cls-4{stroke:#1d1d1b;stroke-miterlimit:10;stroke-width:0.61px;}</style><clipPath id="clip-path"><polygon class="cls-1" points="-102.64 21.85 -100.48 28.6 -79 29.45 -73.56 27.46 -72.93 2.29 -98.33 1.55 -102.64 21.85"></polygon></clipPath></defs><g class="cls-2"><path class="cls-3" d="M2.54,9.85s1-.43,1-1a5.38,5.38,0,0,0-1.09-5c-1.48,1.93.32,4.08.32,4.08,0,.53-.19,1.92-.19,1.92m3.84,0s1-.43,1-1a5.38,5.38,0,0,0-1.09-5c-1.48,1.93.32,4.08.32,4.08,0,.53-.19,1.92-.19,1.92m3.84,0s1-.43,1-1a5.38,5.38,0,0,0-1.09-5c-1.48,1.93.32,4.08.32,4.08,0,.53-.19,1.92-.19,1.92m7.87,15H-3.42a.78.78,0,0,0-.77.77.77.77,0,0,0,.77.77H-.66l1.08.77H14.25l1.48-.77h2.36a.77.77,0,1,0,0-1.54m5-11.1c-1.26-3.19-5-.42-5-.42L18.66,11a.63.63,0,0,0-.61-.78H-1.82a.63.63,0,0,0-.61.8L1.19,24.45H14.64l1.15-2.31s8.94-4.21,7.28-8.41m-9.2,9.18H2.34L-.73,11.77H16.94Zm2.3-2.69,1.16-4.61s3.63-2.94,4.22-1.53c1.24,3-5.38,6.14-5.38,6.14M14.06,9.85s1-.43,1-1a5.36,5.36,0,0,0-1.08-5c-1.49,1.93.31,4.08.31,4.08,0,.53-.19,1.92-.19,1.92"></path><path class="cls-4" d="M30.55,15.5A22.39,22.39,0,1,1,8.16-6.89,22.39,22.39,0,0,1,30.55,15.5Z"></path></g><path class="cls-3" d="M24.26,10.42H6.74l-1-5.78H25.22ZM21.68,25.88a.56.56,0,0,1-.56.48H9.88a.56.56,0,0,1-.56-.48L6.93,11.57H24.07ZM26.33,3.7a.54.54,0,0,0-.43-.2H5.1a.54.54,0,0,0-.43.2.56.56,0,0,0-.13.46L8.19,26.07A1.71,1.71,0,0,0,9.88,27.5H21.12a1.71,1.71,0,0,0,1.69-1.43L26.46,4.16a.56.56,0,0,0-.13-.46"></path><path class="cls-3" d="M10.8,16.08l2.88.74.75-2.88-2.88-.75Zm3.29,2a.36.36,0,0,1-.14,0l-4-1a.57.57,0,0,1-.41-.7l1-4a.57.57,0,0,1,.69-.41l4,1a.57.57,0,0,1,.41.7l-1,4a.58.58,0,0,1-.56.43M16.9,19.5l2.88.75.75-2.88-2.88-.75Zm3.29,2a.32.32,0,0,1-.14,0l-4-1a.57.57,0,0,1-.41-.7l1-4a.58.58,0,0,1,.7-.41l4,1a.58.58,0,0,1,.41.7l-1,4a.57.57,0,0,1-.55.43m-8.91,1,2,2.22,2.22-2-2-2.22Zm1.94,3.6a.56.56,0,0,1-.43-.19L10,22.85a.57.57,0,0,1,.05-.81l3.07-2.75a.56.56,0,0,1,.8.05l2.75,3.07a.58.58,0,0,1,0,.81L13.6,26a.57.57,0,0,1-.38.15"></path></svg> 