<?xml version="1.0" encoding="UTF-8"?> <svg xmlns="http://www.w3.org/2000/svg" width="31" height="31" viewBox="0 0 31 31" fill="none"><path d="M30.4647 3.95927L27.0394 0.534095C26.3296 -0.175632 25.1808 -0.175874 24.4709 0.534095L23.3726 1.63241C22.9222 2.08275 22.7498 2.71686 22.8857 3.31942L17.9202 4.19558C16.8128 4.39157 15.808 4.915 15.0148 5.70888L13.9533 6.76978C13.2543 7.46885 12.9694 8.4276 13.0984 9.33841C12.1808 9.20884 11.23 9.49371 10.5289 10.1948C9.82879 10.8945 9.54253 11.8444 9.67203 12.7639C8.75482 12.6349 7.8043 12.9194 7.10371 13.62C6.42353 14.3002 6.11372 15.242 6.24752 16.1902C5.3366 16.0611 4.37779 16.3459 3.67859 17.0451L1.23911 19.4839C-0.413018 21.1362 -0.413079 23.8252 1.23918 25.4782L5.52054 29.7595C7.17328 31.4115 9.86209 31.4119 11.5148 29.7594L13.9535 27.32C14.6527 26.6208 14.9376 25.6618 14.8084 24.7508C15.7524 24.884 16.6958 24.5777 17.3786 23.8949C18.0775 23.196 18.3623 22.2372 18.2333 21.3263C19.1723 21.4588 20.1172 21.1571 20.8038 20.4698C21.5028 19.7708 21.7876 18.8122 21.6586 17.9014C22.6065 18.0352 23.5485 17.7257 24.2291 17.0451L25.2895 15.9841C26.0838 15.1906 26.6071 14.1858 26.8031 13.0781L27.6792 8.11294C28.2806 8.24851 28.915 8.0774 29.3663 7.62609L30.4646 6.52778C31.1745 5.81793 31.1746 4.66918 30.4647 3.95927ZM13.0972 26.4637L10.6585 28.9031C9.47829 30.0833 7.55739 30.0833 6.37673 28.9031L2.09555 24.622C0.915312 23.4413 0.915312 21.5204 2.09542 20.3403L4.5349 17.9014C5.24312 17.1931 6.3955 17.1931 7.10377 17.9014L13.0973 23.8948C13.8055 24.6031 13.8055 25.7555 13.0972 26.4637ZM16.5223 23.0386C15.8144 23.7465 14.6643 23.7495 13.9535 23.0386L7.95996 17.0451C7.25029 16.3354 7.25011 15.1862 7.96002 14.4763C8.6692 13.767 9.81765 13.7668 10.5283 14.4758C10.5285 14.476 10.5286 14.4761 10.5288 14.4763L16.5221 20.4695L16.5221 20.4696C16.5221 20.4696 16.5221 20.4696 16.5221 20.4696C17.2302 21.1782 17.2304 22.3306 16.5223 23.0386ZM19.9473 19.6138C19.2382 20.3237 18.0881 20.3238 17.3786 19.6135L11.385 13.6199C10.6749 12.9103 10.6745 11.7612 11.3851 11.0511C12.0953 10.341 13.2431 10.3409 13.9534 11.0511L19.9475 17.0452C20.6557 17.7533 20.6557 18.9054 19.9473 19.6138ZM25.6107 12.8674C25.4582 13.7289 25.0512 14.5105 24.4333 15.1278L23.3726 16.189C22.6644 16.8973 21.512 16.8973 20.8038 16.189L14.8096 10.1949C14.1014 9.48662 14.1014 8.3343 14.8095 7.62615L15.8712 6.56507C16.4882 5.9475 17.2698 5.5405 18.1309 5.38805L23.5955 4.42384L26.5748 7.40322L25.6107 12.8674ZM29.6084 5.67153L28.5101 6.76984C28.2734 7.0064 27.8907 7.00646 27.654 6.76984L24.2289 3.34466C23.9924 3.10799 23.9923 2.72533 24.229 2.48866L25.3273 1.39034C25.564 1.15373 25.9467 1.15379 26.1833 1.39034L29.6084 4.81552C29.8446 5.05177 29.8454 5.43437 29.6084 5.67153Z" fill="black"></path><path d="M30.6018 22.9337L27.9038 17.6481C27.8003 17.4454 27.5921 17.3179 27.3645 17.3179C27.137 17.3179 26.9287 17.4454 26.8252 17.6481L24.1275 22.9335C22.9013 25.3324 24.6486 28.2162 27.3645 28.2162C30.08 28.2162 31.8279 25.3329 30.6018 22.9337ZM27.3645 27.0053C25.5521 27.0053 24.39 25.0805 25.2059 23.4843L27.3645 19.2551L29.5233 23.4845C30.3382 25.079 29.1787 27.0053 27.3645 27.0053Z" fill="black"></path></svg> 