<?xml version="1.0" encoding="UTF-8"?> <svg xmlns="http://www.w3.org/2000/svg" width="112" height="112" viewBox="0 0 112 112" fill="none"><path d="M56 112C86.9279 112 112 86.9279 112 56C112 25.0721 86.9279 0 56 0C25.0721 0 0 25.0721 0 56C0 86.9279 25.0721 112 56 112Z" fill="#009DCC"></path><path d="M78.3125 54.1401C78.9491 54.1401 79.5592 54.2392 80.1719 54.328V41.1245C80.1719 40.0968 79.3402 39.2651 78.3125 39.2651H67.7655L54.1406 29.0399V26.2495C54.1406 25.2218 53.3089 24.3901 52.2812 24.3901C51.2536 24.3901 50.4219 25.2218 50.4219 26.2495V29.0384L36.7356 39.2651H26.25C25.2223 39.2651 24.3906 40.0968 24.3906 41.1245V70.8745C24.3906 71.9022 25.2223 72.7339 26.25 72.7339H66.5886C65.751 70.9683 65.2969 69.077 65.2969 67.1558C65.2969 59.9797 71.1364 54.1401 78.3125 54.1401ZM50.4219 33.6769V33.687C50.4219 34.7147 51.2536 35.5464 52.2812 35.5464C53.3087 35.5464 54.1402 34.7149 54.1406 33.6874L61.5727 39.2651H42.9432L50.4219 33.6769ZM61.5781 48.562C61.5781 49.5897 60.7464 50.4214 59.7188 50.4214H44.8438C43.8161 50.4214 42.9844 49.5897 42.9844 48.562C42.9844 47.5343 43.8161 46.7026 44.8438 46.7026H59.7188C60.7464 46.7026 61.5781 47.5343 61.5781 48.562ZM37.4062 55.9995C37.4062 54.9718 38.2379 54.1401 39.2656 54.1401H65.2969C66.3246 54.1401 67.1562 54.9718 67.1562 55.9995C67.1562 57.0272 66.3246 57.8589 65.2969 57.8589H39.2656C38.2379 57.8589 37.4062 57.0272 37.4062 55.9995ZM61.5781 65.2964H42.9844C41.9567 65.2964 41.125 64.4647 41.125 63.437C41.125 62.4093 41.9567 61.5776 42.9844 61.5776H61.5781C62.6058 61.5776 63.4375 62.4093 63.4375 63.437C63.4375 64.4647 62.6058 65.2964 61.5781 65.2964ZM72.7344 78.8827V85.7495C72.7344 86.5014 73.1883 87.1804 73.8819 87.4674C74.5719 87.7561 75.3745 87.5982 75.9084 87.0642L78.3125 84.6601L80.7166 87.0642C81.2571 87.6047 82.0669 87.7517 82.7431 87.4674C83.4367 87.1804 83.8906 86.5014 83.8906 85.7495V78.8819C82.159 79.7111 80.2559 80.1714 78.3125 80.1714C76.3704 80.1714 74.4708 79.712 72.7344 78.8827ZM78.3125 57.8589C73.1848 57.8589 69.0156 62.0298 69.0156 67.1558C69.0156 72.2633 73.1916 76.4526 78.3125 76.4526C83.2344 76.4526 87.6094 72.486 87.6094 67.1558C87.6094 62.0298 83.4402 57.8589 78.3125 57.8589Z" fill="white"></path></svg> 