<?xml version="1.0" encoding="UTF-8"?> <svg xmlns="http://www.w3.org/2000/svg" width="31" height="31" viewBox="0 0 31 31" fill="none"><g clip-path="url(#clip0)"><path d="M16.0548 7.03028C15.8027 6.66504 15.1989 6.66504 14.9455 7.03028C14.3821 7.84707 9.43555 15.0984 9.43555 18.1957C9.43555 21.5397 12.1568 24.261 15.5008 24.261C18.8448 24.261 21.5661 21.5397 21.5661 18.1957C21.5661 15.0984 16.6195 7.84707 16.0548 7.03028ZM15.5008 22.9132C12.8995 22.9132 10.7834 20.7971 10.7834 18.1957C10.7834 16.174 13.8052 11.1843 15.5008 8.61799C17.1964 11.1829 20.2183 16.1726 20.2183 18.1957C20.2183 20.797 18.1022 22.9132 15.5008 22.9132Z" fill="black"></path><path d="M15.5005 20.2174C14.3858 20.2174 13.4787 19.3104 13.4787 18.1957C13.4787 17.8237 13.1768 17.5217 12.8048 17.5217C12.4328 17.5217 12.1309 17.8237 12.1309 18.1957C12.1309 20.053 13.6431 21.5652 15.5004 21.5652C15.8724 21.5652 16.1744 21.2633 16.1744 20.8913C16.1744 20.5194 15.8725 20.2174 15.5005 20.2174Z" fill="black"></path><path d="M15.4998 2.69556C8.43981 2.69556 2.69531 8.44006 2.69531 15.5C2.69531 22.56 8.43981 28.3045 15.4998 28.3045C22.5597 28.3045 28.3042 22.56 28.3042 15.5C28.3042 8.44006 22.5597 2.69556 15.4998 2.69556ZM15.4998 26.9566C9.18249 26.9566 4.04319 21.8173 4.04319 15.5C4.04319 9.18273 9.18249 4.04337 15.4998 4.04337C21.8171 4.04337 26.9564 9.18267 26.9564 15.5C26.9564 21.8172 21.8171 26.9566 15.4998 26.9566Z" fill="black"></path><path d="M7.21615 17.0461L3.84658 13.6765C3.70373 13.535 3.51368 13.469 3.30342 13.4824C3.10257 13.5013 2.92062 13.6105 2.80879 13.7789L0.113093 17.8224C-0.0931256 18.1325 -0.00953868 18.5503 0.300422 18.7565C0.416357 18.8333 0.545749 18.8697 0.673751 18.8697C0.890774 18.8697 1.10508 18.7646 1.23447 18.5705L3.47458 15.2103L6.26327 17.999C6.5261 18.2618 6.95338 18.2618 7.21621 17.999C7.47898 17.7361 7.47898 17.3089 7.21615 17.0461Z" fill="black"></path><path d="M30.6989 12.2437C30.3875 12.0375 29.9697 12.1211 29.7648 12.431L27.5247 15.7912L24.736 13.0025C24.4732 12.7397 24.0459 12.7397 23.7831 13.0025C23.5202 13.2653 23.5202 13.6926 23.7831 13.9554L27.1526 17.325C27.2807 17.4517 27.4519 17.5218 27.6298 17.5218C27.6513 17.5218 27.6742 17.5205 27.6958 17.5178C27.8966 17.4989 28.0786 17.3897 28.1904 17.2213L30.8861 13.1778C31.0925 12.8677 31.0089 12.4499 30.6989 12.2437Z" fill="black"></path></g><defs><clipPath id="clip0"><rect width="31" height="31" fill="white"></rect></clipPath></defs></svg> 