<?xml version="1.0" encoding="UTF-8"?> <svg xmlns="http://www.w3.org/2000/svg" width="113" height="113" viewBox="0 0 113 113" fill="none"><path d="M56.5 113C87.7041 113 113 87.7041 113 56.5C113 25.2959 87.7041 0 56.5 0C25.2959 0 0 25.2959 0 56.5C0 87.7041 25.2959 113 56.5 113Z" fill="#009DCC"></path><path d="M43.3518 32.4213C44.1177 33.1865 45.3582 33.1865 46.1239 32.4213C46.8897 31.6562 46.8897 30.4167 46.1239 29.6515L42.2031 25.734C41.4372 24.9689 40.1969 24.9689 39.431 25.734C38.6652 26.4992 38.6652 27.7387 39.431 28.5039L43.3518 32.4213ZM69.6482 32.4213L73.569 28.5039C74.3348 27.7387 74.3348 26.4992 73.569 25.734C72.8031 24.9689 71.5628 24.9689 70.7969 25.734L66.8761 29.6515C66.1103 30.4167 66.1103 31.6562 66.8761 32.4213C67.642 33.1865 68.8823 33.1865 69.6482 32.4213ZM43.3518 80.5788L39.431 84.4963C38.6652 85.2614 38.6652 86.5009 39.431 87.2661C40.1969 88.0313 41.4375 88.0313 42.2031 87.2661L46.1239 83.3486C46.8897 82.5834 46.8897 81.344 46.1239 80.5788C45.358 79.8136 44.1177 79.8136 43.3518 80.5788ZM69.6482 80.5788C68.8823 79.8136 67.6418 79.8136 66.8761 80.5788C66.1103 81.344 66.1103 82.5834 66.8761 83.3486L70.7969 87.2661C71.5628 88.0313 72.8033 88.0313 73.569 87.2661C74.3348 86.5009 74.3348 85.2614 73.569 84.4963L69.6482 80.5788ZM23.1738 40.8301V60.4175C23.1738 61.5001 24.0507 62.3763 25.1341 62.3763H31.0152V38.8714H25.1341C24.0507 38.8714 23.1738 39.7476 23.1738 40.8301ZM61.3224 62.9638C62.1065 62.1805 63.3219 62.1805 64.1063 62.9638L67.7133 66.5288L69.6574 64.5862C70.0256 64.2185 70.2321 63.7195 70.2317 63.1995C70.2313 62.6795 70.0238 62.181 69.6552 61.8137L59.0875 51.2897L56.1862 54.2277C52.9712 57.2443 48.1095 57.1266 45.1296 54.306C42.0322 51.1721 41.9539 46.1968 45.0515 43.1018L49.3249 38.8712H34.936V62.3761C35.9947 62.3761 36.9356 62.7676 37.6414 63.4727L51.8343 76.9489C52.5401 77.654 53.5203 78.046 54.5397 78.046C55.5984 78.046 56.5786 77.654 57.3234 76.9098L58.6956 75.5388L55.0886 72.0128C54.3044 71.2686 54.2652 70.0541 55.01 69.2708C55.7549 68.4873 57.0096 68.448 57.794 69.1925L61.4795 72.7573L64.9298 69.3099L61.3226 65.7058C60.5775 64.9616 60.5775 63.708 61.3224 62.9638ZM53.7163 40.0074L47.8352 45.8836C46.2671 47.4508 46.3452 49.9575 47.8352 51.4464C49.4035 52.935 51.9129 52.8569 53.4029 51.4464L59.0877 45.7271L75.8294 62.3765H78.0642V38.8716H56.5C55.4806 38.8714 54.5004 39.2629 53.7163 40.0074ZM87.8659 38.8714H81.9848V62.3763H87.8659C88.9495 62.3763 89.8262 61.5001 89.8262 60.4175V40.8301C89.8262 39.7476 88.9493 38.8714 87.8659 38.8714Z" fill="white"></path></svg> 