<?xml version="1.0" encoding="UTF-8"?> <svg xmlns="http://www.w3.org/2000/svg" width="113" height="113" viewBox="0 0 113 113" fill="none"><path d="M56.5 113C87.7041 113 113 87.7041 113 56.5C113 25.2959 87.7041 0 56.5 0C25.2959 0 0 25.2959 0 56.5C0 87.7041 25.2959 113 56.5 113Z" fill="#009DCC"></path><path d="M74.1652 54.5397C74.1652 44.8107 66.2417 36.8965 56.501 36.8965C46.7602 36.8965 38.8368 44.8107 38.8368 54.5397C38.8368 64.2687 46.7602 72.1829 56.501 72.1829C66.2417 72.1829 74.1652 64.2687 74.1652 54.5397ZM52.5756 50.6189C51.4906 50.6189 50.6128 49.7421 50.6128 48.6586C50.6128 45.4156 53.254 42.7776 56.501 42.7776C59.748 42.7776 62.3891 45.4156 62.3891 48.6586C62.3891 50.7531 61.2622 52.7019 59.4452 53.7509C58.8395 54.1032 58.4637 54.754 58.4637 55.451V56.5C58.4637 57.5837 57.586 58.4603 56.501 58.4603C55.416 58.4603 54.5383 57.5834 54.5383 56.5V55.451C54.5383 53.3605 55.6652 51.4077 57.4785 50.3587C58.0878 50.0065 58.4637 49.3556 58.4637 48.6586C58.4637 47.579 57.582 46.6981 56.501 46.6981C55.42 46.6981 54.5383 47.5787 54.5383 48.6586C54.5383 49.7421 53.6605 50.6189 52.5756 50.6189ZM54.5383 64.3414C54.5383 63.2586 55.4171 62.3811 56.501 62.3811C57.5849 62.3811 58.4637 63.2586 58.4637 64.3414C58.4637 65.4239 57.5849 66.3016 56.501 66.3016C55.4171 66.3016 54.5383 65.4241 54.5383 64.3414ZM58.4637 23.1738H54.5383C40.4698 23.1738 29.0234 34.6067 29.0234 48.6586V60.4208C29.0234 61.5044 29.9014 62.3811 30.9862 62.3811H36.4115C35.4554 59.9472 34.9116 57.3078 34.9116 54.5397C34.9116 51.7714 35.4554 49.1323 36.4115 46.6981H33.0482C34.0447 35.7257 43.2981 27.0946 54.5383 27.0946H58.4637C69.7039 27.0946 78.9573 35.7257 79.9538 46.6981H76.5905C77.5466 49.132 78.0904 51.7714 78.0904 54.5397C78.0904 57.308 77.5466 59.9472 76.5905 62.3811H80.0531C80.0531 72.6588 72.0645 81.0219 61.9786 81.8279C61.1245 79.6315 58.9987 78.064 56.501 78.064C53.2542 78.064 50.6128 80.7021 50.6128 83.9451C50.6128 87.1881 53.2542 89.8262 56.501 89.8262C59.0865 89.8262 61.2635 88.1422 62.053 85.8231C74.281 84.9826 83.9785 74.8047 83.9785 62.3811V48.6586C83.9785 34.6067 72.5322 23.1738 58.4637 23.1738Z" fill="white"></path></svg> 