<?xml version="1.0" encoding="UTF-8"?> <svg xmlns="http://www.w3.org/2000/svg" width="31" height="31" viewBox="0 0 31 31" fill="none"><path d="M25.9814 0.196825C25.9486 0.0656085 25.8174 0 25.6533 0H5.44594C5.28192 0 5.1179 0.0656085 5.01949 0.196825C4.92108 0.328042 4.85547 0.459259 4.85547 0.62328L7.11896 28.3101C7.25018 29.7862 8.56235 31 10.0385 31H20.9623C22.4713 31 23.7835 29.7862 23.8819 28.3101L26.1454 0.62328C26.1454 0.459259 26.1126 0.295238 25.9814 0.196825ZM21.028 29.8847H10.0713C9.18563 29.8847 8.39833 29.163 8.29991 28.2772H22.7994C22.701 29.163 21.8809 29.8847 21.028 29.8847ZM22.8978 27.1291H8.2015L6.06923 1.14815H24.9973L22.8978 27.1291Z" fill="black"></path><path d="M22.7017 10.0711C22.5377 9.93986 22.3408 9.90705 22.1768 9.97266C20.0117 10.7272 17.7154 10.7272 15.6816 10.0055C14.9271 9.74303 14.0414 9.61182 13.09 9.61182C10.7281 9.61182 8.56305 10.4319 8.46464 10.4647C8.23501 10.5631 8.07098 10.7928 8.10379 11.0552L9.21913 25.2266C9.25194 25.5219 9.48157 25.7515 9.7768 25.7515H21.3895C21.6847 25.7515 21.9472 25.5219 21.9472 25.2266L22.9313 10.5631C22.9313 10.3663 22.8657 10.1695 22.7017 10.0711ZM20.8646 24.5705H10.3017L9.31755 11.3832C10.0064 11.1536 11.5482 10.7272 13.1228 10.7272C13.9429 10.7272 14.6974 10.8584 15.3207 11.0552C17.3218 11.7769 19.5853 11.8425 21.7504 11.2848L20.8646 24.5705Z" fill="black"></path></svg> 