<?xml version="1.0" encoding="UTF-8"?> <svg xmlns="http://www.w3.org/2000/svg" id="Warstwa_1" data-name="Warstwa 1" viewBox="0 0 31 31"><defs><style>.cls-1{fill:#9d9d9c;}.cls-2{fill:#fff;}.cls-2,.cls-3,.cls-4{stroke:#1d1d1b;stroke-width:0.75px;}.cls-2,.cls-4{stroke-linecap:round;stroke-linejoin:round;}.cls-3{fill:none;stroke-miterlimit:10;}.cls-4{fill:#1d1d1b;}</style></defs><path class="cls-1" d="M8.2,22.58h0v0ZM22.79,8.46h0v0h0v0"></path><path class="cls-2" d="M22.79,22.56H8.23L22.79,8.47V22.56"></path><polygon class="cls-1" points="22.81 22.59 8.2 22.59 22.81 22.59 22.81 8.43 22.8 8.43 22.81 8.41 22.81 22.59"></polygon><polyline class="cls-1" points="8.21 22.56 8.21 22.56 8.21 22.54 22.77 8.46 22.79 8.46 8.21 22.56"></polyline><polygon class="cls-1" points="22.81 22.59 8.2 22.59 8.19 22.57 8.2 22.56 8.2 22.58 22.8 22.58 22.8 8.44 22.78 8.44 22.79 8.43 22.8 8.43 22.81 8.43 22.81 22.59"></polygon><path class="cls-1" d="M22.8,22.58H8.2v0L22.79,8.46V22.58Zm0-14.11L8.23,22.56H22.79V8.47"></path><circle class="cls-3" cx="15.5" cy="15.5" r="14.87"></circle><path class="cls-4" d="M8.21,22.54V8.46H22.77L8.21,22.54"></path></svg> 