<?xml version="1.0" encoding="UTF-8"?> <svg xmlns="http://www.w3.org/2000/svg" id="Warstwa_1" data-name="Warstwa 1" viewBox="0 0 31 31"><defs><style>.cls-1{fill:#1d1d1b;}.cls-2{fill:none;stroke:#1d1d1b;stroke-miterlimit:10;stroke-width:0.75px;}</style></defs><path class="cls-1" d="M7.17,11.1h3.61a3.12,3.12,0,0,1,1,.15,2.24,2.24,0,0,1,.76.46,2,2,0,0,1,.49.73,2.91,2.91,0,0,1,0,2,2,2,0,0,1-.49.73,2.1,2.1,0,0,1-.76.46,3.12,3.12,0,0,1-1,.15H7.94v3.48H7.17Zm.77,4h2.67a2,2,0,0,0,1.3-.41,1.5,1.5,0,0,0,.51-1.25,1.5,1.5,0,0,0-.51-1.25,2,2,0,0,0-1.3-.41H7.94Z"></path><path class="cls-1" d="M13.91,15.16a5.68,5.68,0,0,1,.23-1.6,4,4,0,0,1,.72-1.35,3.46,3.46,0,0,1,1.2-.93,3.85,3.85,0,0,1,1.68-.35,3.8,3.8,0,0,1,1.67.35,3.46,3.46,0,0,1,1.2.93,4,4,0,0,1,.71,1.35,5.45,5.45,0,0,1,0,3.2,4,4,0,0,1-.71,1.35,3.61,3.61,0,0,1-1.2.94,3.8,3.8,0,0,1-1.67.34,3.85,3.85,0,0,1-1.68-.34,3.61,3.61,0,0,1-1.2-.94,4,4,0,0,1-.72-1.35A5.63,5.63,0,0,1,13.91,15.16Zm.77,0a4.76,4.76,0,0,0,.18,1.31,3.43,3.43,0,0,0,.54,1.14,2.8,2.8,0,0,0,1,.82,3.35,3.35,0,0,0,2.77,0,2.9,2.9,0,0,0,.95-.82,3.64,3.64,0,0,0,.54-1.14,4.82,4.82,0,0,0,0-2.61,3.69,3.69,0,0,0-.54-1.15,2.76,2.76,0,0,0-.95-.81,3.25,3.25,0,0,0-2.77,0,2.67,2.67,0,0,0-1,.81,3.48,3.48,0,0,0-.54,1.15A4.8,4.8,0,0,0,14.68,15.16Z"></path><path class="cls-1" d="M21.69,20l1.43-2.05h.25V20h.46v.24h-.46V21h-.26v-.76H21.69Zm1.42,0V18.31h0L21.94,20Z"></path><circle class="cls-2" cx="15.5" cy="15.5" r="14.87"></circle></svg> 