<?xml version="1.0" encoding="UTF-8"?> <svg xmlns="http://www.w3.org/2000/svg" id="Warstwa_1" data-name="Warstwa 1" viewBox="0 0 31 31"><defs><style>.cls-1{fill:#1d1d1b;}</style></defs><path class="cls-1" d="M21.29,26a.54.54,0,0,1-.54-.53V9.27a3.21,3.21,0,0,0-6.41,0,.54.54,0,1,1-1.07,0,4.28,4.28,0,0,1,8.55,0v16.2a.53.53,0,0,1-.53.53"></path><path class="cls-1" d="M17.9,10.07H9.71A.54.54,0,0,1,9.71,9H17.9a.54.54,0,1,1,0,1.07"></path><path class="cls-1" d="M11.41,13.48a.27.27,0,0,1-.27-.27v-1.6a.27.27,0,1,1,.53,0v1.6a.27.27,0,0,1-.26.27"></path><path class="cls-1" d="M11.41,17.88a.27.27,0,0,1-.27-.26V15.41a.27.27,0,0,1,.53,0v2.21a.26.26,0,0,1-.26.26"></path><path class="cls-1" d="M11.41,21.69a.27.27,0,0,1-.27-.27v-1.6a.27.27,0,1,1,.53,0v1.6a.27.27,0,0,1-.26.27"></path><path class="cls-1" d="M13.81,13.48a.27.27,0,0,1-.27-.27v-1.6a.27.27,0,0,1,.54,0v1.6a.27.27,0,0,1-.27.27"></path><path class="cls-1" d="M13.81,17.88a.27.27,0,0,1-.27-.26V15.41a.27.27,0,0,1,.54,0v2.21a.27.27,0,0,1-.27.26"></path><path class="cls-1" d="M13.81,21.69a.27.27,0,0,1-.27-.27v-1.6a.27.27,0,0,1,.54,0v1.6a.27.27,0,0,1-.27.27"></path><path class="cls-1" d="M16.21,13.48a.27.27,0,0,1-.26-.27v-1.6a.27.27,0,1,1,.53,0v1.6a.27.27,0,0,1-.27.27"></path><path class="cls-1" d="M16.21,17.88a.26.26,0,0,1-.26-.26V15.41a.27.27,0,0,1,.53,0v2.21a.27.27,0,0,1-.27.26"></path><path class="cls-1" d="M16.21,21.69a.27.27,0,0,1-.26-.27v-1.6a.27.27,0,1,1,.53,0v1.6a.27.27,0,0,1-.27.27"></path></svg> 