<?xml version="1.0" encoding="UTF-8"?> <svg xmlns="http://www.w3.org/2000/svg" id="Warstwa_1" data-name="Warstwa 1" viewBox="0 0 31 31"><defs><style>.cls-1{fill:#1d1d1b;}.cls-2{fill:#fff;stroke:#fff;stroke-linecap:round;stroke-linejoin:round;stroke-width:0.04px;}.cls-3{fill:none;stroke:#1d1d1b;stroke-miterlimit:10;stroke-width:0.75px;}</style></defs><path class="cls-1" d="M8.74,10.64c-.12-.26-.17-.27-.41-.45a5,5,0,0,1,3.87,2.06c0-.22,0-.45-.06-.72A5.64,5.64,0,0,1,14,12.6a4.36,4.36,0,0,1,1.3,1.78l.09,0c0-.23,0-.46,0-.74a5.68,5.68,0,0,1,2.93,2.8l.08-.06c0-.16,0-.31-.06-.57a6.17,6.17,0,0,0,1.8,1.4l-.2-.48.72.5c-.15-.37-.35-.66-.09-1,.11.33.07.7.51.88v-.62l.14,0,.23.55.21-.23a.31.31,0,0,1,0,.09c0,.6.28.81.85.65.78-.23,1.55-.5,2.32-.75a.45.45,0,0,1,.19-.05l1.78.25c-.8.31-1.54.63-2.3.89a14.24,14.24,0,0,1-1.74.42.64.64,0,0,0-.44.78,1.92,1.92,0,0,0,.16.42,4.1,4.1,0,0,0,.25.4c-.39,0-.52-.23-.65-.5a.91.91,0,0,0-.45.77l-.23-.54a5,5,0,0,1-4,1.79l.63-1c-1.23,1.19-2.71,1.18-4.24,1-.6-.1-1.19-.24-1.79-.36v-.12l.83-.65a.3.3,0,0,1,0-.08c-2.24.91-3.94-.62-5.54-2.18l.88-.24a2.76,2.76,0,0,1-2.53-1.34A10.61,10.61,0,0,1,4.5,13.66a1.88,1.88,0,0,0,.63.48,3.61,3.61,0,0,0-.25-.3c-.28-.28-1.24-3.31-.31-4.24.88-.37,3.9.75,4.17,1"></path><path class="cls-2" d="M20.4,18.35a18.18,18.18,0,0,1-7.6-1.45,52.33,52.33,0,0,1-5.81-4c3.06,2.48,6,6,13.41,5.47"></path><circle class="cls-3" cx="15.5" cy="15.5" r="14.87"></circle></svg> 