<?xml version="1.0" encoding="UTF-8"?> <svg xmlns="http://www.w3.org/2000/svg" id="Warstwa_1" data-name="Warstwa 1" viewBox="0 0 31 31"><defs><style>.cls-1{fill:#1d1d1b;}.cls-2{fill:none;stroke:#1d1d1b;stroke-miterlimit:10;stroke-width:0.75px;}</style></defs><path class="cls-1" d="M7.13,10.63h1v6.46a5,5,0,0,0,.21,1.55,2.48,2.48,0,0,0,.6,1,2.34,2.34,0,0,0,1,.58,4.28,4.28,0,0,0,1.29.18,4.28,4.28,0,0,0,1.29-.18,2.41,2.41,0,0,0,1-.58,2.58,2.58,0,0,0,.59-1,5,5,0,0,0,.21-1.55V10.63h1v6.68A5.1,5.1,0,0,1,15,18.84a3.33,3.33,0,0,1-.72,1.27A3.48,3.48,0,0,1,13,21a4.88,4.88,0,0,1-1.86.32A4.86,4.86,0,0,1,9.33,21a3.48,3.48,0,0,1-1.26-.86,3.33,3.33,0,0,1-.72-1.27,5.1,5.1,0,0,1-.22-1.53Z"></path><path class="cls-1" d="M17.25,10.63h6.62v.85H18.24v3.77h5v.85h-5v5h-1Z"></path><circle class="cls-2" cx="15.5" cy="15.5" r="14.87"></circle></svg> 