<?xml version="1.0" encoding="UTF-8"?> <svg xmlns="http://www.w3.org/2000/svg" id="Warstwa_1" data-name="Warstwa 1" viewBox="0 0 31 31"><defs><style>.cls-1{fill:#1d1d1b;}</style></defs><path class="cls-1" d="M25.74,7.75H4.1L5.56,5H16.31a.46.46,0,0,0,0-.92H7.89L9.11,1.37H21.89L23.11,4.1H19.35a.46.46,0,1,0,0,.92h6.09L26.9,7.75ZM23.15,22.54H19.83a7,7,0,0,0,.43-1.05c.06-.17.11-.34.15-.5a.46.46,0,0,0-.32-.56.46.46,0,0,0-.56.32c0,.15-.08.3-.13.45-.82,2.47-2.73,4.14-4.59,4.2a4.76,4.76,0,0,0,1.1-5.69,3.77,3.77,0,0,1,0-3.46.46.46,0,0,0-.82-.4,4.79,4.79,0,0,0,0,4.27,3.84,3.84,0,0,1-1.53,5.07,3.66,3.66,0,0,1-2-2.35,6.75,6.75,0,0,1,.07-4.21c1-2.94,3.51-4.76,5.66-4,1.54.51,2.53,2.23,2.51,4.37a.46.46,0,0,0,.46.46h0a.46.46,0,0,0,.46-.45,7.49,7.49,0,0,0-.19-1.67h3.42ZM10.74,18.35a7.74,7.74,0,0,0-.24,4.19H7.86l-.78-5.25h4.09a9,9,0,0,0-.43,1.06M28.06,8,26.12,4.35a.47.47,0,0,0-.4-.25H24.11L22.6.73a.43.43,0,0,0-.41-.27H8.81A.43.43,0,0,0,8.4.73L6.89,4.1H5.28a.47.47,0,0,0-.4.25L2.94,8a.48.48,0,0,0,0,.45.47.47,0,0,0,.4.22H4.87l.3,2a.44.44,0,0,0,.51.38.45.45,0,0,0,.39-.51L5.79,8.66H25.21l-1.15,7.72H20.22a4.43,4.43,0,0,0-2.67-2.67c-2.08-.68-4.41.48-5.86,2.67H6.94L6.48,13.3A.45.45,0,0,0,6,12.92a.46.46,0,0,0-.38.52L8.06,30.15a.46.46,0,0,0,.45.39h14a.46.46,0,0,0,0-.91H8.91L8,23.46h2.8a4.38,4.38,0,0,0,2.66,2.66,3.77,3.77,0,0,0,1.23.2,5.8,5.8,0,0,0,4.63-2.86H23l-.58,3.93a.45.45,0,0,0,.38.52h.07a.46.46,0,0,0,.45-.39l2.8-18.86h1.52a.46.46,0,0,0,.4-.22.48.48,0,0,0,0-.45"></path></svg> 